<svg width="87" height="88" viewBox="0 0 87 88" fill="none" xmlns="http://www.w3.org/2000/svg">
<path d="M1.9071 2.70314C2.47015 2.122 3.19666 1.59535 4.17745 1.12318L5.63048 0.414917H81.2787L82.6046 1.01421C83.3129 1.3411 84.3119 1.97672 84.7841 2.41257C85.3653 2.93922 85.9102 3.70196 87 5.9357V52.9895L86.4551 54.1699C86.1463 54.8237 85.5288 55.7499 85.0929 56.222C84.5662 56.8032 83.8033 57.348 81.5693 58.4376L59.0292 58.5284L58.5752 58.9824C58.2845 59.273 58.1756 59.5272 58.2482 59.7089C58.3754 59.9268 58.8839 59.9813 61.3904 59.9813C64.3509 59.9813 64.3873 59.9813 65.2954 60.8893V70.6959L64.8413 71.1499C64.4054 71.604 64.3691 71.604 61.3904 71.604C58.8839 71.604 58.3754 71.6403 58.2664 71.8764C58.1574 72.0943 58.7023 72.7299 60.2461 74.2917C62.1532 76.1804 62.3712 76.4891 62.3894 77.0521C62.3894 77.6332 62.1169 77.9601 58.8839 81.1745C55.6691 84.3889 55.3422 84.6795 54.761 84.6795C54.1979 84.6613 53.8891 84.4253 52.0002 82.5366C50.4382 80.9929 49.8025 80.4481 49.5845 80.5389C49.3484 80.666 49.3121 81.1745 49.3121 83.6807C49.3121 86.6227 49.3121 86.6771 48.4221 87.5852H38.596L38.142 87.1312C37.6879 86.6771 37.6879 86.6408 37.6879 83.6807C37.6879 81.1745 37.6516 80.666 37.4154 80.5389C37.1975 80.4481 36.5618 80.9929 34.9998 82.5366C33.1109 84.4434 32.8021 84.6613 32.239 84.6795C31.6578 84.6795 31.3309 84.4071 28.1161 81.1745C24.8831 77.9601 24.6106 77.6332 24.6106 77.0521C24.6288 76.4891 24.8468 76.1804 26.7539 74.2917C28.2977 72.7299 28.8426 72.0943 28.7518 71.8764C28.6246 71.6403 28.1161 71.604 25.6096 71.604C22.6491 71.604 22.6127 71.604 21.7046 70.6959V60.8893L22.1587 60.4353C22.5946 59.9813 22.6309 59.9813 25.6096 59.9813C28.0979 59.9813 28.6246 59.9268 28.7518 59.7089C28.8244 59.5272 28.7154 59.273 27.9708 58.5284L5.44885 58.4376L4.26827 57.8928C3.6144 57.5841 2.6881 56.9666 2.21587 56.5308C1.63466 56.0041 1.08977 55.2414 0 53.0076V5.95386L0.544885 4.77343C0.853653 4.11965 1.47119 3.19347 1.9071 2.70314Z" fill="#231F20"/>
<path d="M80.752 5.31821C80.5159 4.8642 80.1344 4.22858 79.8802 3.91985L79.4261 3.32056H79.9528C80.2253 3.32056 80.7883 3.42952 81.1879 3.53848C81.6238 3.68377 82.2777 4.11962 82.8225 4.68259C83.3856 5.22741 83.8215 5.88118 83.9668 6.31703C84.1303 6.86185 84.1848 12.5642 84.1848 29.4716C84.1848 46.379 84.1303 52.0814 83.9668 52.6262C83.8215 53.0621 83.3856 53.7159 82.8225 54.2607C82.2777 54.8237 81.6238 55.2595 81.1879 55.4048C80.7883 55.5137 80.2434 55.6227 79.4624 55.6227L79.8983 55.0416C80.1344 54.7147 80.5159 54.0791 81.1879 52.8078V6.13543L80.752 5.31821Z" fill="#2488FF"/>
<path d="M40.1762 52.7896C40.5758 52.3719 40.594 52.2085 40.594 49.6297V46.9056H46.4061V49.6297C46.4061 52.2085 46.4242 52.3719 46.8056 52.7896C47.0418 53.0439 47.7501 53.4616 48.404 53.7158C49.0578 53.9882 49.8752 54.2425 50.2203 54.297C50.8196 54.3696 50.9649 54.2788 54.8518 50.3561L58.9203 54.4422L56.9223 56.4399C55.0153 58.3286 54.9244 58.4739 54.9971 59.0732C55.0516 59.4182 55.3059 60.2354 55.5783 60.8892C55.8326 61.543 56.2503 62.2512 56.5046 62.4873C56.9224 62.8687 57.0858 62.8869 62.3894 62.8869V68.6982H59.6649C57.0858 68.6982 56.9224 68.7164 56.5046 69.1159C56.2503 69.3338 55.8326 70.0421 55.5783 70.6959C55.3059 71.3496 55.0516 72.1669 54.9971 72.5119C54.9244 73.1112 55.0153 73.2565 58.9203 77.1428L54.8518 81.2289L52.8539 79.2131C50.9649 77.3063 50.8196 77.2155 50.2203 77.2881C49.8752 77.3426 49.0578 77.5968 48.404 77.8692C47.7501 78.1235 47.0418 78.5412 46.8056 78.7954C46.4242 79.2131 46.4061 79.3766 46.4061 84.6794H40.594V81.9553C40.594 79.3766 40.5758 79.2131 40.1944 78.7954C39.9583 78.5412 39.2499 78.1235 38.596 77.8692C37.9422 77.5968 37.1249 77.3426 36.7798 77.2881C36.1804 77.2155 36.0351 77.3063 32.1482 81.2108L28.0616 77.1428L30.0777 75.1452C31.9848 73.2565 32.0756 73.1112 32.0029 72.5119C31.9484 72.1669 31.6942 71.3496 31.4217 70.6959C31.1674 70.0421 30.7497 69.3338 30.4954 69.1159C30.0777 68.7164 29.9142 68.6982 24.6107 68.6982V62.8869H27.3351C29.9142 62.8869 30.0777 62.8687 30.4954 62.4873C30.7497 62.2512 31.1674 61.543 31.4217 60.8892C31.6942 60.2354 31.9484 59.4182 32.0029 59.0732C32.0756 58.4739 31.9848 58.3286 28.0616 54.4422L32.1482 50.3743L34.1461 52.3719C36.0351 54.2788 36.1804 54.3696 36.7798 54.297C37.1249 54.2425 37.9422 53.9882 38.596 53.7158C39.2499 53.4616 39.9583 53.0439 40.1762 52.7896Z" fill="#F3DF6B"/>
<path d="M4.17746 4.68259C4.66786 4.1741 5.37621 3.66561 5.7213 3.55664C6.17537 3.41136 16.8188 3.35688 79.4624 3.32056L79.8983 3.91985C80.1345 4.22858 80.5159 4.8642 81.1879 6.13543V52.8078L80.752 53.6251C80.5159 54.0791 80.1345 54.7147 79.4624 55.6227H62.0261L62.2259 55.1324C62.353 54.8418 62.3894 54.4241 62.3349 54.1699C62.2622 53.9156 60.7547 52.263 58.8113 50.3199C55.6691 47.1963 55.3422 46.9057 54.761 46.9238C54.1979 46.9238 53.9073 47.1418 52.0002 49.0486C50.4382 50.5923 49.8025 51.1371 49.5846 51.0463C49.3484 50.9191 49.3121 50.4107 49.3121 47.9045C49.3121 44.9444 49.3121 44.908 48.404 44H38.5779L38.142 44.454C37.6879 44.908 37.6879 44.9625 37.6879 47.9045C37.6879 50.4107 37.6516 50.9191 37.4155 51.0463C37.1975 51.1371 36.5618 50.5923 34.9998 49.0486C33.0927 47.1418 32.8021 46.9238 32.239 46.9238C31.6578 46.9057 31.3309 47.1963 28.1887 50.3199C26.2453 52.263 24.7378 53.9156 24.6651 54.1699C24.6107 54.4241 24.647 54.8418 24.9739 55.6227H15.7654C9.11775 55.6227 6.33884 55.5501 5.81211 55.4048C5.37621 55.2595 4.72234 54.8236 4.17746 54.2607C3.61441 53.7159 3.1785 53.0621 3.0332 52.6262C2.86974 52.0814 2.81525 46.379 2.81525 29.4716C2.81525 12.5642 2.86974 6.86185 3.0332 6.31703C3.1785 5.88118 3.61441 5.22741 4.17746 4.68259Z" fill="#57A4FF"/>
<path d="M12.8956 10.4939C13.386 9.98543 14.0943 9.47694 14.4394 9.36797C14.8572 9.24085 17.4181 9.16821 21.6138 9.15005C27.4259 9.13189 28.2432 9.16821 29.0424 9.44062C29.6478 9.65854 30.1927 10.046 30.677 10.6029C31.0948 11.0569 31.5307 11.747 31.6397 12.1465C31.785 12.6005 31.8758 14.0897 31.8758 16.3961C31.8758 18.7025 31.785 20.1916 31.6397 20.6456C31.5307 21.0452 31.0948 21.7353 30.677 22.1893C30.1927 22.7462 29.6478 23.1336 29.0424 23.3515C28.2614 23.6239 27.4077 23.6603 21.7046 23.6603C17.2365 23.6603 15.0388 23.5876 14.5303 23.4423C14.0943 23.2971 13.4405 22.8612 12.8956 22.2982C12.3326 21.7534 11.8966 21.0996 11.7513 20.6638C11.6242 20.2098 11.5334 18.6298 11.5334 16.3961C11.5334 14.1623 11.6242 12.5824 11.7513 12.1284C11.8966 11.6925 12.3326 11.0387 12.8956 10.4939Z" fill="#231F20"/>
<path d="M11.5334 36.729C11.5515 33.3216 11.5518 33.2669 11.9875 32.8313L12.4234 32.3773H22.2495L22.7035 32.8313C23.1576 33.2853 23.1576 33.3035 23.1576 36.7358C23.1576 40.15 23.1576 40.1863 22.2676 41.0943H12.4415L11.9875 40.6403C11.5334 40.1863 11.5334 40.1863 11.5334 36.7358L11.5334 36.729Z" fill="#231F20"/>
<path d="M28.9879 36.7358C28.9879 33.3398 28.9879 33.2672 29.4238 32.8313L29.8597 32.3773H39.6858L40.1399 32.8313C40.5939 33.2853 40.5939 33.3035 40.5939 36.7358V36.7358C40.5939 40.1681 40.5939 40.2045 39.704 41.0943H29.8779L29.4238 40.6403C28.9697 40.2045 28.9697 40.1863 28.9879 36.7358Z" fill="#231F20"/>
<path d="M46.4242 36.7357C46.4242 33.3398 46.4242 33.2853 46.8601 32.8313L47.296 32.3954H57.1221L57.5762 32.8495C58.0303 33.3035 58.0303 33.3216 58.0303 36.754C58.0303 40.1681 58.0303 40.2045 57.1403 41.1125H47.3142L46.8601 40.6585C46.406 40.2045 46.406 40.2045 46.4242 36.7358V36.7357Z" fill="#231F20"/>
<path d="M63.8605 36.7358C63.8605 33.3216 63.8787 33.2672 64.2964 32.8313L64.7323 32.3773H74.5584L75.0125 32.8313C75.4666 33.2853 75.4666 33.3035 75.4666 36.7358V36.7358C75.4666 40.1681 75.4666 40.2045 74.5766 41.0943H64.7505L64.2964 40.6403C63.8424 40.1863 63.8424 40.1863 63.8605 36.7358Z" fill="#231F20"/>
<path d="M39.268 58.2378C39.8493 57.9109 40.7756 57.5295 41.3204 57.3843C41.8835 57.239 42.8098 57.1118 43.4092 57.0937C44.0085 57.0937 44.9893 57.2208 45.5887 57.3661C46.1881 57.5295 47.1689 57.9109 47.7501 58.2378C48.3313 58.5465 49.2576 59.2729 49.7843 59.8178C50.3474 60.3989 50.9831 61.3432 51.3282 62.0878C51.6914 62.8687 52.0002 63.8675 52.1092 64.7211C52.2545 65.7018 52.2363 66.41 52.0728 67.2635C51.9639 67.9173 51.6188 68.9706 51.2918 69.6244C50.9831 70.2782 50.3111 71.2589 49.7843 71.8037C49.2576 72.3485 48.3313 73.0567 47.7501 73.3836C47.1689 73.6924 46.1881 74.0919 45.5887 74.2372C44.9893 74.4006 44.063 74.5277 43.5 74.5277C42.9551 74.5277 42.0288 74.4006 41.4657 74.2553C40.8845 74.11 39.9946 73.765 39.4678 73.4926C38.9411 73.2383 38.0693 72.5846 37.5062 72.0761C36.9614 71.5494 36.253 70.6414 35.9261 70.0603C35.6173 69.461 35.2359 68.4985 35.0724 67.8992C34.909 67.2999 34.7818 66.3555 34.7818 65.8107C34.7818 65.2659 34.909 64.3397 35.0543 63.7586C35.2177 63.1956 35.5447 62.2876 35.8171 61.7609C36.0714 61.2343 36.7252 60.3626 37.252 59.8178C37.7605 59.2729 38.6687 58.5465 39.268 58.2378Z" fill="#231F20"/>
<path d="M20.2515 20.7546V16.3961V12.0376H23.1576V20.7546H20.2515Z" fill="#EE8700"/>
<path d="M14.4395 38.1886V36.7358V35.283H20.2516V38.1886H14.4395Z" fill="#F1F2F2"/>
<path d="M31.8758 38.1886V36.7358V35.283H37.6879V38.1886H31.8758Z" fill="#F1F2F2"/>
<path d="M49.3121 38.1886V36.7358V35.283H55.1242V38.1886H49.3121Z" fill="#F1F2F2"/>
<path d="M66.7484 38.1886V36.7358V35.283H72.5605V38.1886H66.7484Z" fill="#F1F2F2"/>
<path d="M40.0854 61.089C40.5213 60.7984 41.2296 60.4352 41.6837 60.2899C42.1378 60.1265 42.9188 59.9994 43.4092 59.9812C43.9177 59.9812 44.7351 60.1083 45.2255 60.2536C45.734 60.417 46.5332 60.8529 47.0236 61.2161C47.623 61.6701 48.1315 62.2876 48.5674 63.0685C49.1668 64.1581 49.2213 64.3579 49.2213 65.7925C49.2213 67.2091 49.1668 67.427 48.5856 68.4985C48.2405 69.1341 47.6956 69.8605 47.405 70.1147C47.1144 70.3508 46.4605 70.7685 45.952 71.0228C45.1891 71.4223 44.7896 71.4949 43.5 71.5131C42.0651 71.5131 41.8653 71.4586 40.7756 70.8593C39.9946 70.4235 39.377 69.915 38.923 69.3157C38.5597 68.8253 38.1238 68.0263 37.9603 67.5178C37.815 67.0275 37.6879 66.2284 37.6879 65.7562C37.6879 65.2659 37.815 64.5032 37.9785 64.031C38.142 63.5407 38.5052 62.8142 38.7958 62.3965C39.0864 61.9607 39.6676 61.3796 40.0854 61.089Z" fill="#F1F2F2"/>
<path d="M26.0637 14.9433V13.4904V12.0376H27.0626C27.8799 12.0376 28.1342 12.1102 28.5156 12.4916C28.8971 12.873 28.9697 13.1272 28.9697 14.9433H26.0637Z" fill="#FFA733"/>
<path d="M14.4395 13.9444C14.4576 13.1272 14.5484 12.8367 14.8935 12.4916C15.2568 12.1102 15.5111 12.0376 17.3455 12.0376V14.9433H14.4395V13.9444Z" fill="#FFB655"/>
<path d="M14.8935 20.3005C14.5121 19.9192 14.4395 19.6649 14.4395 18.8477V17.8489H17.3455V20.7546H16.3466C15.5292 20.7546 15.2749 20.6819 14.8935 20.3005Z" fill="#FF9811"/>
<path d="M26.0637 20.7546V19.3017V17.8489H28.9697V18.8477C28.9697 19.6649 28.8971 19.9373 28.5157 20.3005C28.1524 20.6819 27.8981 20.7546 26.0637 20.7546Z" fill="#FF9811"/>
</svg>
