<svg width="718" height="632" viewBox="0 0 718 632" fill="none" xmlns="http://www.w3.org/2000/svg">
<path opacity="0.7" d="M85.8629 211.2C85.8629 211.2 50.6226 302.208 100.146 393.848C149.67 485.488 251.674 533.9 333.316 575.296C414.958 616.692 499.734 596.531 540.018 528.73C580.302 460.929 525.052 412.53 524.977 315.847C524.901 219.164 539.449 193.568 487.057 111.888C434.664 30.2082 306.229 12.1204 209.103 72.7039C111.977 133.287 85.8629 211.2 85.8629 211.2Z" fill="white"/>
<path d="M80.5032 175.897C114.265 110.371 176.959 60.7972 255.011 53.8199C308.693 49.1392 362.195 64.6178 405.086 97.2383C426.397 113.67 445.332 134.589 457.908 158.466C472.343 185.895 476.552 217.521 491.404 244.823C509.871 278.761 544.556 292.766 567.851 322.091C587.026 346.246 593.611 378.617 591.412 409.383C587.393 465.543 554.491 518.858 506.092 547.639C465.176 571.971 415.855 578.683 368.316 576.471C295.004 573.071 222.021 548.891 164.281 503.602C106.542 458.313 65.0445 391.358 55.2106 318.641C48.5241 269.231 58.2442 219.088 80.5032 175.897Z" fill="#987EF6"/>
<path opacity="0.7" d="M80.5032 175.897C114.265 110.371 176.959 60.7972 255.011 53.8199C308.693 49.1392 362.195 64.6178 405.086 97.2383C426.397 113.67 445.332 134.589 457.908 158.466C472.343 185.895 476.552 217.521 491.404 244.823C509.871 278.761 544.556 292.766 567.851 322.091C587.026 346.246 593.611 378.617 591.412 409.383C587.393 465.543 554.491 518.858 506.092 547.639C465.176 571.971 415.855 578.683 368.316 576.471C295.004 573.071 222.021 548.891 164.281 503.602C106.542 458.313 65.0445 391.358 55.2106 318.641C48.5241 269.231 58.2442 219.088 80.5032 175.897Z" fill="white"/>
<path d="M58.2324 199.853C59.7239 205.769 58.9908 194.886 61.9107 181.589C64.8305 168.291 69.8486 173.676 69.8486 173.676" stroke="#263238" stroke-linecap="round" stroke-linejoin="round"/>
<path d="M57.3223 186.262L66.4863 182.508" stroke="#263238" stroke-linecap="round" stroke-linejoin="round"/>
<path d="M74.0582 177.996C74.0582 177.996 68.5851 189.372 76.839 194.15" stroke="#263238" stroke-linecap="round" stroke-linejoin="round"/>
<path d="M81.832 174.812C81.832 174.812 90.8823 179.869 85.2196 190.714" stroke="#263238" stroke-linecap="round" stroke-linejoin="round"/>
<path d="M75.6367 181.84L82.121 186.567" stroke="#263238" stroke-linecap="round" stroke-linejoin="round"/>
<path d="M80.719 179.754L75.6504 187.831" stroke="#263238" stroke-linecap="round" stroke-linejoin="round"/>
<path d="M109.838 300.812C111.072 293.296 105.979 286.203 98.4635 284.97C90.9479 283.737 83.8554 288.829 82.622 296.345C81.3886 303.861 86.4813 310.953 93.9969 312.186C101.512 313.42 108.605 308.327 109.838 300.812Z" stroke="#263238" stroke-linecap="round" stroke-linejoin="round"/>
<path d="M118.019 318.955C126.293 317.258 131.626 309.174 129.928 300.9C128.231 292.625 120.148 287.293 111.873 288.99C103.599 290.687 98.2663 298.77 99.9634 307.045C101.66 315.32 109.744 320.652 118.019 318.955Z" stroke="#263238" stroke-linecap="round" stroke-linejoin="round"/>
<path d="M108.793 292.883L102.447 295.145" stroke="#263238" stroke-linecap="round" stroke-linejoin="round"/>
<path d="M109.677 295.5L100.551 298.799" stroke="#263238" stroke-linecap="round" stroke-linejoin="round"/>
<path d="M110.018 298.66L99.8301 302.579" stroke="#263238" stroke-linecap="round" stroke-linejoin="round"/>
<path d="M109.298 302.969L100.008 307.216" stroke="#263238" stroke-linecap="round" stroke-linejoin="round"/>
<path d="M107.655 306.281L100.602 309.214" stroke="#263238" stroke-linecap="round" stroke-linejoin="round"/>
<path d="M102.889 277.561C102.498 276.297 98.0231 275.514 97.8335 278.825C97.6439 282.137 102.548 279.381 103.939 277.561C103.939 277.561 101.411 280.961 102.472 281.631" stroke="#263238" stroke-linecap="round" stroke-linejoin="round"/>
<path d="M127.664 281.684L123.695 289.938C123.695 289.938 125.68 285.804 127.803 286.146C130.42 286.613 128.675 290.898 125.515 289.318" stroke="#263238" stroke-linecap="round" stroke-linejoin="round"/>
<path d="M559.586 416.449L565.817 422.339" stroke="#263238" stroke-linecap="round" stroke-linejoin="round"/>
<path d="M565.816 414.91L560.596 422.709" stroke="#263238" stroke-linecap="round" stroke-linejoin="round"/>
<path d="M571.947 417.146L578.191 414.82" stroke="#263238" stroke-linecap="round" stroke-linejoin="round"/>
<path d="M581.188 408.324L584.98 411.674" stroke="#263238" stroke-linecap="round" stroke-linejoin="round"/>
<path d="M587.887 404.289L583.084 420.772" stroke="#263238" stroke-linecap="round" stroke-linejoin="round"/>
<path d="M297.002 323.865L313.775 312.324L335.984 313.879L337.374 342.041L321.069 353.695L300.946 352.229L297.002 323.865Z" stroke="#263238" stroke-linecap="round" stroke-linejoin="round"/>
<path d="M300.945 352.227L317.188 340.535L337.374 342.039" stroke="#263238" stroke-linecap="round" stroke-linejoin="round"/>
<path d="M317.188 340.537L313.775 312.324" stroke="#263238" stroke-linecap="round" stroke-linejoin="round"/>
<path d="M297.002 323.864L319.16 326.43L335.984 313.879" stroke="#263238" stroke-linecap="round" stroke-linejoin="round"/>
<path d="M319.16 326.43L321.069 353.694" stroke="#263238" stroke-linecap="round" stroke-linejoin="round"/>
<path d="M492.77 229.254L485.338 252.347L508.469 249.225L492.77 229.254Z" stroke="#263238" stroke-linecap="round" stroke-linejoin="round"/>
<path d="M492.77 229.254L496.903 250.653" stroke="#263238" stroke-linecap="round" stroke-linejoin="round"/>
<path d="M496.246 247.227L498.951 246.797L499.583 250.425" stroke="#263238" stroke-linecap="round" stroke-linejoin="round"/>
<path d="M201.469 440.582L213.022 446.257" stroke="#263238" stroke-linecap="round" stroke-linejoin="round"/>
<path d="M209.292 436.246L205.98 448.317" stroke="#263238" stroke-linecap="round" stroke-linejoin="round"/>
<path d="M210.898 430.353C211.088 430.157 211.321 430.008 211.578 429.918C211.836 429.828 212.111 429.8 212.381 429.835C212.652 429.871 212.91 429.969 213.135 430.123C213.361 430.277 213.547 430.481 213.679 430.72C214.842 432.54 212.567 436.357 212.567 436.357L217.206 434.587" stroke="#263238" stroke-linecap="round" stroke-linejoin="round"/>
<path d="M292.174 42.9766C303.208 49.1828 290.568 64.3508 290.568 73.1988C290.568 82.0468 303.208 80.7828 309.528 83.3108C312.056 83.3108 317.112 83.3108 316.973 89.7319" stroke="#263238" stroke-linecap="round" stroke-linejoin="round"/>
<path d="M279.875 51.0273C281.796 61.4806 293.779 57.7771 301.135 60.1661C313.775 64.2741 306.76 77.3186 302.994 85.2059C300.731 89.908 298.481 96.5061 302.526 100.968" stroke="#263238" stroke-linecap="round" stroke-linejoin="round"/>
<path d="M281.492 55.0859L294.65 44.1523" stroke="#263238" stroke-linecap="round" stroke-linejoin="round"/>
<path d="M286.65 58.3449L296.56 50.1289" stroke="#263238" stroke-linecap="round" stroke-linejoin="round"/>
<path d="M292.477 66.6626L300.844 60.0898" stroke="#263238" stroke-linecap="round" stroke-linejoin="round"/>
<path d="M290.746 76.4974L307.102 64.7422" stroke="#263238" stroke-linecap="round" stroke-linejoin="round"/>
<path d="M297.014 81.0864L308.415 72.7188" stroke="#263238" stroke-linecap="round" stroke-linejoin="round"/>
<path d="M301.869 98.8691L316.114 87.2656" stroke="#263238" stroke-linecap="round" stroke-linejoin="round"/>
<path d="M302.223 89.7458L311.513 83.2109" stroke="#263238" stroke-linecap="round" stroke-linejoin="round"/>
<path d="M116.226 446.876C129.799 441.447 136.401 426.044 130.972 412.471C125.544 398.899 110.14 392.297 96.5675 397.725C82.9949 403.154 76.393 418.557 81.8216 432.13C87.2503 445.703 102.654 452.305 116.226 446.876Z" stroke="#263238" stroke-linecap="round" stroke-linejoin="round"/>
<path d="M113.052 396.696C122.279 385.863 130.129 379.733 133.15 381.73C137.751 384.751 129.497 405.38 114.721 427.79C99.9444 450.201 84.2329 465.925 79.6319 462.892C76.5983 460.907 79.1516 451.275 85.4716 438.522" stroke="#263238" stroke-linecap="round" stroke-linejoin="round"/>
<path d="M80.4908 427.739C67.6233 424.035 59.4073 419.713 59.9255 416.262C60.6713 410.801 82.905 409.537 109.462 413.519C136.018 417.501 156.9 425.047 156.103 430.482C155.534 434.274 144.727 436.006 129.37 435.424" stroke="#263238" stroke-linecap="round" stroke-linejoin="round"/>
<path d="M83.8672 408.564C74.1597 391.045 69.3059 377.381 72.5923 375.245C76.9152 372.452 93.6253 390.577 109.918 415.693C126.211 440.809 135.906 463.51 131.596 466.316C128.739 468.162 120.46 460.856 110.462 448.418" stroke="#263238" stroke-linecap="round" stroke-linejoin="round"/>
<path d="M136.878 393.182C136.407 393.901 135.733 394.464 134.943 394.8C134.152 395.135 133.279 395.229 132.435 395.07C131.59 394.91 130.812 394.504 130.199 393.902C129.585 393.301 129.163 392.531 128.987 391.69C128.811 390.849 128.888 389.974 129.208 389.177C129.528 388.379 130.078 387.695 130.787 387.209C131.496 386.724 132.333 386.46 133.192 386.45C134.051 386.439 134.894 386.684 135.614 387.153C136.094 387.465 136.507 387.869 136.831 388.341C137.154 388.814 137.381 389.345 137.498 389.905C137.616 390.465 137.621 391.043 137.515 391.606C137.409 392.168 137.192 392.704 136.878 393.182Z" fill="#263238"/>
<path d="M122.482 459.78C122.011 460.498 121.337 461.061 120.546 461.397C119.755 461.733 118.882 461.827 118.038 461.667C117.194 461.508 116.416 461.101 115.802 460.5C115.188 459.898 114.767 459.128 114.591 458.287C114.414 457.446 114.491 456.572 114.811 455.774C115.132 454.977 115.681 454.292 116.39 453.807C117.099 453.322 117.936 453.057 118.796 453.047C119.655 453.037 120.498 453.282 121.218 453.751C121.698 454.063 122.111 454.467 122.434 454.939C122.758 455.411 122.984 455.943 123.102 456.503C123.219 457.063 123.225 457.641 123.119 458.203C123.012 458.766 122.796 459.301 122.482 459.78Z" fill="#263238"/>
<path d="M99.2495 414.592C98.7782 415.311 98.1045 415.874 97.3136 416.21C96.5227 416.546 95.65 416.64 94.8056 416.48C93.9613 416.32 93.1832 415.914 92.5696 415.312C91.956 414.711 91.5345 413.941 91.3581 413.1C91.1818 412.259 91.2587 411.384 91.5789 410.587C91.8992 409.789 92.4486 409.105 93.1577 408.619C93.8668 408.134 94.7038 407.87 95.5631 407.86C96.4224 407.85 97.2653 408.094 97.9855 408.563C98.9517 409.196 99.6273 410.186 99.8643 411.316C100.101 412.447 99.8802 413.625 99.2495 414.592Z" fill="#263238"/>
<path d="M376.457 225.399H391.347L398.792 212.506L391.347 199.613H376.457L369.012 212.506L376.457 225.399Z" stroke="#263238" stroke-linecap="round" stroke-linejoin="round"/>
<path d="M374.296 253.698L366.851 240.805H351.961" stroke="#263238" stroke-linecap="round" stroke-linejoin="round"/>
<path d="M353.959 212.505H368.849L376.294 199.612L368.849 186.707H353.959L346.514 199.612L353.959 212.505Z" stroke="#263238" stroke-linecap="round" stroke-linejoin="round"/>
<path d="M376.457 199.611H391.347L398.792 186.705L391.347 173.812H376.457L369.012 186.705L376.457 199.611Z" stroke="#263238" stroke-linecap="round" stroke-linejoin="round"/>
<path d="M376.292 201.608C377.395 201.608 378.289 200.713 378.289 199.61C378.289 198.507 377.395 197.613 376.292 197.613C375.189 197.613 374.295 198.507 374.295 199.61C374.295 200.713 375.189 201.608 376.292 201.608Z" fill="#263238"/>
<path d="M345.198 174.533C346.301 174.533 347.195 173.639 347.195 172.536C347.195 171.433 346.301 170.539 345.198 170.539C344.095 170.539 343.201 171.433 343.201 172.536C343.201 173.639 344.095 174.533 345.198 174.533Z" fill="#263238"/>
<path d="M372.299 253.696C372.299 253.301 372.416 252.915 372.635 252.587C372.855 252.258 373.167 252.002 373.532 251.851C373.897 251.7 374.298 251.661 374.686 251.738C375.073 251.815 375.429 252.005 375.708 252.284C375.987 252.563 376.178 252.919 376.255 253.307C376.332 253.694 376.292 254.096 376.141 254.461C375.99 254.826 375.734 255.137 375.405 255.357C375.077 255.576 374.691 255.693 374.296 255.693C374.034 255.693 373.774 255.642 373.532 255.541C373.289 255.441 373.069 255.294 372.884 255.109C372.698 254.923 372.551 254.703 372.451 254.461C372.35 254.218 372.299 253.959 372.299 253.696Z" fill="#263238"/>
<path d="M351.96 242.803C353.063 242.803 353.957 241.909 353.957 240.806C353.957 239.703 353.063 238.809 351.96 238.809C350.857 238.809 349.963 239.703 349.963 240.806C349.963 241.909 350.857 242.803 351.96 242.803Z" fill="#263238"/>
<path d="M413.201 187.072C413.201 186.674 413.319 186.285 413.541 185.954C413.762 185.624 414.077 185.366 414.445 185.214C414.813 185.063 415.218 185.023 415.608 185.102C415.998 185.181 416.356 185.373 416.637 185.656C416.917 185.938 417.108 186.297 417.184 186.688C417.26 187.079 417.218 187.483 417.064 187.85C416.91 188.217 416.65 188.53 416.318 188.749C415.986 188.969 415.596 189.084 415.198 189.082C414.935 189.082 414.674 189.03 414.431 188.929C414.188 188.828 413.967 188.679 413.782 188.493C413.596 188.306 413.449 188.084 413.35 187.84C413.25 187.597 413.2 187.336 413.201 187.072Z" fill="#263238"/>
<path d="M366.698 242.803C367.801 242.803 368.695 241.909 368.695 240.806C368.695 239.703 367.801 238.809 366.698 238.809C365.595 238.809 364.701 239.703 364.701 240.806C364.701 241.909 365.595 242.803 366.698 242.803Z" fill="#263238"/>
<path d="M396.795 187.072C396.795 186.675 396.913 186.286 397.134 185.956C397.354 185.625 397.668 185.368 398.036 185.215C398.403 185.063 398.807 185.024 399.197 185.101C399.587 185.179 399.945 185.37 400.226 185.651C400.507 185.932 400.698 186.29 400.776 186.68C400.853 187.07 400.814 187.474 400.661 187.841C400.509 188.209 400.252 188.522 399.921 188.743C399.591 188.964 399.202 189.082 398.805 189.082C398.272 189.082 397.76 188.87 397.384 188.493C397.007 188.116 396.795 187.605 396.795 187.072Z" fill="#263238"/>
<path d="M374.295 225.409C374.292 225.011 374.409 224.62 374.628 224.288C374.848 223.955 375.162 223.696 375.53 223.542C375.898 223.388 376.303 223.348 376.694 223.425C377.085 223.502 377.444 223.694 377.726 223.975C378.008 224.257 378.199 224.616 378.276 225.007C378.354 225.399 378.313 225.804 378.159 226.171C378.005 226.539 377.746 226.853 377.413 227.073C377.081 227.293 376.691 227.409 376.292 227.406C375.763 227.403 375.257 227.191 374.884 226.818C374.51 226.444 374.298 225.938 374.295 225.409Z" fill="#263238"/>
<path d="M398.805 187.047H415.199" stroke="#263238" stroke-linecap="round" stroke-linejoin="round"/>
<path d="M376.293 225.41L366.699 240.806" stroke="#263238" stroke-linecap="round" stroke-linejoin="round"/>
<path d="M353.959 186.705L345.199 172.535" stroke="#263238" stroke-linecap="round" stroke-linejoin="round"/>
<path d="M459.564 135.881C461.282 130.076 464.861 124.997 469.751 121.428C474.641 117.859 480.569 115.998 486.621 116.132C492.673 116.265 498.513 118.387 503.24 122.168C507.968 125.95 511.319 131.181 512.779 137.057" stroke="#263238" stroke-linecap="round" stroke-linejoin="round"/>
<path d="M482.847 171.071C476.122 170.301 469.915 167.084 465.409 162.033C460.904 156.981 458.414 150.449 458.414 143.68" stroke="#263238" stroke-linecap="round" stroke-linejoin="round"/>
<path d="M513.575 143.68C513.575 150.989 510.672 157.999 505.505 163.169C500.338 168.338 493.329 171.244 486.02 171.248" stroke="#263238" stroke-linecap="round" stroke-linejoin="round"/>
<path d="M515.143 126.198C523.763 125.098 529.54 125.692 530.437 128.271C532.219 133.403 513.778 144.463 489.243 152.982C464.709 161.501 443.385 164.232 441.591 159.087C440.643 156.344 445.471 151.908 453.915 147.066" stroke="#263238" stroke-linecap="round" stroke-linejoin="round"/>
<path d="M366.699 107.312L369.341 112.659L375.244 113.519L370.971 117.69L371.982 123.568L366.699 120.787L361.415 123.568L362.427 117.69L358.154 113.519L364.057 112.659L366.699 107.312Z" stroke="#263238" stroke-linecap="round" stroke-linejoin="round"/>
<path d="M180.081 93.0686C180.078 97.8223 178.189 102.381 174.829 105.743C171.468 109.106 166.912 110.998 162.158 111.005C161.576 111.005 161.008 110.979 160.451 110.929C156.992 110.601 153.702 109.275 150.982 107.112C148.262 104.949 146.229 102.043 145.13 98.7461C144.031 95.4495 143.913 91.9045 144.791 88.5422C145.668 85.1798 147.504 82.1449 150.074 79.8062C152.645 77.4676 155.839 75.926 159.269 75.3688C162.699 74.8116 166.217 75.2628 169.396 76.6676C172.574 78.0724 175.276 80.3703 177.173 83.2819C179.07 86.1936 180.08 89.5935 180.081 93.0686Z" stroke="#263238" stroke-linecap="round" stroke-linejoin="round"/>
<path d="M177.212 96.3033C177.214 96.8538 177.054 97.3927 176.749 97.8517C176.445 98.3106 176.012 98.669 175.504 98.8814C174.996 99.0938 174.437 99.1507 173.896 99.0449C173.356 98.939 172.86 98.6752 172.469 98.2868C172.079 97.8984 171.813 97.4029 171.705 96.8631C171.596 96.3234 171.651 95.7636 171.861 95.2547C172.071 94.7459 172.427 94.3108 172.885 94.0047C173.343 93.6986 173.881 93.5352 174.431 93.5352C175.166 93.5351 175.872 93.8264 176.393 94.3452C176.914 94.8639 177.209 95.568 177.212 96.3033Z" stroke="#263238" stroke-linecap="round" stroke-linejoin="round"/>
<path d="M152.248 103.357C152.249 104.015 152.105 104.666 151.825 105.263C151.545 105.859 151.137 106.387 150.63 106.807C148.273 104.862 146.458 102.341 145.359 99.4888C146.055 99.0617 146.856 98.8384 147.672 98.8442C148.27 98.8358 148.864 98.9464 149.419 99.1694C149.974 99.3924 150.478 99.7235 150.904 100.143C151.33 100.563 151.668 101.063 151.899 101.615C152.129 102.167 152.248 102.759 152.248 103.357Z" stroke="#263238" stroke-linecap="round" stroke-linejoin="round"/>
<path d="M174.432 106.177C171.118 109.316 166.724 111.062 162.159 111.056C161.577 111.056 161.009 111.03 160.452 110.98C160.351 110.493 160.3 109.998 160.301 109.501C160.302 107.821 160.87 106.19 161.913 104.873C162.957 103.556 164.415 102.63 166.051 102.245C167.686 101.86 169.404 102.039 170.925 102.753C172.447 103.466 173.682 104.673 174.432 106.177Z" stroke="#263238" stroke-linecap="round" stroke-linejoin="round"/>
<path d="M157.81 85.9522C160.086 85.9522 161.931 84.1073 161.931 81.8316C161.931 79.5558 160.086 77.7109 157.81 77.7109C155.534 77.7109 153.689 79.5558 153.689 81.8316C153.689 84.1073 155.534 85.9522 157.81 85.9522Z" stroke="#263238" stroke-linecap="round" stroke-linejoin="round"/>
<path d="M161.628 93.5375C161.628 93.915 161.516 94.2841 161.306 94.5979C161.096 94.9118 160.798 95.1564 160.45 95.3009C160.101 95.4454 159.717 95.4832 159.347 95.4095C158.977 95.3359 158.637 95.1541 158.37 94.8872C158.103 94.6202 157.921 94.2801 157.847 93.9099C157.774 93.5397 157.811 93.1559 157.956 92.8071C158.1 92.4584 158.345 92.1603 158.659 91.9506C158.973 91.7409 159.342 91.6289 159.719 91.6289C159.97 91.6289 160.218 91.6783 160.45 91.7742C160.681 91.8701 160.892 92.0107 161.069 92.1879C161.246 92.3652 161.387 92.5756 161.483 92.8071C161.578 93.0387 161.628 93.2869 161.628 93.5375Z" stroke="#263238" stroke-linecap="round" stroke-linejoin="round"/>
<path d="M176.707 82.6011C176.205 82.7656 175.68 82.8468 175.152 82.8413C174.462 82.8413 173.779 82.7052 173.141 82.4408C172.504 82.1764 171.925 81.7889 171.438 81.3004C170.951 80.812 170.565 80.2322 170.302 79.5943C170.039 78.9565 169.905 78.273 169.906 77.5831C169.893 77.3642 169.893 77.1447 169.906 76.9258C172.614 78.2166 174.952 80.1684 176.707 82.6011Z" stroke="#263238" stroke-linecap="round" stroke-linejoin="round"/>
<path d="M588.834 301.199L590.767 296.85L587.633 295.131C587.748 294.366 587.769 293.589 587.696 292.818L590.906 291.251L589.2 286.814L585.762 287.8C585.301 287.181 584.766 286.621 584.169 286.132L585.345 282.744L580.997 280.81L579.265 283.945C578.497 283.85 577.72 283.85 576.952 283.945L575.397 280.734L570.948 282.441L571.946 285.866C571.326 286.335 570.762 286.874 570.265 287.471L566.89 286.296L565.007 290.581L568.142 292.313C568.026 293.078 568.005 293.855 568.079 294.626L564.855 296.18L566.562 300.63L570 299.631C570.464 300.251 570.998 300.815 571.593 301.312L570.43 304.687L574.778 306.621L576.497 303.486C577.262 303.602 578.039 303.623 578.81 303.55L580.377 306.773L584.814 305.066L583.828 301.628C584.444 301.164 585.004 300.63 585.497 300.036L588.834 301.199ZM575.612 298.772C574.614 298.328 573.77 297.598 573.187 296.674C572.603 295.751 572.307 294.675 572.335 293.583C572.363 292.491 572.714 291.432 573.344 290.54C573.974 289.647 574.854 288.962 575.873 288.569C576.893 288.177 578.006 288.096 579.071 288.336C580.137 288.576 581.107 289.127 581.86 289.919C582.612 290.71 583.114 291.707 583.3 292.783C583.486 293.86 583.349 294.967 582.905 295.966C582.308 297.303 581.205 298.349 579.838 298.875C578.471 299.401 576.952 299.364 575.612 298.772Z" stroke="#263238" stroke-linecap="round" stroke-linejoin="round"/>
<path d="M565.729 323.509L568.358 317.606L564.111 315.255C564.263 314.217 564.288 313.164 564.187 312.12L568.561 309.996L566.273 303.967L561.609 305.32C560.985 304.474 560.259 303.71 559.447 303.044L561.04 298.444L555.086 295.776L552.748 300.024C551.71 299.874 550.658 299.845 549.613 299.935L547.49 295.574L541.448 297.9L542.8 302.552C541.961 303.186 541.197 303.916 540.525 304.726L535.937 303.184L533.308 309.086L537.555 311.437C537.403 312.475 537.378 313.528 537.479 314.572L533.105 316.696L535.431 322.725L540.095 321.385C540.722 322.227 541.448 322.991 542.257 323.66L540.664 328.249L546.58 330.878L548.918 326.618C549.956 326.773 551.008 326.803 552.053 326.707L554.176 331.067L560.218 328.754L558.866 324.09C559.705 323.46 560.468 322.734 561.141 321.929L565.729 323.509ZM547.78 320.21C546.424 319.605 545.277 318.611 544.485 317.355C543.693 316.098 543.291 314.635 543.331 313.15C543.371 311.665 543.851 310.225 544.709 309.013C545.567 307.801 546.766 306.87 548.153 306.339C549.541 305.808 551.054 305.701 552.503 306.031C553.951 306.36 555.269 307.112 556.29 308.191C557.311 309.27 557.989 310.627 558.238 312.092C558.488 313.556 558.297 315.062 557.69 316.418C557.289 317.318 556.715 318.13 556 318.808C555.284 319.486 554.442 320.017 553.522 320.369C552.601 320.721 551.62 320.888 550.635 320.861C549.65 320.834 548.68 320.612 547.78 320.21Z" stroke="#263238" stroke-linecap="round" stroke-linejoin="round"/>
<path d="M303.702 267.475C301.97 270.757 300.014 273.916 297.85 276.93C286.62 292.543 270.118 303.565 251.393 307.959C232.669 312.353 212.987 309.821 195.984 300.832C194.227 299.909 192.508 298.923 190.865 297.887C189.222 296.85 187.616 295.788 186.074 294.651C184.203 293.298 182.409 291.857 180.69 290.353C180.58 290.271 180.478 290.178 180.386 290.075C169.185 280.162 160.998 267.299 156.761 252.954C152.523 238.609 152.406 223.362 156.423 208.954C160.44 194.545 168.429 181.558 179.477 171.474C190.524 161.391 204.186 154.618 218.9 151.931C233.614 149.243 248.787 150.748 262.687 156.275C276.586 161.801 288.65 171.126 297.501 183.183C306.353 195.241 311.634 209.545 312.741 224.462C313.849 239.378 310.739 254.305 303.765 267.538L303.702 267.475Z" fill="#987EF6"/>
<mask id="mask0_422_1750" style="mask-type:luminance" maskUnits="userSpaceOnUse" x="153" y="150" width="160" height="161">
<path d="M303.702 267.475C301.97 270.757 300.014 273.916 297.85 276.93C286.62 292.543 270.118 303.565 251.393 307.959C232.669 312.353 212.987 309.821 195.984 300.832C194.227 299.909 192.508 298.923 190.865 297.887C189.222 296.85 187.616 295.788 186.074 294.651C184.203 293.298 182.409 291.857 180.69 290.353C180.58 290.271 180.478 290.178 180.386 290.075C169.185 280.162 160.998 267.299 156.761 252.954C152.523 238.609 152.406 223.362 156.423 208.954C160.44 194.545 168.429 181.558 179.477 171.474C190.524 161.391 204.186 154.618 218.9 151.931C233.614 149.243 248.787 150.748 262.687 156.275C276.586 161.801 288.65 171.126 297.501 183.183C306.353 195.241 311.634 209.545 312.741 224.462C313.849 239.378 310.739 254.305 303.765 267.538L303.702 267.475Z" fill="white"/>
</mask>
<g mask="url(#mask0_422_1750)">
<g opacity="0.6">
<path d="M303.702 267.474C301.97 270.756 300.014 273.915 297.85 276.929L296.307 275.665L293.653 274.262L290.86 272.796L291.327 269.421L291.176 266.374C291.011 263.328 293.211 265.818 294.968 264.896C296.338 263.916 297.445 262.614 298.191 261.104C298.191 261.104 299.455 257.046 299.038 255.416C298.357 253.537 297.555 251.704 296.636 249.93L292.111 256.25L288.319 255.959L284.729 254.063L284.262 249.07L282.416 248.11L281.645 245.24L271.672 242.447L270.535 240.45C269.397 238.453 264.809 237.429 264.809 237.429L265.934 234.825L267.703 231.918C269.485 229.011 271.331 233.839 271.331 233.839L273.442 234.939L277.36 231.652L278.397 226.938L284.78 227.304C284.655 226.666 284.752 226.004 285.056 225.429C285.359 224.854 285.851 224.401 286.448 224.144C288.572 223.31 287.636 218.696 286.827 216.99C286.019 215.284 283.035 216.661 283.035 216.661C283.035 216.661 279.787 211.719 279.345 209.747C278.902 207.775 285.538 208.483 288.382 206.499C291.226 204.514 290.253 200.571 288.863 200.482C287.472 200.394 291.58 191.508 299.48 193.947C301.679 194.63 303.07 194.39 303.929 193.631C309.857 205.043 312.932 217.721 312.892 230.581C312.853 243.44 309.699 256.099 303.702 267.474Z" fill="white"/>
<path d="M248.427 233.282L245.722 236.682C245.722 236.682 244.572 233.939 242.929 235.418L240.401 237.668L238.568 242.8L235.282 244.923L233.272 243.874L231.376 242.863L229.316 241.776L227.344 245.568L225.739 248.602C226.521 250.091 227.494 251.472 228.633 252.71L232.122 258.865L236.369 261.014C238.14 261.08 239.903 261.291 241.64 261.646L244.56 263.176L243.523 269.496C243.523 269.496 241.324 273.073 239.857 272.087L238.379 271.113L235.977 279.431L235.876 284.006C235.876 284.006 234.448 284.6 233.007 285.081C231.566 285.561 232.476 285.308 229.455 286.244C226.434 287.179 226.674 287.141 224.222 287.836C222.131 288.568 220.12 289.508 218.218 290.642L218.433 295.041L212.656 295.888L209.42 294.169L210.217 291.388L210.596 287.04L210.153 283.791L208.763 280.922L212.656 277.396L211.797 275.184L209.585 270.785L204.908 273.313L202.506 274.577L197.071 272.137L196.477 268.838L194.657 262.91L192.963 259.219L189.955 255.149L189.196 251.648L190.89 248.437L191.788 246.744L189.019 243.015L188.261 240.36L183.597 236.126C183.597 236.126 184.949 236.037 184.646 234.154C184.343 232.271 187.313 229.098 187.313 229.098C188.994 229.983 194.037 233.497 194.037 233.497L198.449 234.104C198.449 234.104 199.334 234.104 200.193 232.435C201.197 230.9 202.376 229.488 203.707 228.226C203.707 228.226 201.672 221.16 203.126 220.212C204.579 219.264 206.058 214.638 206.058 214.638L207.221 212.426C207.221 212.426 204.478 211.225 203.96 209.772C203.442 208.318 196.679 210.252 196.679 210.252L192.015 213.488L188.337 216.332L186.744 219.353C186.744 219.353 183.496 215.447 183.483 217.634C183.235 219.876 182.744 222.084 182.017 224.219C182.017 224.219 182.687 224.573 181.802 226.267C180.917 227.96 179.957 227.872 178.01 228.112C175.472 228.138 172.937 227.964 170.426 227.594C170.426 227.594 169.162 232.271 170.034 233.08L170.894 233.863C170.894 233.863 169.541 237.264 168.201 236.556L164.94 234.837L160.377 236.682L155.321 242.269L154.196 242.041C151.097 221.257 156.329 200.09 168.753 183.142C181.178 166.195 199.79 154.837 220.544 151.539C220.834 152.803 221.15 153.991 221.15 153.991L219.886 160.235L218.268 163.32L216.878 165.961L214.919 169.677L219.937 174.304L218.862 179.777L216.145 181.483L215.361 185.591L220.025 194.705L221.289 198.282C220.509 199.994 220.124 201.861 220.164 203.742C220.164 203.742 220.733 207.155 223.223 208.508C225.713 209.86 228.987 211.453 228.987 211.453L228.722 216.509L227.597 217.773L229.467 223.221C235.168 225.458 234.625 227.329 235.168 225.458L235.724 223.6L239.605 222.197L244.547 228.1C245.122 228.092 245.69 228.229 246.198 228.499C246.706 228.768 247.138 229.161 247.454 229.642C248.895 231.462 251.145 229.882 248.427 233.282Z" fill="white"/>
<path d="M181.435 277.309C181.574 279.104 179.299 281.354 179.299 281.354L181.157 282.327L181.725 287.383L180.322 290.063C170.381 281.28 162.797 270.147 158.266 257.679L159.277 252.32L163.739 251.688C163.739 251.688 167.733 249.033 169.503 249.741C171.272 250.449 172.89 254.797 172.89 254.797C172.89 254.797 174.154 260.662 173.99 260.548H173.914H174.015L175.835 261.509L176.353 263.822L173.825 268.625H169.755C169.755 268.625 168.946 268.196 168.871 270.306C168.937 271.039 169.159 271.749 169.523 272.388C169.887 273.027 170.385 273.58 170.981 274.01L175.38 272.885L176.556 268.335L180.879 267.488C180.879 267.488 180.259 270.281 181.27 270.812L182.294 271.355L182.901 274.692C182.448 274.961 182.074 275.345 181.817 275.804C181.559 276.263 181.428 276.782 181.435 277.309Z" fill="white"/>
<path d="M202.342 284.463C201.95 283.376 201.786 282.428 199.093 281.012C196.401 279.597 196.565 280.102 195.504 281.278C195.046 281.882 194.422 282.34 193.708 282.594C192.993 282.848 192.22 282.887 191.484 282.706C189.715 282.314 190.637 284.311 190.637 284.311L191.067 289.709L186.074 294.638C187.616 295.776 189.213 296.854 190.865 297.874L191.927 294.613L200.218 297.04C198.461 296.522 199.498 294.12 199.498 294.12L197.728 293.185C197.728 293.185 202.734 285.525 202.342 284.463Z" fill="white"/>
<path d="M254.57 256.399L251.853 253.656L248.743 254.63L247.479 257.158L246.531 258.978L247.795 261.506L250.323 264.577L251.764 261.822C251.764 261.822 255.771 261.822 257.869 259.509C259.968 257.195 254.57 256.399 254.57 256.399Z" fill="white"/>
<path d="M246.582 244.025L251.638 246.679L251.84 245.491C252.104 244.539 252.569 243.656 253.205 242.9L249.338 238.805L246.582 244.025Z" fill="white"/>
<path d="M244.863 302.865L243.409 300.729L241.715 299.844H236.546L233.601 305.431C233.601 305.431 230.782 305.051 227.078 304.723C223.375 304.394 224.285 305.924 224.285 305.924L223.324 309.438C232.668 310.588 242.142 310.079 251.309 307.933C250.244 307.191 249.138 306.507 247.998 305.886L244.863 302.865Z" fill="white"/>
</g>
</g>
<path d="M303.702 267.475C301.97 270.757 300.014 273.916 297.85 276.93C286.62 292.543 270.118 303.565 251.393 307.959C232.669 312.353 212.987 309.821 195.984 300.832C194.227 299.909 192.508 298.923 190.865 297.887C189.222 296.85 187.616 295.788 186.074 294.651C184.203 293.298 182.409 291.857 180.69 290.353C180.58 290.271 180.478 290.178 180.386 290.075C169.185 280.162 160.998 267.299 156.761 252.954C152.523 238.609 152.406 223.362 156.423 208.954C160.44 194.545 168.429 181.558 179.477 171.474C190.524 161.391 204.186 154.618 218.9 151.931C233.614 149.243 248.787 150.748 262.687 156.275C276.586 161.801 288.65 171.126 297.501 183.183C306.353 195.241 311.634 209.545 312.741 224.462C313.849 239.378 310.739 254.305 303.765 267.538L303.702 267.475Z" stroke="#263238" stroke-linecap="round" stroke-linejoin="round"/>
<path d="M251.309 307.937C242.142 310.083 232.668 310.592 223.324 309.441L224.285 305.927C224.285 305.927 223.375 304.398 227.078 304.727C230.782 305.055 233.601 305.435 233.601 305.435L236.546 299.848H241.715L243.409 300.732L244.863 302.869L247.998 305.89C249.138 306.511 250.244 307.194 251.309 307.937Z" stroke="#263238" stroke-linecap="round" stroke-linejoin="round"/>
<path d="M303.98 193.643C303.12 194.402 301.73 194.642 299.531 193.959C291.631 191.52 287.535 200.393 288.913 200.494C290.291 200.595 291.264 204.59 288.433 206.511C285.601 208.432 278.953 207.775 279.395 209.759C279.838 211.744 283.086 216.673 283.086 216.673C283.086 216.673 285.993 215.308 286.815 217.002C287.636 218.696 288.572 223.322 286.448 224.156C285.851 224.413 285.359 224.867 285.056 225.442C284.752 226.017 284.655 226.678 284.78 227.316L278.397 226.95L277.36 231.665L273.442 234.951L271.331 233.851C271.331 233.851 269.485 229.023 267.703 231.93L265.934 234.837L264.809 237.441C264.809 237.441 269.397 238.465 270.535 240.462L271.672 242.459L281.645 245.253L282.416 248.122L284.262 249.082L284.729 254.075L288.445 256.022L292.237 256.313L296.763 249.993C297.681 251.767 298.484 253.599 299.164 255.478C299.607 257.109 298.317 261.166 298.317 261.166C297.572 262.676 296.464 263.979 295.094 264.958C293.287 265.881 291.075 263.391 291.302 266.437L291.454 269.483L290.986 272.858L293.779 274.325L296.434 275.728L297.976 276.992" stroke="#263238" stroke-linecap="round" stroke-linejoin="round"/>
<path d="M154.297 242.044L155.422 242.271L160.478 236.685L165.041 234.839L168.302 236.558C169.642 237.266 170.994 233.866 170.994 233.866L170.135 233.082C169.263 232.273 170.527 227.596 170.527 227.596C173.037 227.967 175.573 228.14 178.111 228.115C180.108 227.875 181.056 227.95 181.903 226.269C182.75 224.588 182.118 224.222 182.118 224.222C182.844 222.086 183.336 219.878 183.584 217.636C183.584 215.449 186.845 219.355 186.845 219.355L188.438 216.334L192.002 213.503L196.666 210.267C196.666 210.267 203.429 208.32 203.947 209.787C204.465 211.253 207.208 212.441 207.208 212.441L206.045 214.653C206.045 214.653 204.554 219.254 203.113 220.227C201.672 221.201 203.694 228.241 203.694 228.241C202.363 229.503 201.184 230.916 200.18 232.45C199.295 234.144 198.436 234.119 198.436 234.119L194.024 233.512C194.024 233.512 188.968 229.998 187.3 229.113C187.3 229.113 184.33 232.286 184.633 234.169C184.936 236.053 183.584 236.141 183.584 236.141L188.248 240.375L189.006 243.03L191.774 246.759L190.877 248.452L189.183 251.663L189.942 255.164L192.95 259.234L194.656 262.913L196.502 268.866L197.096 272.165L202.531 274.605L204.933 273.341L209.61 270.813L211.822 275.211L212.681 277.423L208.788 280.95L210.178 283.819L210.621 287.068L210.242 291.416L209.445 294.197L212.681 295.916L218.458 295.081L218.243 290.67C220.145 289.536 222.156 288.596 224.247 287.864C226.699 287.169 226.459 287.207 229.48 286.271C232.501 285.336 231.578 285.589 233.031 285.108C234.485 284.628 235.901 284.034 235.901 284.034L236.002 279.458L238.403 271.141L239.882 272.115C241.349 273.1 243.548 269.523 243.548 269.523L244.584 263.203L241.601 261.649C239.865 261.294 238.102 261.082 236.33 261.017L232.172 258.83L228.683 252.674C227.544 251.436 226.571 250.055 225.789 248.566L227.394 245.533L229.366 241.741L231.426 242.828L233.322 243.839L235.332 244.888L238.618 242.764L240.451 237.633L242.979 235.383C244.622 233.891 245.773 236.647 245.773 236.647L248.478 233.247C251.195 229.846 248.945 231.426 247.555 229.682C247.239 229.202 246.807 228.809 246.299 228.539C245.79 228.27 245.223 228.132 244.648 228.14L239.705 222.237L235.774 223.729L235.218 225.587C234.675 227.457 235.218 225.587 229.518 223.349L227.647 217.902L228.772 216.638L229.037 211.582C229.037 211.582 225.763 209.976 223.273 208.636C220.783 207.297 220.214 203.871 220.214 203.871C220.174 201.99 220.559 200.123 221.339 198.411L220.075 194.834L215.411 185.72L216.195 181.612L218.913 179.906L219.987 174.433L215.108 169.806L217.067 166.09L218.458 163.448L220.075 160.364L221.339 154.12C221.339 154.12 221.023 152.957 220.733 151.668" stroke="#263238" stroke-linecap="round" stroke-linejoin="round"/>
<path d="M180.752 290.339C180.654 290.226 180.544 290.124 180.423 290.036L181.826 287.356L181.258 282.3L179.4 281.327C179.4 281.327 181.675 279.077 181.536 277.282C181.511 276.746 181.631 276.214 181.882 275.74C182.133 275.267 182.507 274.869 182.964 274.589L182.357 271.253L181.333 270.709C180.322 270.178 180.942 267.385 180.942 267.385L176.619 268.232L175.443 272.782L171.044 273.907C170.448 273.477 169.951 272.924 169.586 272.285C169.222 271.646 169 270.936 168.934 270.203C169.009 268.093 169.818 268.522 169.818 268.522H173.888L176.416 263.719L175.898 261.406L174.078 260.445" stroke="#263238" stroke-linecap="round" stroke-linejoin="round"/>
<path d="M173.964 260.449C174.167 260.563 172.865 254.698 172.865 254.698C172.865 254.698 171.247 250.413 169.477 249.642C167.708 248.871 163.713 251.588 163.713 251.588L159.251 252.22L158.24 257.58" stroke="#263238" stroke-linecap="round" stroke-linejoin="round"/>
<path d="M191.927 294.613L190.865 297.874C189.179 296.846 187.583 295.767 186.074 294.638L191.067 289.709L190.637 284.311C190.637 284.311 189.715 282.314 191.484 282.706C192.22 282.887 192.993 282.848 193.708 282.594C194.422 282.34 195.046 281.882 195.504 281.278C196.54 280.102 196.414 279.597 199.093 281.012C201.773 282.428 201.95 283.376 202.342 284.463C202.734 285.55 197.728 293.223 197.728 293.223L199.498 294.158C199.498 294.158 198.461 296.56 200.218 297.078L191.927 294.613Z" stroke="#263238" stroke-linecap="round" stroke-linejoin="round"/>
<path d="M248.743 254.633L251.852 253.66L254.57 256.403C254.57 256.403 259.942 257.098 257.844 259.437C255.746 261.775 251.739 261.75 251.739 261.75L250.272 264.505L247.744 261.434L246.48 258.906L247.428 257.086L248.743 254.633Z" stroke="#263238" stroke-linecap="round" stroke-linejoin="round"/>
<path d="M253.205 242.904C252.569 243.659 252.104 244.543 251.84 245.495L251.638 246.683L246.582 244.029L249.338 238.809L253.205 242.904Z" stroke="#263238" stroke-linecap="round" stroke-linejoin="round"/>
<path d="M527.505 541.057C520.729 546.694 468.539 582.516 394.064 576.739C390.057 542.839 374.775 403.571 392.155 381.729C392.155 381.729 434.322 361.619 473.165 370.063C512.008 378.506 527.125 386.596 529.894 393.598C531.992 398.894 528.996 497.512 527.505 541.057Z" fill="#263238"/>
<path d="M471.877 384.939C449.504 404.316 420.685 400.221 421.317 385.343C421.418 383.017 423.908 380.136 423.908 380.136L423.036 378.796L419.244 373.07C416.476 368.785 413.013 363.4 410.598 359.482C408.576 356.145 458.997 325.126 458.997 342.961C458.997 368.09 471.334 372.817 471.334 372.817C475.985 374.688 480.321 377.646 471.877 384.939Z" fill="white" stroke="#263238" stroke-linecap="round" stroke-linejoin="round"/>
<path d="M486.021 423.312C486.021 423.312 481.508 438.784 483.644 443.221" stroke="white" stroke-linecap="round" stroke-linejoin="round"/>
<path d="M480.749 378.391C480.749 393.318 436.218 407.943 423.174 392.965" stroke="white" stroke-linecap="round" stroke-linejoin="round"/>
<path d="M444.118 361.164C444.118 361.164 441.135 372.414 427.231 381.198C426.568 380.06 425.497 379.215 424.236 378.835C423.817 378.767 423.39 378.767 422.972 378.835L419.18 373.109C426.372 367.926 444.118 361.164 444.118 361.164Z" fill="#263238"/>
<path d="M450.363 347.335C450.363 347.335 450.212 358.433 447.835 360.696C430.202 377.608 412.961 378.948 410.117 374.486C390.968 344.453 395.493 336.566 393.546 331.421C390.096 322.396 385.861 307.658 387.732 298.734C391.903 278.801 429.444 263.342 449.213 283.389C458.693 292.983 461.689 313.801 459.692 331.143" fill="white"/>
<path d="M450.363 347.335C450.363 347.335 450.212 358.433 447.835 360.696C430.202 377.608 412.961 378.948 410.117 374.486C390.968 344.453 395.493 336.566 393.546 331.421C390.096 322.396 385.861 307.658 387.732 298.734C391.903 278.801 429.444 263.342 449.213 283.389C458.693 292.983 461.689 313.801 459.692 331.143" stroke="#263238" stroke-linecap="round" stroke-linejoin="round"/>
<path d="M395.961 322.142C395.961 322.142 390.69 319.779 389.553 322.598" stroke="#263238" stroke-linecap="round" stroke-linejoin="round"/>
<path d="M408.74 322.319C408.74 322.319 419.699 317.73 424.629 323.305" stroke="#263238" stroke-linecap="round" stroke-linejoin="round"/>
<path d="M420.911 330.093C421.088 331.736 420.292 333.164 419.116 333.303C417.941 333.442 416.854 332.191 416.677 330.548C416.5 328.904 417.296 327.463 418.472 327.337C419.647 327.211 420.684 328.449 420.911 330.093Z" fill="#263238"/>
<path d="M399.423 330.588C399.613 332.231 398.804 333.672 397.628 333.798C396.453 333.925 395.366 332.699 395.189 331.055C395.012 329.412 395.808 327.971 396.984 327.845C398.159 327.718 399.221 328.945 399.423 330.588Z" fill="#263238"/>
<path d="M399.954 326.266C401.484 328.73 400.649 332.94 398.627 338.716C396.605 344.493 398.387 346.578 406.148 347.16" fill="white"/>
<path d="M399.954 326.266C401.484 328.73 400.649 332.94 398.627 338.716C396.605 344.493 398.387 346.578 406.148 347.16" stroke="#263238" stroke-linecap="round" stroke-linejoin="round"/>
<path d="M406.148 357.155C406.148 357.155 416.26 356.232 420.887 353.691" stroke="#263238" stroke-linecap="round" stroke-linejoin="round"/>
<path d="M470.207 299.847C470.207 292.338 462.8 276.93 449.806 275.199C442.336 267.387 431.693 264.518 418.775 267.488C388.92 274.339 379.831 303.816 378.529 308.695C378.403 309.15 378.34 309.402 378.34 309.402L386.328 307.38L382.89 314.092L387.074 316.86L386.113 317.922L390.967 322.599L389.45 314.054C390.386 308.543 396.731 300.833 396.731 300.833C394.415 303.834 392.972 307.416 392.56 311.185C395.088 304.625 410.256 298.545 410.256 298.545C405.339 302.539 402.672 310.35 402.672 310.35C407.349 304.587 418.307 300.858 425.323 298.873C427.686 304.574 431.44 310.527 436.8 313.826C441.856 316.936 441.679 323.357 441.679 323.357C447.119 327.138 451.126 332.642 453.055 338.98L459.173 347.348C459.173 347.348 470.207 333.81 470.207 299.847Z" fill="#263238"/>
<path d="M444.459 325.504C442.412 321.118 449.844 309.236 455.115 310.703C458.073 311.537 461.941 316.934 462.699 322.597C463.457 328.26 459.45 339.029 455.178 341.367C452.461 342.884 450.223 338.751 450.223 338.751" fill="white"/>
<path d="M444.459 325.504C442.412 321.118 449.844 309.236 455.115 310.703C458.073 311.537 461.941 316.934 462.699 322.597C463.457 328.26 459.45 339.029 455.178 341.367C452.461 342.884 450.223 338.751 450.223 338.751" stroke="#263238" stroke-linecap="round" stroke-linejoin="round"/>
<path d="M121.988 540.043L264.808 506.648L562.707 541.055L486.008 593.511L121.988 540.043Z" fill="white"/>
<path d="M121.988 540.043L264.808 506.648L562.707 541.055" fill="white"/>
<path d="M121.988 540.043L264.808 506.648L562.707 541.055" stroke="#263238" stroke-linecap="round" stroke-linejoin="round"/>
<path d="M245.582 546.746L303.397 521.188L376.495 524.967L343.984 552.762L245.582 546.746Z" fill="white" stroke="#263238" stroke-linecap="round" stroke-linejoin="round"/>
<path d="M394.975 380.465C376.432 388.049 372.438 405.1 340.926 472.484C340.926 472.484 326.933 475.353 319.438 492.354C311.942 509.355 324.494 522.779 338.941 522.324C338.941 522.324 344.743 527.38 356.637 526.861C368.532 526.343 421.101 445.902 421.101 445.902L394.975 380.465Z" fill="#263238"/>
<path d="M346.449 476.441C354.741 483.823 359.506 494.656 356.978 506.664" stroke="white" stroke-linecap="round" stroke-linejoin="round"/>
<path d="M354.451 479.992C354.451 479.992 364.639 482.217 366.219 495.261" stroke="white" stroke-linecap="round" stroke-linejoin="round"/>
<path d="M384.255 441.819C379.441 429.943 377.778 417.025 379.426 404.316" stroke="white" stroke-linecap="round" stroke-linejoin="round"/>
<path d="M382.815 424.629C382.043 429.938 387.529 458.201 387.491 487.917" stroke="white" stroke-linecap="round" stroke-linejoin="round"/>
<path d="M521.426 386.051C544.62 397.705 547.375 433.565 525.496 476.439C510.037 506.7 488.701 551.382 475.201 554.378C461.702 557.373 448.531 548.968 448.531 548.968C448.531 548.968 437.155 548.437 433.717 540.347C424.312 518.24 448.215 490.305 457.568 496.992C457.568 496.992 487.601 431.681 493.074 427.561" fill="#263238"/>
<path d="M431.567 526.912C428.496 511.656 452.512 493.657 457.568 496.994C457.568 496.994 475.403 497.992 478.07 510.329" stroke="white" stroke-linecap="round" stroke-linejoin="round"/>
<path d="M496.902 530.161C507.343 511.745 525.494 476.441 525.494 476.441" stroke="white" stroke-linecap="round" stroke-linejoin="round"/>
<path d="M457.568 496.992C457.568 496.992 470.069 489.509 479.41 496.587" stroke="white" stroke-linecap="round" stroke-linejoin="round"/>
<path d="M461.84 487.905C461.84 487.905 468.741 472.737 475.744 458.833C482.746 444.929 498.774 424.338 505.435 423.34" stroke="white" stroke-linecap="round" stroke-linejoin="round"/>
<path d="M330.107 515.169C328.605 515.095 327.139 514.694 325.809 513.993C304.321 502.781 287.611 484.251 277.549 470.954C273.638 465.872 270.037 460.557 266.768 455.04L271.925 432.945C271.925 432.945 276.778 445.585 296.282 458.01C315.785 470.436 338.955 474.531 346.45 487.082C353.086 498.016 341.394 515.712 330.107 515.169Z" fill="white"/>
<mask id="mask1_422_1750" style="mask-type:luminance" maskUnits="userSpaceOnUse" x="266" y="432" width="83" height="84">
<path d="M330.107 515.169C328.605 515.095 327.139 514.694 325.809 513.993C304.321 502.781 287.611 484.251 277.549 470.954C273.638 465.872 270.037 460.557 266.768 455.04L271.925 432.945C271.925 432.945 276.778 445.585 296.282 458.01C315.785 470.436 338.955 474.531 346.45 487.082C353.086 498.016 341.394 515.712 330.107 515.169Z" fill="white"/>
</mask>
<g mask="url(#mask1_422_1750)">
<path opacity="0.4" d="M330.107 515.169C329.867 513.57 329.443 512.005 328.843 510.504C324.33 499.204 297.028 476.743 297.028 476.743C290.531 476.541 283.389 473.836 277.575 470.954C273.654 465.872 270.045 460.558 266.768 455.04L271.925 432.945C271.925 432.945 276.778 445.585 296.282 458.01C315.785 470.436 338.955 474.531 346.45 487.082C353.086 498.016 341.394 515.712 330.107 515.169Z" fill="#987EF6"/>
</g>
<path d="M330.107 515.169C328.605 515.095 327.139 514.694 325.809 513.993C304.321 502.781 287.611 484.251 277.549 470.954C273.638 465.872 270.037 460.557 266.768 455.04L271.925 432.945C271.925 432.945 276.778 445.585 296.282 458.01C315.785 470.436 338.955 474.531 346.45 487.082C353.086 498.016 341.394 515.712 330.107 515.169Z" stroke="#263238" stroke-linecap="round" stroke-linejoin="round"/>
<path d="M281.442 453.699C281.442 453.699 278.775 465.48 271.747 462.838C267.955 461.41 260.649 450.084 259.271 444.371L281.442 453.699Z" fill="white" stroke="#263238" stroke-linecap="round" stroke-linejoin="round"/>
<path d="M250.461 381.161L256.2 378.203C256.2 378.203 272.417 378.342 282.478 386.52C291.617 393.953 296.256 405.594 296.256 405.594C296.256 405.594 331.761 385.989 368.026 397.239L382.814 479.664L314.824 484.114L272.391 443.805L250.461 381.161Z" fill="white" stroke="#263238" stroke-linecap="round" stroke-linejoin="round"/>
<path d="M387.491 482.961C387.491 482.961 379.515 482.721 368.847 483.075C352.718 483.581 330.434 485.401 320.246 491.329L319.766 491.165L310.438 487.903L310.248 487.625C308.529 485.097 294.663 465.189 274.856 457.087L246.846 378.82C246.846 378.82 275.918 380.084 291.806 406.35L299.782 409.232C299.782 409.232 347.245 395.176 373.814 400.232L387.491 482.961Z" fill="#987EF6"/>
<mask id="mask2_422_1750" style="mask-type:luminance" maskUnits="userSpaceOnUse" x="246" y="378" width="142" height="114">
<path d="M387.491 482.961C387.491 482.961 379.515 482.721 368.847 483.075C352.718 483.581 330.434 485.401 320.246 491.329L319.766 491.165L310.438 487.903L310.248 487.625C308.529 485.097 294.663 465.189 274.856 457.087L246.846 378.82C246.846 378.82 275.918 380.084 291.806 406.35L299.782 409.232C299.782 409.232 347.245 395.176 373.814 400.232L387.491 482.961Z" fill="white"/>
</mask>
<g mask="url(#mask2_422_1750)">
<path opacity="0.3" d="M310.248 487.637C308.529 485.109 294.663 465.201 274.856 457.099L246.846 378.832C246.846 378.832 275.918 380.096 291.806 406.362L310.248 487.637Z" fill="black" fill-opacity="0.7"/>
<path opacity="0.3" d="M368.847 483.073C352.719 483.579 330.434 485.399 320.246 491.327L319.766 491.163L301.135 412.062C301.135 412.062 316.379 408.636 321.068 410.368C321.055 410.393 352.049 433.259 368.847 483.073Z" fill="black" fill-opacity="0.7"/>
</g>
<path d="M387.491 482.961C387.491 482.961 379.515 482.721 368.847 483.075C352.718 483.581 330.434 485.401 320.246 491.329L319.766 491.165L310.438 487.903L310.248 487.625C308.529 485.097 294.663 465.189 274.856 457.087L246.846 378.82C246.846 378.82 275.918 380.084 291.806 406.35L299.782 409.232C299.782 409.232 347.245 395.176 373.814 400.232L387.491 482.961Z" stroke="#263238" stroke-linecap="round" stroke-linejoin="round"/>
<path d="M299.809 409.246L318.099 485.124" stroke="#263238" stroke-linecap="round" stroke-linejoin="round"/>
<path d="M310.438 487.917L292.666 412.09" stroke="#263238" stroke-linecap="round" stroke-linejoin="round"/>
<path d="M265.287 455.102C261.23 453.977 253.052 429.594 256.793 419.09C256.793 419.09 261.243 411.367 263.113 410.837C265.945 410.015 277.371 410.255 276.815 412.176C275.551 416.626 266.779 416.55 266.779 416.55L263.935 421.758L264.049 424.627C264.049 424.627 268.182 421.618 269.699 421.707C270.482 421.707 274.527 423.729 277.738 425.423C280.481 426.877 282.162 427.673 281.53 428.988C279.495 433.361 270.836 430.252 270.836 430.252L267.575 435.169C267.575 435.169 270.723 435.712 272.1 435.864C273.478 436.015 284.917 443.637 284.576 444.585C283.224 448.302 272.378 444.282 272.378 444.282L270.457 445.887C270.457 445.887 278.446 447.948 279.305 448.251C280.569 448.719 285.436 452.46 285.36 452.89C284.778 456.176 278.066 453.762 278.066 453.762L272.189 453.522C271.294 454.312 270.217 454.868 269.054 455.14" fill="white"/>
<path d="M265.287 455.102C261.23 453.977 253.052 429.594 256.793 419.09C256.793 419.09 261.243 411.367 263.113 410.837C265.945 410.015 277.371 410.255 276.815 412.176C275.551 416.626 266.779 416.55 266.779 416.55L263.935 421.758L264.049 424.627C264.049 424.627 268.182 421.618 269.699 421.707C270.482 421.707 274.527 423.729 277.738 425.423C280.481 426.877 282.162 427.673 281.53 428.988C279.495 433.361 270.836 430.252 270.836 430.252L267.575 435.169C267.575 435.169 270.723 435.712 272.1 435.864C273.478 436.015 284.917 443.637 284.576 444.585C283.224 448.302 272.378 444.282 272.378 444.282L270.457 445.887C270.457 445.887 278.446 447.948 279.305 448.251C280.569 448.719 285.436 452.46 285.36 452.89C284.778 456.176 278.066 453.762 278.066 453.762L272.189 453.522C271.294 454.312 270.217 454.868 269.054 455.14" stroke="#263238" stroke-linecap="round" stroke-linejoin="round"/>
<path d="M263.999 424.629C263.999 424.629 260.207 427.814 259.234 428.737C258.261 429.66 258.501 432.592 258.501 432.592" stroke="#263238" stroke-linecap="round" stroke-linejoin="round"/>
<path d="M261.256 439.062C261.256 442.273 263.405 444.22 264.391 445.256C265.376 446.293 262.811 449.111 265.655 451.134" stroke="#263238" stroke-linecap="round" stroke-linejoin="round"/>
<path d="M448.48 540.829C440.453 543.016 431.732 528.91 421.089 513.514C414.061 503.402 406.199 492.62 397.161 485.706C396.441 485.163 395.708 484.632 394.975 484.126L400.258 457.582C411.23 463.333 418.03 472.548 429.419 482.015C447.747 497.272 463.989 506.638 468.489 513.388C472.989 520.137 462.232 537.075 448.48 540.829Z" fill="white"/>
<mask id="mask3_422_1750" style="mask-type:luminance" maskUnits="userSpaceOnUse" x="394" y="457" width="76" height="85">
<path d="M448.48 540.829C440.453 543.016 431.732 528.91 421.089 513.514C414.061 503.402 406.199 492.62 397.161 485.706C396.441 485.163 395.708 484.632 394.975 484.126L400.258 457.582C411.23 463.333 418.03 472.548 429.419 482.015C447.747 497.272 463.989 506.638 468.489 513.388C472.989 520.137 462.232 537.075 448.48 540.829Z" fill="white"/>
</mask>
<g mask="url(#mask3_422_1750)">
<path opacity="0.4" d="M421.09 513.503C414.062 503.391 406.2 492.609 397.162 485.695C398.353 485.756 399.544 485.575 400.663 485.164C400.663 485.164 414.947 496.755 421.09 513.503Z" fill="#987EF6"/>
</g>
<path d="M448.48 540.829C440.453 543.016 431.732 528.91 421.089 513.514C414.061 503.402 406.199 492.62 397.161 485.706C396.441 485.163 395.708 484.632 394.975 484.126L400.258 457.582C411.23 463.333 418.03 472.548 429.419 482.015C447.747 497.272 463.989 506.638 468.489 513.388C472.989 520.137 462.232 537.075 448.48 540.829Z" stroke="#263238" stroke-linecap="round" stroke-linejoin="round"/>
<path d="M403.216 483.076C402.667 484.057 401.762 484.791 400.688 485.124C400.402 485.236 400.111 485.333 399.816 485.415H399.576C391.094 487.627 372.008 483.026 372.008 483.026C372.008 483.026 359.507 477.085 358.748 475.682C358.22 474.57 357.752 473.431 357.345 472.269L357.004 471.27C357.004 471.27 352.504 468.742 351.948 466.771C351.392 464.799 350.444 464.243 353.212 463.889C355.98 463.535 370.908 463.889 370.908 463.889L354.666 457.265C354.666 457.265 343.909 451.843 342.91 449.934C341.912 448.025 340.66 446.761 346.159 447.52C351.657 448.278 363.665 451.767 363.665 451.767L373.133 453.777L363.729 449.77C363.729 449.77 345.224 447.532 348.725 441.781H359.229C365.179 442.044 371.098 442.796 376.925 444.031C379.984 444.967 400.208 457.531 400.208 457.531" fill="white"/>
<mask id="mask4_422_1750" style="mask-type:luminance" maskUnits="userSpaceOnUse" x="342" y="441" width="62" height="46">
<path d="M403.216 483.076C402.667 484.057 401.762 484.791 400.688 485.124C400.402 485.236 400.111 485.333 399.816 485.415H399.576C391.094 487.627 372.008 483.026 372.008 483.026C372.008 483.026 359.507 477.085 358.748 475.682C358.22 474.57 357.752 473.431 357.345 472.269L357.004 471.27C357.004 471.27 352.504 468.742 351.948 466.771C351.392 464.799 350.444 464.243 353.212 463.889C355.98 463.535 370.908 463.889 370.908 463.889L354.666 457.265C354.666 457.265 343.909 451.843 342.91 449.934C341.912 448.025 340.66 446.761 346.159 447.52C351.657 448.278 363.665 451.767 363.665 451.767L373.133 453.777L363.729 449.77C363.729 449.77 345.224 447.532 348.725 441.781H359.229C365.179 442.044 371.098 442.796 376.925 444.031C379.984 444.967 400.208 457.531 400.208 457.531" fill="white"/>
</mask>
<g mask="url(#mask4_422_1750)">
<path opacity="0.4" d="M399.551 485.466C391.069 487.678 371.983 483.077 371.983 483.077C371.983 483.077 359.482 477.136 358.723 475.733C358.195 474.621 357.727 473.482 357.32 472.32L372.665 474.001C372.128 474.968 371.847 476.056 371.847 477.161C371.847 478.267 372.128 479.355 372.665 480.321C374.372 483.393 393.812 486.502 399.551 485.466Z" fill="#987EF6"/>
</g>
<path d="M403.216 483.076C402.667 484.057 401.762 484.791 400.688 485.124C400.402 485.236 400.111 485.333 399.816 485.415H399.576C391.094 487.627 372.008 483.026 372.008 483.026C372.008 483.026 359.507 477.085 358.748 475.682C358.22 474.57 357.752 473.431 357.345 472.269L357.004 471.27C357.004 471.27 352.504 468.742 351.948 466.771C351.392 464.799 350.444 464.243 353.212 463.889C355.98 463.535 370.908 463.889 370.908 463.889L354.666 457.265C354.666 457.265 343.909 451.843 342.91 449.934C341.912 448.025 340.66 446.761 346.159 447.52C351.657 448.278 363.665 451.767 363.665 451.767L373.133 453.777L363.729 449.77C363.729 449.77 345.224 447.532 348.725 441.781H359.229C365.179 442.044 371.098 442.796 376.925 444.031C379.984 444.967 400.208 457.531 400.208 457.531" stroke="#263238" stroke-linecap="round" stroke-linejoin="round"/>
<path d="M356.979 471.32L375.446 474.038" stroke="#263238" stroke-linecap="round" stroke-linejoin="round"/>
<path d="M172.889 527.872L219.176 541.776L303.864 522.449C303.864 522.449 252.141 507.761 251.661 508.128C251.181 508.494 172.889 527.872 172.889 527.872Z" fill="#987EF6"/>
<mask id="mask5_422_1750" style="mask-type:luminance" maskUnits="userSpaceOnUse" x="172" y="508" width="132" height="34">
<path d="M172.889 527.872L219.176 541.776L303.864 522.449C303.864 522.449 252.141 507.761 251.661 508.128C251.181 508.494 172.889 527.872 172.889 527.872Z" fill="white"/>
</mask>
<g mask="url(#mask5_422_1750)">
<path opacity="0.3" d="M172.889 527.872L219.176 541.776L303.864 522.449C303.864 522.449 252.141 507.761 251.661 508.128C251.181 508.494 172.889 527.872 172.889 527.872Z" fill="black" fill-opacity="0.7"/>
</g>
<path d="M172.889 527.872L219.176 541.776L303.864 522.449C303.864 522.449 252.141 507.761 251.661 508.128C251.181 508.494 172.889 527.872 172.889 527.872Z" stroke="#263238" stroke-linecap="round" stroke-linejoin="round"/>
<path d="M173.559 511.566C170.311 511.794 169.502 523.499 172.889 527.872L247.667 512.35L253.659 498.168L173.559 511.566Z" fill="#987EF6"/>
<mask id="mask6_422_1750" style="mask-type:luminance" maskUnits="userSpaceOnUse" x="170" y="498" width="84" height="30">
<path d="M173.559 511.566C170.311 511.794 169.502 523.499 172.889 527.872L247.667 512.35L253.659 498.168L173.559 511.566Z" fill="white"/>
</mask>
<g mask="url(#mask6_422_1750)">
<path opacity="0.3" d="M173.559 511.566C170.311 511.794 169.502 523.499 172.889 527.872L247.667 512.35L253.659 498.168L173.559 511.566Z" fill="black" fill-opacity="0.7"/>
</g>
<path d="M173.559 511.566C170.311 511.794 169.502 523.499 172.889 527.872L247.667 512.35L253.659 498.168L173.559 511.566Z" stroke="#263238" stroke-linecap="round" stroke-linejoin="round"/>
<path d="M300.238 511.403C300.238 511.403 299.125 517.559 299.846 521.351L219.089 539.628L176.517 527.089C176.517 527.089 172.093 519.265 175.949 513.185L253.735 499.977L300.238 511.403Z" fill="white" stroke="#263238" stroke-linecap="round" stroke-linejoin="round"/>
<path d="M173.559 511.566L253.658 498.168L303.397 510.77L219.745 527.442L173.559 511.566Z" fill="#987EF6" stroke="#263238" stroke-linecap="round" stroke-linejoin="round"/>
<path d="M176.404 519.051L218.761 531.666L288.091 517.711" stroke="#263238" stroke-linecap="round" stroke-linejoin="round"/>
<path d="M299.619 519L225.068 534.901" stroke="#263238" stroke-linecap="round" stroke-linejoin="round"/>
<path d="M177.402 524.016C178.047 524.079 209.331 533.71 209.331 533.71" stroke="#263238" stroke-linecap="round" stroke-linejoin="round"/>
<path d="M293.525 516.078L299.454 515.117" stroke="#263238" stroke-linecap="round" stroke-linejoin="round"/>
<path d="M217.382 536.052L214.234 535.344" stroke="#263238" stroke-linecap="round" stroke-linejoin="round"/>
<path d="M175.949 513.184C177.607 515.093 178.566 517.509 178.669 520.036C178.773 522.562 178.014 525.049 176.518 527.088C175.133 525.055 174.346 522.675 174.245 520.217C174.145 517.759 174.735 515.323 175.949 513.184Z" fill="#263238"/>
<mask id="mask7_422_1750" style="mask-type:luminance" maskUnits="userSpaceOnUse" x="174" y="513" width="5" height="15">
<path d="M175.949 513.184C177.607 515.093 178.566 517.509 178.669 520.036C178.773 522.562 178.014 525.049 176.518 527.088C175.133 525.055 174.346 522.675 174.245 520.217C174.145 517.759 174.735 515.323 175.949 513.184Z" fill="white"/>
</mask>
<g mask="url(#mask7_422_1750)">
<path opacity="0.3" d="M175.949 513.184C177.607 515.093 178.566 517.509 178.669 520.036C178.773 522.562 178.014 525.049 176.518 527.088C175.133 525.055 174.346 522.675 174.245 520.217C174.145 517.759 174.735 515.323 175.949 513.184Z" fill="white" fill-opacity="0.7"/>
</g>
<path d="M175.949 513.184C177.607 515.093 178.566 517.509 178.669 520.036C178.773 522.562 178.014 525.049 176.518 527.088C175.133 525.055 174.346 522.675 174.245 520.217C174.145 517.759 174.735 515.323 175.949 513.184Z" stroke="#263238" stroke-linecap="round" stroke-linejoin="round"/>
<path d="M348.952 531.664L429.784 534.976L421.91 562.796L322.471 559.004L348.952 531.664Z" fill="white"/>
<mask id="mask8_422_1750" style="mask-type:luminance" maskUnits="userSpaceOnUse" x="322" y="531" width="108" height="32">
<path d="M348.952 531.664L429.784 534.976L421.91 562.796L322.471 559.004L348.952 531.664Z" fill="white"/>
</mask>
<g mask="url(#mask8_422_1750)">
<path opacity="0.4" d="M348.952 531.664L429.784 534.976L421.91 562.796L322.471 559.004L348.952 531.664Z" fill="#987EF6"/>
</g>
<path d="M348.952 531.664L429.784 534.976L421.91 562.796L322.471 559.004L348.952 531.664Z" stroke="#263238" stroke-linecap="round" stroke-linejoin="round"/>
<g opacity="0.8">
<path d="M681.217 185.646C676.851 183.266 674.548 183.164 675.05 185.27C675.405 186.76 681.103 190.179 690.377 194.483C694.021 196.111 696.999 197.681 697.049 197.887C697.305 198.966 684.398 209.478 682.137 210.017C680.494 210.409 679.787 212.912 681.11 213.682C682.064 214.269 684.253 213.205 689.016 209.736C702.273 200.226 703.596 197.575 696.968 193.672C695.188 192.576 691.788 190.835 689.418 189.772C687.099 188.696 683.406 186.861 681.217 185.646ZM565.987 104.7C565.661 98.3176 565.573 98.1758 563.927 98.7852C562.731 99.233 562.548 99.6023 562.499 102.816C562.438 107.119 564.476 116.134 566.688 121.09C573.906 137.5 587.278 152.173 604.589 162.65C611.178 166.617 615.854 168.706 621.626 170.153L626.082 171.317L629.164 175.143C634.758 182.224 640.587 186.643 650.025 191.179C660.916 196.347 674.519 200.597 682.323 201.234C689.422 201.877 696.033 200.464 695.556 198.46C695.274 197.279 694.022 197.034 690.689 197.394C682.022 198.374 669.287 195.492 655.116 189.315C645.368 185.069 638.365 180.278 633.474 174.55C631.262 171.874 631.277 171.708 634.185 171.612C640.898 171.315 646.791 166.437 648.427 159.859C650.842 149.946 645.28 135.474 636.096 127.675C628.281 121.069 620.368 123.389 618.097 132.995C616.148 141.222 618.182 155.232 622.749 164.837C623.211 165.867 623.306 166.496 622.947 166.582C621.714 166.875 612.652 163.009 607.475 159.955C584.754 146.587 567.013 122.912 565.987 104.7ZM626.195 127.808C633.642 126.034 645.609 142.779 645.248 154.482C645.143 159.284 643.499 163.095 640.526 165.65C639.039 166.927 634.429 168.079 631.191 167.928C628.785 167.85 628.467 167.654 627.488 165.825C626.962 164.756 626.208 163.416 625.92 162.887C623.885 159.355 621.392 148.658 621.132 142.098C620.784 134.255 622.806 128.616 626.195 127.808Z" fill="url(#paint0_linear_422_1750)"/>
</g>
<defs>
<linearGradient id="paint0_linear_422_1750" x1="689.635" y1="192.853" x2="582.144" y2="144.633" gradientUnits="userSpaceOnUse">
<stop stop-color="#987EF6"/>
<stop offset="1" stop-color="#E0D8FC"/>
</linearGradient>
</defs>
</svg>
