<svg width="85" height="87" viewBox="0 0 85 87" fill="none" xmlns="http://www.w3.org/2000/svg">
<path d="M38.0544 1.47709C38.499 1.15722 39.3347 0.695188 39.9216 0.4464C40.7218 0.12653 41.3441 0.019907 42.4111 0.00213649C43.5492 -0.0156341 44.0649 0.0732187 44.9895 0.42863C45.6297 0.695188 46.501 1.15722 46.9456 1.47709C47.3902 1.81473 47.9592 2.34785 48.2082 2.66772C48.4571 3.00536 48.8839 3.66287 49.1328 4.16044C49.3818 4.64025 49.6841 5.59986 49.7908 6.29291C49.9686 7.27029 49.9686 7.83895 49.7908 8.95849C49.6663 9.74039 49.4174 10.8244 49.2218 11.3575C49.0439 11.8906 48.6883 12.6725 48.4571 13.0813C48.2082 13.5077 48.0303 13.8632 48.0659 13.8987C48.0837 13.9342 48.546 14.0586 49.0795 14.183C49.613 14.2897 50.5732 14.6451 51.1956 14.9649C51.8536 15.2848 52.7782 15.9601 53.3295 16.5287C53.8808 17.0796 54.5387 17.9148 54.8054 18.3946C55.0722 18.8745 55.41 19.7808 55.5523 20.4205C55.7479 21.2024 55.8368 22.4996 55.8368 24.4189C55.8546 26.9423 55.819 27.3155 55.5167 27.7064C55.3389 27.9552 54.9833 28.204 54.7521 28.2573C54.5209 28.3106 54.0586 28.2573 53.7563 28.1329C53.4006 27.973 53.1339 27.7242 53.0805 27.4754C53.045 27.2622 52.9739 25.7161 52.9561 24.0635C52.9027 21.2202 52.8849 20.9891 52.4404 20.0651C52.1736 19.532 51.6046 18.7856 51.1956 18.4124C50.7688 18.0392 50.0575 17.5594 49.613 17.3462C48.8305 16.973 48.6527 16.9552 42.5 16.9552C36.3295 16.9552 36.1695 16.973 35.387 17.3462C34.9425 17.5594 34.2312 18.0392 33.8044 18.4124C33.3776 18.7856 32.8264 19.532 32.5596 20.0651C32.1151 20.9891 32.0973 21.2202 32.0439 24.0635C32.0261 25.7161 31.955 27.2622 31.9195 27.4754C31.8661 27.7242 31.5994 27.973 31.2615 28.1329C30.9414 28.2573 30.4791 28.3106 30.2479 28.2573C30.0167 28.204 29.6611 27.9552 29.4833 27.7064C29.181 27.3155 29.1454 26.9423 29.1632 24.4189C29.1632 22.4996 29.2521 21.2024 29.4477 20.4205C29.59 19.7808 29.9278 18.8745 30.1946 18.3946C30.4613 17.9148 31.1192 17.0796 31.6705 16.5287C32.2218 15.9601 33.1464 15.2848 33.8044 14.9649C34.4268 14.6451 35.387 14.2897 35.9205 14.183C36.454 14.0586 36.9163 13.9342 36.9519 13.8987C36.9697 13.8632 36.7918 13.5077 36.5429 13.099C36.3117 12.6725 35.9561 11.8906 35.7782 11.3575C35.5826 10.8244 35.3337 9.74039 35.2092 8.95849C35.0314 7.83895 35.0314 7.27029 35.2092 6.29291C35.3159 5.59986 35.6182 4.65802 35.8672 4.16044C36.1161 3.68064 36.5429 3.00536 36.7918 2.66772C37.0408 2.34785 37.6098 1.81473 38.0544 1.47709Z" fill="black"/>
<path d="M34.7113 22.0909C34.9425 21.8777 35.2448 21.6644 35.387 21.6111C35.5293 21.5578 35.8138 21.5578 36.0094 21.6111C36.205 21.6467 36.5429 21.8954 36.7741 22.1265C37.1297 22.5174 37.1653 22.7129 37.1653 24.9164C37.1653 26.7113 37.1119 27.351 36.8985 27.6709C36.7563 27.8841 36.4362 28.1329 36.1872 28.2395C35.8849 28.3639 35.5826 28.3639 35.2626 28.2218C34.978 28.1151 34.6757 27.9019 34.5513 27.742C34.409 27.5406 34.3319 26.6106 34.3201 24.952C34.3201 22.5885 34.3379 22.4463 34.7113 22.0909Z" fill="black"/>
<path d="M48.1193 22.2331C48.2793 22.0021 48.5816 21.7533 48.795 21.6644C48.9906 21.5756 49.3285 21.5578 49.5241 21.6111C49.7197 21.6644 50.0575 21.8777 50.2887 22.0909C50.6621 22.4463 50.6977 22.5885 50.6977 24.952C50.6977 27.4043 50.6799 27.4399 50.2176 27.8841C49.9153 28.1862 49.5774 28.3284 49.204 28.3106C48.8305 28.2928 48.4927 28.1329 48.2259 27.813C47.8703 27.3865 47.8347 27.1733 47.8347 25.0053C47.8347 23.1216 47.8881 22.553 48.1193 22.2331Z" fill="black"/>
<path d="M9.7092 47.7516C10.1893 47.485 11.0251 47.1474 11.5586 47.0052C12.0921 46.8631 12.8745 46.7387 13.2835 46.7387C13.7103 46.7209 14.4749 46.8097 14.9728 46.9164C15.4885 47.023 16.2887 47.3073 16.751 47.5383C17.2312 47.7694 17.9425 48.2669 18.3337 48.6401C18.7427 48.9955 19.2939 49.6175 19.5607 50.0084C19.8274 50.3994 20.2186 51.2168 20.432 51.8388C20.681 52.5852 20.8054 53.3849 20.8054 54.3267C20.8054 55.1264 20.6632 56.2814 20.4498 57.1167C20.2542 57.8986 19.8096 59.0181 18.9027 60.6708L19.8985 60.884C20.4498 61.0084 21.3745 61.3461 21.9613 61.6304C22.5481 61.9147 23.4195 62.5011 23.9174 62.9454C24.3975 63.3719 25.0554 64.1183 25.3755 64.5981C25.6956 65.0779 26.1046 65.9486 26.318 66.535C26.6381 67.4591 26.6736 68.0278 26.6736 70.8533C26.6736 72.6481 26.6025 74.2475 26.4958 74.4429C26.3891 74.6384 26.0335 74.8694 25.6956 74.9761C25.3222 75.0827 24.9487 75.0827 24.7531 74.9938C24.5931 74.905 24.3264 74.6917 24.1841 74.5318C23.9707 74.283 23.8996 73.4833 23.8285 70.8178C23.7395 67.5657 23.7218 67.388 23.2772 66.6239C23.0105 66.1796 22.4236 65.4866 21.9435 65.0601C21.4634 64.6336 20.6276 64.136 20.0941 63.9406C19.1695 63.6029 18.7605 63.5851 7.20188 63.6918L6.22385 64.1716C5.63703 64.4559 4.90795 65.0068 4.39226 65.5932C3.92992 66.1086 3.43201 66.8905 3.27197 67.3347C3.09414 67.9034 3.02301 68.9696 3.02301 71.0665C3.02301 73.3945 2.96967 74.0875 2.75628 74.4074C2.61402 74.6207 2.3295 74.8694 2.13389 74.9761C1.89679 75.0945 1.57078 75.0945 1.15586 74.9761C0.693515 74.8517 0.462343 74.6384 0.266736 74.1764C0.0711297 73.7321 0 72.8969 0 71.2087C0 69.8048 0.106695 68.3299 0.266736 67.6013C0.408996 66.9082 0.746862 65.9131 1.0136 65.38C1.28033 64.8468 1.97385 63.9228 2.56067 63.3186C3.21862 62.6788 4.10774 62.0213 4.80126 61.6837C5.44142 61.3638 6.41946 61.0084 7.98431 60.6708L7.46862 59.7822C7.20188 59.3024 6.7751 58.3428 6.54393 57.6498C6.20607 56.6369 6.13494 56.0327 6.13494 54.3622C6.13494 52.4252 6.1705 52.2653 6.72176 51.128C7.02406 50.4527 7.64644 49.5464 8.07322 49.0844C8.5 48.6046 9.24686 48.0181 9.7092 47.7516Z" fill="black"/>
<path d="M68.1423 47.5739C68.569 47.3606 69.2981 47.0941 69.796 46.9697C70.2762 46.8453 71.0408 46.7387 71.4854 46.7387C71.9299 46.7209 72.7479 46.8453 73.2992 46.9875C73.8682 47.1296 74.6329 47.3962 74.9885 47.5917C75.3619 47.7694 76.091 48.3202 76.6245 48.7823C77.2824 49.3865 77.7626 50.0618 78.2249 50.9858C78.8473 52.2831 78.8651 52.3364 78.8473 54.3622C78.8473 56.0682 78.7584 56.6369 78.3672 57.8275C78.1004 58.6094 77.6914 59.5512 77.4425 59.9244C77.1935 60.2798 77.0157 60.5997 77.0335 60.6352C77.069 60.6708 77.5314 60.7952 78.0649 60.9018C78.5983 61.0262 79.5586 61.3638 80.1987 61.6837C80.8389 62.0036 81.7458 62.6433 82.2437 63.0876C82.7239 63.5496 83.3996 64.3493 83.7019 64.8646C84.022 65.3977 84.4487 66.464 84.6444 67.2459C84.9111 68.3299 85 69.2362 85 70.9777C85 72.2394 84.9111 73.59 84.8222 73.9631C84.6799 74.4785 84.5021 74.674 84.022 74.8872C83.6841 75.0294 83.2395 75.1182 83.0439 75.0649C82.8483 75.0116 82.5282 74.7628 82.3326 74.4963C81.9948 74.0342 81.9592 73.7499 81.977 71.0665C81.977 68.9518 81.9059 67.9034 81.728 67.3347C81.568 66.8905 81.0701 66.1086 80.6077 65.5932C80.092 65.0068 79.363 64.4559 77.7981 63.6918L71.841 63.6385C66.2573 63.5851 65.8305 63.6029 64.9059 63.9406C64.3368 64.136 63.5366 64.6514 62.9676 65.1489C62.4519 65.611 61.8473 66.3218 61.6339 66.7128C61.3138 67.3347 61.2605 67.8323 61.1716 70.8178C61.0826 73.9098 61.0471 74.2652 60.727 74.6029C60.5314 74.8161 60.2291 75.0294 60.0513 75.0649C59.8912 75.1182 59.4644 75.0294 59.1266 74.8872C58.7531 74.7273 58.4686 74.4607 58.3975 74.2297C58.3441 73.9987 58.3264 72.2572 58.4153 66.8905L59.0199 65.6465C59.4111 64.8468 60.0157 64.0294 60.7092 63.3186C61.3672 62.6788 62.2563 62.0213 62.9498 61.6837C63.59 61.3638 64.5502 61.0084 66.0973 60.6708L65.5105 59.6045C65.1904 59.0181 64.7458 57.8986 64.5502 57.1167C64.3368 56.2814 64.1946 55.1264 64.1946 54.3267C64.1946 53.3849 64.319 52.5852 64.568 51.8388C64.7814 51.2168 65.1726 50.3994 65.4393 50.0084C65.7061 49.6175 66.2573 48.9955 66.6663 48.6401C67.0575 48.2669 67.7333 47.7871 68.1423 47.5739Z" fill="black"/>
<path d="M5.33473 69.2006C5.42364 68.9518 5.76151 68.6497 6.06381 68.5076C6.49059 68.3121 6.72176 68.3121 7.16632 68.472C7.52197 68.5964 7.7887 68.863 7.94875 69.2539C8.091 69.5916 8.17992 70.569 8.17992 71.7418C8.17992 73.199 8.10879 73.7854 7.85983 74.2652C7.68201 74.6207 7.34414 74.9583 7.05962 75.0649C6.68619 75.2071 6.43724 75.1715 6.08159 74.9761C5.81485 74.8161 5.49477 74.4963 5.38808 74.2652C5.24582 73.9809 5.1569 73.0391 5.1569 71.7418C5.1569 70.5867 5.22803 69.4494 5.33473 69.2006Z" fill="black"/>
<path d="M18.9739 68.9874C19.0628 68.8275 19.3473 68.5964 19.614 68.4898C19.8985 68.3654 20.2898 68.3121 20.5031 68.3476C20.7165 68.3832 21.0544 68.5787 21.25 68.7741C21.5701 69.1118 21.6056 69.4316 21.6946 74.0875L21.1789 74.6207C20.8944 74.905 20.4676 75.1538 20.2364 75.1538C20.0052 75.1715 19.614 74.9583 19.3295 74.7095C18.8494 74.2652 18.8494 74.2652 18.8494 71.7774C18.8494 70.409 18.9027 69.1473 18.9739 68.9874Z" fill="black"/>
<path d="M63.7144 68.7919C63.8923 68.5787 64.1946 68.401 64.3902 68.3654C64.568 68.3299 64.977 68.3654 65.2615 68.4365C65.5638 68.5254 65.8661 68.7386 65.9728 68.9341C66.0617 69.1295 66.1506 70.409 66.1506 71.7774V71.7775C66.1506 74.2652 66.1506 74.2652 65.6527 74.7095C65.386 74.9583 64.9948 75.1715 64.7636 75.1538C64.5502 75.1538 64.1234 74.905 63.3054 74.0875L63.341 71.6174C63.3944 69.5383 63.4477 69.094 63.7144 68.7919Z" fill="black"/>
<path d="M76.9801 69.4317C77.1224 68.9519 77.3358 68.6853 77.727 68.5076C78.1004 68.3476 78.4383 68.3121 78.7939 68.4187C79.114 68.5254 79.4163 68.7919 79.5941 69.1651C79.8253 69.6271 79.8609 70.178 79.8253 72.0084C79.7542 74.2475 79.7364 74.3008 79.2563 74.7273C78.9895 74.9583 78.5805 75.1538 78.3316 75.1538C78.0826 75.1538 77.6736 74.9583 77.3891 74.7273C76.9268 74.3186 76.909 74.2297 76.8557 72.1861C76.8201 71.0132 76.8734 69.8048 76.9801 69.4317Z" fill="black"/>
<path d="M23.455 80.3783C23.4372 80.1651 23.6151 79.7919 23.8285 79.5253C24.0952 79.2055 24.3797 79.0633 24.7709 79.0633C25.1088 79.0633 26.1224 79.4365 27.2071 79.9696C28.2385 80.4849 30.1056 81.2313 31.386 81.6578C32.6485 82.0843 34.4979 82.5818 35.4759 82.7773C36.454 82.9728 38.0366 83.2216 38.9791 83.3104C39.9393 83.4171 41.522 83.5059 42.5 83.5059C43.478 83.5059 45.0607 83.4171 46.0031 83.3104C46.9634 83.2216 48.546 82.9728 49.5241 82.7773C50.5021 82.5818 52.387 82.0665 53.7029 81.6222C55.0188 81.178 56.9038 80.4316 57.8818 79.934C58.931 79.4187 59.8912 79.0633 60.2291 79.0633C60.6559 79.0633 60.9048 79.1877 61.1716 79.5609C61.3849 79.8274 61.545 80.2006 61.5272 80.3961C61.5272 80.5916 61.4027 80.9292 61.2605 81.1602C61.1182 81.3735 60.2113 81.9421 59.251 82.4219C58.3086 82.9017 56.7259 83.577 55.7479 83.9502C54.7699 84.3056 53.2406 84.8032 52.3692 85.0342C51.4801 85.2652 49.5952 85.6562 48.137 85.9049C46.0565 86.2604 44.9006 86.3492 42.5 86.3492C40.0816 86.3492 38.9613 86.2604 36.8452 85.9049C35.4048 85.6562 33.5021 85.2652 32.6308 85.0342C31.7416 84.8032 30.2301 84.3056 29.2521 83.9502C28.2741 83.577 26.6914 82.9017 25.7312 82.4219C24.7887 81.9421 23.8818 81.3735 23.7395 81.1602C23.5973 80.9292 23.455 80.5738 23.455 80.3783Z" fill="black"/>
<path d="M34.2312 18.0747C34.6757 17.7548 35.4226 17.3461 35.8849 17.1862C36.6318 16.9018 37.3965 16.8841 42.7667 16.9196C48.5994 16.9551 48.8483 16.9729 49.613 17.3461C50.0575 17.5593 50.7688 18.0391 51.1956 18.4123C51.6046 18.7855 52.1736 19.5319 52.4404 20.065C52.8849 20.9891 52.9027 21.2201 52.9916 24.3832L52.9919 24.3941C53.0806 27.6886 53.0815 27.7248 53.9697 28.4171H49.7019L50.182 27.9373L50.1824 27.9369C50.6621 27.4397 50.6799 27.4213 50.6799 24.9519C50.6977 22.4995 50.6799 22.464 50.2176 22.0197C49.9153 21.7176 49.5774 21.5755 49.204 21.5932C48.8306 21.611 48.4927 21.771 48.2259 22.0908C47.8703 22.5173 47.8347 22.7128 47.8347 27.3509L48.9017 28.4171L36.0805 28.3994L37.1653 27.3509V24.9519C37.1653 22.7128 37.1297 22.5173 36.7563 22.0908C36.5073 21.771 36.1695 21.611 35.796 21.5932C35.4226 21.5755 35.0847 21.7176 34.7824 22.0197C34.3201 22.464 34.3023 22.4995 34.3023 24.9519C34.3023 27.4398 34.3023 27.4398 35.2981 28.4349H31.0303L32.0084 27.5286V24.7742C32.0084 23.2637 32.0973 21.6466 32.1862 21.1845C32.2929 20.7047 32.613 19.9584 32.8975 19.4963C33.1998 19.0165 33.7866 18.3768 34.2312 18.0747Z" fill="#8AC9FE"/>
<path d="M5.61925 64.4913C5.99268 64.2603 6.63285 63.9582 7.02406 63.8516C7.52197 63.6917 9.47804 63.6206 13.4791 63.6206C18.7427 63.6028 19.2762 63.6384 20.1475 63.9404C20.6454 64.1359 21.4634 64.6335 21.9435 65.06C22.4236 65.4865 23.0105 66.1795 23.2772 66.6238C23.7218 67.3879 23.7395 67.5479 23.9174 74.3007L24.8954 75.1537L20.681 75.1359L21.6946 74.0874L21.659 71.5996C21.6057 69.396 21.5701 69.0761 21.25 68.774C21.0544 68.5786 20.7343 68.4186 20.5387 68.4009C20.3431 68.3831 20.0408 68.3653 19.8808 68.3831C19.7029 68.3831 19.4006 68.5608 19.205 68.7563C18.8849 69.0761 18.8494 69.3427 18.8494 74.2651L19.8274 75.1714L13.4257 75.1537C9.19352 75.1537 7.13076 75.0826 7.34415 74.976C7.50419 74.8693 7.77092 74.5139 7.91318 74.1763C8.09101 73.7498 8.17992 72.9501 8.17992 71.6884C8.17992 70.5511 8.09101 69.5915 7.94875 69.2361C7.80649 68.8807 7.52197 68.5963 7.1841 68.4719C6.77511 68.312 6.54394 68.312 6.09938 68.5075C5.76151 68.6496 5.42364 68.9695 5.31695 69.2361C5.21025 69.5382 5.15691 70.6755 5.19247 72.0083C5.24582 74.2474 5.2636 74.3007 6.22385 75.1537L2.04498 75.1004L3.02302 74.0874V71.102C3.02302 68.9517 3.09415 67.9211 3.28975 67.3346C3.43201 66.8904 3.85879 66.1795 4.23222 65.7353C4.60565 65.291 5.22804 64.7401 5.61925 64.4913Z" fill="#8AC9FE"/>
<path d="M62.9676 65.1488C63.5011 64.669 64.3368 64.1359 64.817 63.9582C65.6349 63.6384 66.1684 63.6206 77.7981 63.6917L78.7762 64.1715C79.363 64.4558 80.0921 65.0067 80.6077 65.5931C81.0701 66.1085 81.568 66.8904 81.728 67.3346C81.9059 67.9033 81.977 68.9695 81.977 74.0874L82.955 75.1004L78.7762 75.1537L79.2741 74.7272C79.7364 74.3007 79.7542 74.2474 79.8253 72.0083C79.8609 70.1779 79.8253 69.627 79.5941 69.1472C79.4341 68.8274 79.0962 68.5075 78.8295 68.4186C78.4916 68.312 78.1538 68.3475 77.7626 68.5075C77.318 68.6852 77.1224 68.934 76.9801 69.4138C76.8734 69.8047 76.8201 71.0131 76.8557 72.186C76.909 74.2296 76.9268 74.3184 77.887 75.1537L65.1726 75.1714L66.1506 74.2651V71.6884C66.1506 69.3427 66.1151 69.0761 65.795 68.7563C65.5994 68.5608 65.2971 68.3831 65.137 68.3831C64.9592 68.3653 64.6569 68.3831 64.4613 68.4009C64.2657 68.4186 63.9456 68.5786 63.75 68.774C63.4299 69.0761 63.3944 69.396 63.3054 74.0874L64.2835 75.1181L60.1046 75.1537L61.0826 74.3007L61.1716 70.8532C61.2605 67.8322 61.3138 67.3346 61.6339 66.7127C61.8473 66.3217 62.4519 65.6109 62.9676 65.1488Z" fill="#8AC9FE"/>
<path d="M20.023 17.8971C20.7876 17.3462 22.1569 16.4577 23.0282 15.9068C24.1307 15.2493 24.8243 14.9294 25.251 14.9116C25.6778 14.9116 25.9979 15.036 26.2824 15.3026C26.5669 15.6047 26.6736 15.8712 26.6381 16.3333C26.6025 16.8131 26.4425 17.0441 25.8734 17.4528C25.4822 17.7194 24.3263 18.5013 23.295 19.1588C22.2636 19.8163 20.6809 20.9891 19.7563 21.7711C18.8316 22.5352 17.4623 23.8502 16.7332 24.6677C15.9864 25.4851 14.8483 26.8712 14.1904 27.7775C13.5324 28.666 12.5544 30.1587 12.0209 31.0828C11.5052 32.0069 10.6872 33.6418 10.2249 34.7258C9.78032 35.8098 9.17572 37.4447 8.8912 38.3687C8.62446 39.2928 8.26881 40.6967 8.12655 41.4786C7.96651 42.2605 7.80647 43.2023 7.75312 43.5755C7.69978 43.9309 7.48639 44.393 7.29078 44.5884C7.07739 44.8017 6.70396 44.9438 6.31275 44.9438C5.92153 44.9438 5.5481 44.8017 5.33471 44.5884C5.08576 44.3396 4.97906 44.002 4.97906 43.4333C4.97906 42.9891 5.13911 41.8162 5.3525 40.8211C5.5481 39.8082 6.08158 37.8712 6.54392 36.5028C6.98848 35.1345 7.89538 32.931 8.55333 31.6159C9.21128 30.3009 10.2249 28.4883 10.8117 27.6176C11.3985 26.7468 12.3943 25.3785 13.0345 24.5966C13.6569 23.8147 15.1684 22.2153 16.3954 21.0425C17.6046 19.8696 19.2406 18.448 20.023 17.8971Z" fill="black"/>
<path d="M58.2908 16.2622C58.273 15.9068 58.3975 15.6047 58.682 15.3203C58.9487 15.0538 59.3044 14.9116 59.6956 14.9116C60.0868 14.9116 60.7981 15.2315 61.9184 15.9068C62.8253 16.4399 64.2123 17.3462 64.977 17.8971C65.7594 18.448 67.3954 19.8696 68.6046 21.0425C69.8316 22.2153 71.3431 23.8147 71.9655 24.5966C72.6056 25.3785 73.6014 26.7468 74.1883 27.6176C74.7751 28.4883 75.7887 30.3009 76.4466 31.6159C77.1046 32.931 78.0115 35.1345 78.456 36.5028C78.9184 37.8712 79.4519 39.8082 79.6475 40.8211C79.8609 41.8162 80.0209 42.9891 80.0209 43.4333C80.0209 44.002 79.9142 44.3396 79.6653 44.5884C79.4697 44.7839 79.0784 44.9438 78.7761 44.9438C78.4916 44.9438 78.1004 44.8728 77.9404 44.7839C77.7625 44.7128 77.5491 44.4818 77.478 44.3041C77.3891 44.1086 77.2113 43.2912 77.069 42.456C76.9268 41.6207 76.6067 40.1813 76.3577 39.2573C76.1088 38.3332 75.6464 36.8938 75.3263 36.0586C75.0063 35.2234 74.3127 33.7129 73.8148 32.6822C73.2991 31.6515 72.3745 30.0521 71.7521 29.1281C71.1297 28.204 69.9916 26.6757 69.227 25.7517C68.4445 24.8276 67.2176 23.5126 66.4885 22.8551C65.7594 22.1798 64.4435 21.0958 63.5722 20.4383C62.7008 19.763 61.2427 18.8034 60.3713 18.2703C59.5 17.7549 58.682 17.204 58.5575 17.0441C58.433 16.9019 58.3263 16.5465 58.2908 16.2622Z" fill="black"/>
<path d="M23.6862 32.6822C25.1266 30.1943 26.0512 28.7904 26.3358 28.6305C26.5669 28.5061 26.9581 28.4705 27.2071 28.5239C27.4561 28.5772 28.1673 28.9326 28.8075 29.3058C29.4477 29.6789 30.1412 30.1765 30.3546 30.4075C30.568 30.6208 30.8703 31.1184 31.0125 31.4738C31.1726 31.8469 31.2971 32.309 31.2971 32.5045C31.2971 32.7888 31.4749 32.8954 32.1506 33.0198C32.613 33.1264 34.0178 33.2331 35.2981 33.2864C36.7029 33.3397 38.001 33.4818 38.5878 33.6595C39.1213 33.8195 40.2238 34.3171 42.5 35.5255L43.9759 34.7435C44.7761 34.3171 45.8786 33.8195 46.4121 33.6595C46.9989 33.4818 48.2971 33.3397 49.7019 33.2864C50.9644 33.2331 52.387 33.1264 52.8671 33.0198C53.5606 32.8954 53.7029 32.7888 53.7029 32.4511C53.7029 32.2379 53.863 31.7403 54.0408 31.3494C54.2186 30.9584 54.5565 30.4786 54.7876 30.2654C55.0188 30.0699 55.7301 29.5901 56.3703 29.1991C57.046 28.8082 57.7573 28.5239 58.0952 28.5061C58.4508 28.5061 58.8065 28.6483 59.0021 28.8615C59.1799 29.057 61.2249 32.4867 63.5188 36.5028C65.8305 40.519 67.8044 43.9665 67.9111 44.1975C68.0178 44.4107 68.1067 44.7306 68.1067 44.9083C68.1245 45.0682 67.9644 45.4059 67.7866 45.6547C67.591 45.9035 66.8086 46.4366 66.0439 46.8453C64.9592 47.4317 64.4435 47.6094 63.8033 47.6094C63.3232 47.6094 62.7897 47.5383 62.5941 47.4317C62.2918 47.2896 62.1673 47.3429 61.8117 47.8404C61.5805 48.1425 60.9937 49.2621 60.478 50.3105C59.7134 51.9454 59.3755 52.4252 58.2019 53.6159C57.2238 54.5755 56.2458 55.3218 53.0805 57.17L52.9738 59.178C52.8849 60.5997 52.7249 61.5771 52.4404 62.4478C52.2092 63.1231 51.5868 64.4559 51.0711 65.38C50.5554 66.304 50.0575 67.3525 49.9508 67.6901C49.7552 68.2766 49.7908 68.3476 50.4665 69.0229C50.8577 69.4316 51.2489 70.0358 51.3734 70.4446C51.4801 70.8355 51.569 71.8129 51.569 72.6126C51.569 73.9098 51.5157 74.1408 50.7155 75.0649L42.0199 75.1182C37.2542 75.1538 33.0753 75.1182 32.773 75.0649C32.4529 75.0116 32.0261 74.8161 31.8305 74.6206C31.5282 74.3186 31.4749 74.0342 31.4749 72.3993C31.4749 70.8888 31.546 70.3913 31.8305 69.8226C32.0261 69.4316 32.4173 68.9518 32.7197 68.7564C33.1464 68.472 33.2353 68.3121 33.1464 68.01C33.0753 67.779 32.7908 67.0859 32.5063 66.4462C32.2217 65.8065 31.1726 64.0472 30.1768 62.5367C28.9676 60.7063 27.7939 58.5738 26.6381 56.1393C25.4289 53.6336 24.8954 52.3008 24.8954 51.8744C24.8954 51.5189 24.6109 50.6304 24.2552 49.8307C23.8996 49.0488 23.4194 48.1425 23.1883 47.8404C22.8326 47.3429 22.7081 47.2896 22.4058 47.4317C22.2102 47.5383 21.6768 47.6094 21.2144 47.6094C20.5565 47.6094 20.0408 47.4317 18.9561 46.8453C18.1914 46.4366 17.409 45.9035 17.2134 45.6547C17.0356 45.4059 16.8755 45.0505 16.8755 44.855C16.8933 44.6595 17.9247 42.7048 19.1872 40.5012C20.4498 38.2977 22.477 34.7791 23.6862 32.6822Z" fill="black"/>
<path d="M39.5837 3.92944C39.9571 3.60957 40.6329 3.23639 41.0774 3.09422C41.522 2.96983 42.1088 2.84544 42.4111 2.84544C42.6956 2.82767 43.3536 2.93429 43.8337 3.09422C44.3316 3.23639 45.0429 3.60957 45.4163 3.92944C45.7898 4.24931 46.2699 4.83574 46.4655 5.22669C46.6611 5.61764 46.8923 6.25738 46.9634 6.64833C47.0345 7.03928 47.0167 7.91004 46.91 8.60309C46.8211 9.27837 46.5011 10.3624 46.2165 11.0021C45.9142 11.6419 45.4697 12.3882 45.2029 12.6548C44.9362 12.9391 44.4205 13.3123 44.0649 13.5078C43.6559 13.7032 43.0157 13.8454 42.5 13.8454C41.9843 13.8454 41.3264 13.7032 40.9529 13.5078C40.5795 13.3301 39.9927 12.868 39.6548 12.4771C39.317 12.0861 38.8546 11.3042 38.6234 10.7178C38.3923 10.1491 38.1433 9.15398 38.0544 8.51424C37.9655 7.8745 37.9655 7.03928 38.0366 6.64833C38.1077 6.25738 38.3389 5.61764 38.5345 5.22669C38.7301 4.83574 39.2103 4.24931 39.5837 3.92944Z" fill="#F6DCCD"/>
<path d="M11.2918 50.1329C11.5941 49.9907 12.0565 49.7952 12.3588 49.7241C12.6611 49.6353 13.319 49.6175 13.8347 49.653C14.3326 49.7064 15.0617 49.8841 15.4352 50.0795C15.7908 50.2572 16.3776 50.7193 16.7333 51.0925C17.0711 51.4834 17.4979 52.1942 17.6935 52.674C17.9603 53.3671 17.9958 53.8291 17.9069 54.8065C17.8536 55.4996 17.6402 56.5302 17.4268 57.1167C17.2312 57.7031 16.8044 58.5383 16.4843 58.9826C16.1465 59.4446 15.5596 59.9422 15.1151 60.1732C14.5994 60.4398 13.9948 60.5819 13.4257 60.5819C12.8567 60.5819 12.2521 60.4398 11.7364 60.1732C11.2918 59.9422 10.705 59.4446 10.3672 58.9826C10.0471 58.5383 9.60252 57.6676 9.38913 57.0278C9.08683 56.1748 8.98013 55.4818 8.98013 54.3622C8.98013 53.2249 9.06905 52.6918 9.318 52.2298C9.49582 51.8921 9.88704 51.3412 10.2071 51.0214C10.5094 50.6837 10.9895 50.2928 11.2918 50.1329Z" fill="#F6DCCD"/>
<path d="M69.4048 50.1329C69.6716 49.9907 70.1161 49.7952 70.3829 49.7241C70.6496 49.6353 71.3253 49.6175 71.8766 49.653C72.4456 49.7064 73.2103 49.9018 73.5659 50.0795C73.9393 50.275 74.4906 50.6837 74.7929 51.0214C75.113 51.3412 75.5042 51.8921 75.6642 52.2298C75.8421 52.5674 76.0199 53.2605 76.0732 53.7403C76.1266 54.2556 76.0377 55.1797 75.8598 55.9616C75.6998 56.6902 75.3086 57.7742 74.9707 58.3606C74.6151 59.0181 74.0994 59.6223 73.637 59.96C72.9613 60.4398 72.7301 60.4931 71.5921 60.4931C70.5073 60.4931 70.1872 60.422 69.6004 60.031C69.227 59.7823 68.6402 59.1781 68.3201 58.6982C68 58.2184 67.6088 57.4365 67.4665 56.939C67.3243 56.4592 67.1465 55.5351 67.0931 54.8954C67.022 54.1312 67.0753 53.4382 67.2354 52.8695C67.3776 52.3364 67.7688 51.6789 68.1956 51.1991C68.5868 50.7548 69.1381 50.275 69.4048 50.1329Z" fill="#F6DCCD"/>
<path d="M22.4236 40.59C23.6151 38.5286 25.2155 35.7564 25.9979 34.4237V34.4059C26.7803 33.0731 27.5094 31.9713 27.6161 31.9713C27.7406 31.9535 27.9718 32.1135 28.1496 32.3267C28.3985 32.6111 28.4163 32.7532 28.2563 33.0731C28.1318 33.3041 26.6381 35.9164 24.931 38.9018C23.2239 41.8873 21.7123 44.4462 21.5701 44.5884C21.3745 44.8194 21.2856 44.8194 20.272 44.3218L22.4236 40.59Z" fill="#837683"/>
<path d="M56.6015 32.8243C56.5837 32.7532 56.6904 32.54 56.8504 32.3445C57.0105 32.1313 57.2594 32.0069 57.4017 32.0246C57.5262 32.0602 59.2333 34.8324 64.728 44.3396L64.2301 44.5706C63.9634 44.7128 63.6789 44.7839 63.5722 44.7306C63.4833 44.695 61.8829 42.0294 60.0335 38.813C58.1841 35.5965 56.637 32.9132 56.6015 32.8243Z" fill="#837683"/>
<path d="M34.2845 71.6529C34.2667 71.3686 34.3201 71.0843 34.409 71.031C34.4979 70.9599 37.6454 70.9066 41.4153 70.9066C46.7144 70.9066 48.3326 70.9599 48.5105 71.1198C48.6349 71.2442 48.7239 71.5285 48.7239 72.1505H34.3201L34.2845 71.6529Z" fill="#837683"/>
<path d="M27.4738 40.2346C28.8253 37.8889 29.9989 35.863 30.1056 35.7564V35.7386C30.1946 35.632 30.3368 35.5254 30.4257 35.5254C30.5146 35.5254 30.7992 35.6142 31.0659 35.7209C31.3504 35.8275 32.8797 35.9874 34.4979 36.0763C36.1161 36.1474 37.4498 36.2718 37.4676 36.3251C37.5031 36.3784 37.4142 36.5739 37.2897 36.7516C37.1119 37.0181 36.8807 37.0892 36.0094 37.0714C35.1559 37.0537 34.7824 37.1425 34.0889 37.5335C33.5377 37.8533 33.0931 38.2976 32.2751 39.7015L32.0973 50.3105L31.5638 49.5286C31.2615 49.1199 30.6925 48.6045 30.319 48.409C29.8745 48.1958 29.2521 48.0536 28.6297 48.0536C28.0962 48.0536 27.4561 48.1247 27.2071 48.1958C26.8159 48.338 26.727 48.2846 26.4958 47.7515C26.3535 47.4317 25.8734 46.6853 25.4466 46.0989C24.8598 45.2992 24.7176 44.9615 24.842 44.7661C24.931 44.6239 26.1224 42.5803 27.4738 40.2346Z" fill="#E2B8AA"/>
<path d="M50.8577 36.0585C51.8891 36.0585 53.0805 35.9519 53.5251 35.8275C53.9697 35.6853 54.432 35.5787 54.5387 35.5609C54.6632 35.5609 54.9477 35.8453 55.1789 36.2007C55.41 36.5739 56.6548 38.7063 60.318 45.0504L59.6067 46.0278C59.2155 46.5609 58.5397 47.7693 58.113 48.6934C57.5795 49.884 57.046 50.6837 56.3703 51.4123C55.8368 51.9809 54.8943 52.7628 54.2897 53.1538C53.6674 53.527 53.1339 53.8468 53.0805 53.8468C53.0272 53.8468 52.9916 51.661 52.9916 48.9955C52.9916 46.0456 52.9205 43.8775 52.796 43.4511C52.6715 43.0246 52.2981 42.4559 51.8535 42.0116C51.3201 41.4785 50.8755 41.2475 50.182 41.0876C49.6841 40.9632 49.1506 40.9099 49.0261 40.9632C48.8839 41.0343 48.7416 40.7322 48.5816 40.0391C48.4571 39.4705 48.1548 38.7419 47.9236 38.422C47.6747 38.1199 47.1056 37.6579 45.7897 37.0003L46.4655 36.716C46.8211 36.5561 47.5502 36.3428 48.0659 36.254C48.5638 36.1474 49.8264 36.0585 50.8577 36.0585Z" fill="#E2B8AA"/>
<path d="M39.6192 45.5658C39.6015 38.4753 39.6015 38.2088 39.9393 38.031C40.1172 37.9244 40.3305 37.8356 40.4195 37.8356C40.4906 37.8356 40.704 37.9067 40.8996 38.0133C41.2552 38.191 41.2552 38.3687 41.2552 45.4769C41.2552 50.9502 41.3086 52.8695 41.4864 53.2071C41.5931 53.4559 41.8776 53.7224 42.1088 53.8291C42.3222 53.9179 42.66 54.0068 42.8556 54.0068C43.069 54.0068 43.4247 53.8113 44.1004 53.1182V46.7742C44.0826 41.7984 44.136 40.359 44.3138 40.1813C44.4383 40.0569 44.7939 39.9858 45.6119 40.0569L45.7897 53.1538L46.2877 53.5803C46.5544 53.8113 46.9634 54.0068 47.2123 54.0068C47.4613 54.0068 47.8703 53.8113 48.6349 53.1538L48.8128 43.9664L49.3107 43.9309C49.6485 43.8953 49.8441 43.9842 49.9686 44.233C50.0753 44.464 50.1287 47.5561 50.0575 60.8484L49.5596 62.0035C49.2929 62.6432 48.7061 63.7806 48.2793 64.5447C47.8347 65.2911 47.3368 66.3928 46.8567 68.0633L36.0628 67.9566L35.6715 66.7127C35.4582 66.0197 34.978 64.9179 34.5868 64.2248C34.2134 63.5318 33.2531 62.0213 32.4885 60.8484C31.6883 59.64 30.3368 57.2055 29.3944 55.2507C28.2207 52.8161 27.7406 51.6611 27.8117 51.3945C27.8651 51.1635 28.0607 50.9502 28.2385 50.8969C28.3985 50.8436 28.6831 50.8436 28.8609 50.8969C29.0209 50.9502 29.91 52.283 30.7992 53.8824C31.7061 55.464 32.5952 56.9034 32.7552 57.0811C32.9331 57.241 33.2887 57.3832 33.5732 57.3832C33.84 57.4009 34.2667 57.241 35.0314 56.6723V48.7645C35.0314 43.9131 35.1025 40.6789 35.2092 40.4123C35.3515 40.0747 35.5115 39.968 35.9205 39.968C36.2762 39.968 36.5133 40.0865 36.6318 40.3234C36.7385 40.5367 36.8096 43.1134 36.8096 53.1182L37.2542 53.5625C37.5031 53.8113 37.9121 54.0068 38.1611 54.0068C38.4278 54.0068 38.819 53.7935 39.6548 52.9405L39.6192 45.5658Z" fill="#F6DCCD"/>
</svg>
