<svg width="70" height="84" viewBox="0 0 70 84" fill="none" xmlns="http://www.w3.org/2000/svg">
<path fill-rule="evenodd" clip-rule="evenodd" d="M35.3335 0.00197281C36.4265 -0.0144363 36.9485 0.0676091 37.8621 0.39579C38.4983 0.625517 39.3956 1.08497 39.885 1.42956C40.3744 1.75774 41.0432 2.41411 41.4021 2.85715C41.761 3.3166 42.2178 4.05501 42.4299 4.49806C42.642 4.95751 42.903 5.79437 43.0172 6.3851C43.1151 6.97583 43.164 7.89473 43.1151 8.43623C43.0661 8.97773 42.8541 9.86382 42.6583 10.4053C42.4625 10.9468 42.1036 11.6852 41.8589 12.0462C41.6142 12.4072 41.0922 13.0144 40.7006 13.4082C40.3091 13.802 39.5097 14.3599 38.9225 14.6553C38.3352 14.9506 37.3074 15.2952 36.6385 15.4101C35.6597 15.5906 35.1866 15.5906 34.2731 15.4429C33.6531 15.328 32.658 15.0163 32.0707 14.7373C31.3855 14.4091 30.6514 13.8676 29.9989 13.2277C29.3626 12.5713 28.8243 11.8329 28.498 11.1437C28.2207 10.553 27.9107 9.56846 27.7965 8.92851C27.6497 8.02601 27.6497 7.53374 27.7965 6.63124C27.9107 5.99128 28.2207 5.02315 28.4817 4.44883C28.759 3.89092 29.3626 3.02124 29.8194 2.51256C30.2925 2.00388 30.9451 1.44597 31.255 1.24906C31.565 1.05215 32.2991 0.691154 32.8864 0.445018C33.7184 0.100427 34.2404 0.0183819 35.3335 0.00197281ZM7.1108 10.9796C7.15974 10.9796 7.40445 11.0453 7.68178 11.1273C7.95911 11.2258 8.3017 11.4883 8.44852 11.718C8.61166 11.9478 8.74217 12.4072 8.74217 12.7354C8.74217 13.2769 8.62797 13.4574 7.97543 14.0153C7.55127 14.3763 6.68665 15.1968 6.05041 15.8203C5.29998 16.5587 4.69638 17.3792 4.30485 18.1176C3.97858 18.7411 3.55442 19.8241 3.37497 20.4969C3.14658 21.3174 2.90188 21.8589 2.62454 22.105C2.36352 22.3347 2.00462 22.466 1.64572 22.466C1.27051 22.466 0.895294 22.3183 0.585334 22.0558C0.308002 21.826 0.063297 21.4486 0.014356 21.1861C-0.034585 20.9399 0.0469834 20.3 0.177493 19.7585C0.324316 19.217 0.617962 18.3309 0.846353 17.7894C1.05843 17.2479 1.48259 16.411 1.77623 15.9352C2.05356 15.4429 2.62454 14.6553 3.03238 14.1794C3.44023 13.6871 4.20697 12.9159 4.74532 12.4565C5.28367 11.997 6.01779 11.4883 6.37669 11.3078C6.73559 11.1273 7.06186 10.9796 7.1108 10.9796ZM5.39787 39.5314C6.06673 39.5314 6.88241 39.6463 7.35551 39.8104C7.8286 39.9745 8.51378 40.4175 8.98687 40.8606C9.42734 41.2708 9.98201 41.9764 10.6182 43.2235L10.6998 51.1819C10.7814 58.9433 10.7977 59.1567 11.1403 59.8787C11.385 60.3709 11.9886 61.0437 13.0164 61.9462C13.8483 62.6682 14.7456 63.423 15.0229 63.6363C15.3492 63.8825 15.6429 63.9809 15.8712 63.9153C16.0833 63.8661 16.3117 63.6692 16.4096 63.4887C16.5075 63.3082 16.7522 61.3719 16.9969 59.1895C17.2253 56.9907 17.5026 54.8411 17.6331 54.3816C17.7636 53.9386 18.1552 53.2002 18.4977 52.7407C18.9382 52.15 19.4276 51.7562 20.227 51.346C21.2221 50.8373 21.4995 50.7716 22.5925 50.7716C23.5713 50.7716 24.0118 50.8537 24.7296 51.1983C25.219 51.428 25.9205 51.9039 26.2631 52.2649C26.622 52.6094 27.095 53.315 27.3234 53.8073C27.6987 54.6114 27.7476 54.9559 27.7965 57.0071C27.8292 58.648 27.7965 59.4356 27.6334 59.7802C27.5192 60.0428 27.2256 60.3545 26.9645 60.4694C26.7198 60.6007 26.3772 60.6991 26.1978 60.6991C26.0183 60.6991 25.6758 60.6007 25.4147 60.4694C25.17 60.3545 24.8764 60.0592 24.7622 59.813C24.648 59.5505 24.5664 58.6644 24.5664 57.4665C24.5664 56.2523 24.4849 55.3826 24.3543 55.12C24.2565 54.9067 23.8976 54.5457 23.5876 54.3324C23.1308 54.0206 22.8861 53.955 22.3641 54.037C21.9562 54.0863 21.5484 54.2996 21.2548 54.5785C21.01 54.8411 20.7653 55.1529 20.7327 55.2841C20.7001 55.4154 20.4717 57.3024 20.2433 59.4684C20.0149 61.6344 19.7865 63.6363 19.7376 63.8989C19.6723 64.1614 19.5092 64.6537 19.3461 64.9655C19.1829 65.2773 18.8403 65.7367 18.5793 65.9828C18.3346 66.229 17.7473 66.59 17.3068 66.7869C16.8011 67.0002 16.1486 67.1479 15.5939 67.1479C15.0392 67.1479 14.4193 67.033 13.9625 66.8197C13.5547 66.6392 12.3475 65.7203 11.2708 64.785C10.1615 63.8004 9.05213 62.6846 8.70954 62.1759C8.38327 61.6837 7.99174 60.8632 7.81229 60.3709C7.55127 59.5669 7.50233 58.6644 7.35551 43.765L6.81716 43.2891C6.393 42.8953 6.1483 42.8132 5.47944 42.8132C4.81058 42.8132 4.58218 42.8953 4.19066 43.2727C3.92964 43.5188 3.66862 43.9783 3.61968 44.2901C3.55442 44.6018 3.52179 49.4097 3.60336 65.0475L4.0112 66.1141C4.27222 66.7705 5.74045 69.1334 11.3524 77.5184V80.7182H21.1406V78.9952C21.1406 78.0435 21.2058 77.141 21.2874 76.9933C21.3689 76.8292 21.8094 76.1893 22.2825 75.5493C22.7556 74.9094 23.3592 73.9576 23.6202 73.4161C23.8976 72.8746 24.2728 72.3003 24.4522 72.1526C24.648 71.9886 25.0558 71.8573 25.3332 71.8573C25.6268 71.8573 26.0183 71.9393 26.1978 72.0214C26.3772 72.1198 26.6383 72.4152 26.7688 72.6777C26.8993 72.9403 27.0135 73.3177 27.0135 73.4982C27.0135 73.6787 26.8177 74.253 26.5893 74.7781C26.3609 75.2868 25.79 76.2713 24.4359 78.1748L24.3217 82.999L23.3429 84H9.15001L8.6606 83.5077C8.17119 82.999 8.17119 82.9826 8.00805 78.3389L4.97371 73.8264C3.2934 71.3486 1.74361 68.9529 1.51521 68.4934C1.28682 68.0504 0.944235 67.1151 0.340629 65.2116V43.3876L0.781098 42.4851C1.00949 41.9928 1.53153 41.2872 1.92306 40.9426C2.31458 40.5816 2.98344 40.1221 3.44023 39.9088C4.04383 39.6299 4.54956 39.5314 5.39787 39.5314ZM65.0243 39.5806C66.1989 39.6135 66.5415 39.7119 67.2919 40.1057C67.765 40.3847 68.3849 40.8606 68.6623 41.1723C68.9396 41.4841 69.3475 42.1569 70 43.5516V54.2996C70 64.2599 69.9837 65.1296 69.7064 66.1141C69.5269 66.7048 69.2006 67.6237 68.9559 68.1652C68.7112 68.7067 67.1125 71.2173 62.2999 78.3389L62.1694 82.999L61.1906 84H54.0942C47.634 83.9836 46.9651 83.9672 46.6551 83.7046C46.4757 83.557 46.231 83.2616 46.1331 83.0647C46.0026 82.8186 45.9373 81.834 45.921 78.1748L45.1869 77.1902C44.7791 76.6487 44.1591 75.615 43.8166 74.893C43.474 74.171 43.0498 73.1372 42.903 72.5957C42.642 71.726 42.6093 70.643 42.5604 63.4066C42.5115 56.4656 42.5441 55.0708 42.7562 54.3816C42.8867 53.9386 43.2782 53.2002 43.6045 52.7571C44.0123 52.2156 44.5833 51.7398 45.2848 51.3624C46.2473 50.8373 46.4594 50.7716 47.6503 50.7716C48.7107 50.7716 49.1185 50.8537 49.8526 51.1983C50.342 51.428 51.0272 51.9039 51.3861 52.2649C51.7287 52.6094 52.1365 53.1674 52.2997 53.4791C52.4628 53.7909 52.6749 54.3816 52.7728 54.7919C52.8706 55.2021 53.1317 57.3024 53.3601 59.4684C53.7353 63.1113 53.7842 63.423 54.1268 63.702C54.3389 63.8661 54.5999 63.9973 54.6978 63.9809C54.812 63.9809 55.5461 63.4394 56.3291 62.7667C57.1285 62.1103 57.9931 61.3555 58.2705 61.0929C58.5478 60.8304 58.9556 60.2889 59.5592 59.1403L59.6408 51.1819C59.7224 43.3547 59.7224 43.2071 60.0813 42.4522C60.2934 42.0092 60.7991 41.32 61.2232 40.9098C61.6637 40.4996 62.3652 40.0237 62.822 39.8432C63.4582 39.5971 63.9476 39.5478 65.0243 39.5806ZM26.4425 64.5553C26.7035 64.6045 27.1277 64.8506 27.3724 65.1296C27.6334 65.3921 27.8292 65.8023 27.8292 66.0321C27.8292 66.2618 27.7313 66.6392 27.6008 66.9017C27.4866 67.1479 27.1929 67.4433 26.9482 67.5581C26.7198 67.6566 26.3772 67.755 26.1978 67.755C26.0183 67.755 25.6758 67.6566 25.4474 67.5581C25.2027 67.4433 24.909 67.1479 24.7948 66.9017C24.6643 66.6392 24.5664 66.2782 24.5664 66.0813C24.5501 65.868 24.7133 65.4906 24.8927 65.2444C25.0885 64.9819 25.3984 64.7029 25.5942 64.6209C25.79 64.5553 26.1652 64.5224 26.4425 64.5553Z" fill="black"/>
<path d="M3.61968 44.29C3.66862 43.9619 3.92964 43.5188 4.20697 43.2727V43.2563C4.5985 42.8953 4.85952 42.8132 5.49575 42.8132C6.1483 42.8132 6.393 42.8953 7.35551 43.765L7.43708 51.6249C7.50233 58.6644 7.55127 59.5669 7.81229 60.3709C7.99174 60.8632 8.38327 61.6837 8.70955 62.1759C9.05213 62.6846 10.1615 63.8004 11.2708 64.785C12.3475 65.7203 13.5547 66.6392 13.9625 66.8197C14.4193 67.033 15.0392 67.1479 15.5939 67.1479C16.1486 67.1479 16.8011 67.0002 17.3068 66.7869C17.7473 66.59 18.3346 66.229 18.5793 65.9828C18.8403 65.7367 19.1829 65.2772 19.3461 64.9655C19.5092 64.6537 19.6723 64.1614 19.7376 63.8989C19.7865 63.6363 20.0149 61.6344 20.2433 59.4684C20.4717 57.3024 20.7001 55.4154 20.7327 55.2841C20.7653 55.1529 21.0101 54.8411 21.2548 54.5785C21.5484 54.2996 21.9562 54.0863 22.3641 54.037C22.8861 53.955 23.1308 54.0206 23.5876 54.3324C23.8976 54.5457 24.2565 54.9067 24.3544 55.12C24.4849 55.3826 24.5664 56.2523 24.5664 57.4501C24.5664 58.8449 24.6317 59.5341 24.8111 59.8787C24.958 60.1904 25.2679 60.453 26.1978 60.7812V64.4732L25.7573 64.5881C25.5289 64.6701 25.1537 64.9162 24.9416 65.1624C24.7459 65.4249 24.5664 65.8023 24.5664 66.0321C24.5664 66.2618 24.6806 66.672 24.8111 66.9346C24.958 67.2463 25.2679 67.5089 26.1978 67.8371V69.2318C26.1978 70.0031 26.1325 70.9056 26.0673 71.2502C25.9694 71.8245 25.9042 71.8573 25.3821 71.8573C25.0722 71.8573 24.648 71.9886 24.4522 72.1526C24.2728 72.3003 23.8976 72.8746 23.6202 73.4161C23.3592 73.9576 22.7556 74.9094 22.2825 75.5493C21.8094 76.1893 21.369 76.8292 21.2874 76.9769C21.2058 77.141 21.1406 78.0435 21.1406 80.7182H11.3524V77.5184L7.89386 72.3496C5.74046 69.1334 4.27223 66.7705 3.60337 65.0475L3.55443 54.9559C3.5218 49.4097 3.55443 44.6018 3.61968 44.29Z" fill="#FFDAD5"/>
<path d="M45.3501 2.74231C45.399 2.47976 45.6274 2.10236 45.8558 1.87263C46.1494 1.56086 46.4268 1.4624 46.9488 1.4624C47.3403 1.4624 48.2376 1.6429 48.9554 1.88904C49.6732 2.11877 50.9946 2.66026 51.8919 3.10331C52.7891 3.54635 54.029 4.25194 54.6652 4.67858C55.3014 5.10522 56.3944 5.94208 57.0959 6.5328C57.8137 7.12353 58.8741 8.17371 59.4614 8.84648C60.0487 9.51926 60.7991 10.4382 61.1417 10.8976C61.468 11.3407 61.7779 11.9314 61.8432 12.2103C61.9085 12.5057 61.8758 12.8831 61.729 13.1621C61.6148 13.4246 61.3538 13.7364 61.158 13.8677C60.9459 13.9989 60.5544 14.0974 60.2934 14.0974C60.0324 14.0974 59.6735 14.0317 59.5267 13.9497C59.3635 13.8841 58.9394 13.4246 58.5805 12.9323C58.2216 12.4565 57.569 11.6524 57.1449 11.1438C56.7044 10.6515 55.8724 9.81462 55.2688 9.27312C54.6652 8.74803 53.5885 7.92758 52.8707 7.45171C52.1529 6.97585 51.1577 6.38512 50.6683 6.12258C50.1789 5.87644 48.8901 5.36776 47.8134 4.99035C46.0189 4.38322 45.8232 4.28476 45.5458 3.75967C45.3392 3.37679 45.2739 3.03767 45.3501 2.74231Z" fill="black"/>
<path d="M10.0147 16.9362C10.4388 16.69 11.1566 16.3454 11.5971 16.1813C12.2333 15.968 12.8206 15.9024 14.2236 15.9352C15.9202 15.9844 16.0834 16.0172 17.2416 16.5916C17.9757 16.9526 18.7914 17.5433 19.3135 18.0684C19.7866 18.5442 20.3902 19.2991 20.6512 19.7585C20.8959 20.2016 21.2222 20.9892 21.369 21.4815C21.5158 21.9737 21.63 22.9091 21.63 23.5326C21.63 24.1561 21.5158 25.1243 21.3853 25.6658C21.2385 26.2073 20.8959 27.0441 20.6022 27.5364C20.3086 28.0123 19.6724 28.7835 19.183 29.2594C18.6935 29.7188 17.8779 30.2931 17.3884 30.5393C16.899 30.7854 16.1649 31.048 15.7571 31.1464C15.3492 31.2449 14.4846 31.3269 13.8484 31.3269C13.1469 31.3269 12.266 31.212 11.7276 31.0315C11.2056 30.8675 10.4225 30.5065 9.96573 30.2275C9.52526 29.9485 8.77483 29.325 8.31805 28.8327C7.86126 28.3569 7.33922 27.6677 7.15977 27.3067C6.96401 26.9457 6.68668 26.2073 6.53986 25.6658C6.32778 24.9438 6.27884 24.2546 6.31146 23.1224C6.37672 21.7112 6.44197 21.4158 6.99664 20.2836C7.35554 19.5124 7.92652 18.6919 8.41593 18.1997C8.87271 17.7402 9.5742 17.1823 10.0147 16.9362Z" fill="black"/>
<path d="M52.8707 17.0018C53.3275 16.7228 54.0942 16.3618 54.5836 16.1977C55.2525 15.968 55.905 15.9188 57.1938 15.9516C58.7762 15.9844 58.9883 16.0337 60.1303 16.5752C60.7991 16.9033 61.6474 17.4284 62.0063 17.7402C62.3652 18.052 62.9199 18.7083 63.2462 19.2006C63.5724 19.6929 63.9803 20.4969 64.1597 20.9892C64.3555 21.4815 64.5513 22.3347 64.6002 22.8762C64.6818 23.5162 64.6328 24.2546 64.486 25.0094C64.3555 25.633 64.0782 26.4862 63.8824 26.8965C63.6866 27.3067 63.2462 27.9959 62.9199 28.4553C62.5773 28.8984 61.8432 29.5875 61.2559 29.9814C60.6849 30.3752 59.7387 30.8346 59.1514 31.0151C58.5152 31.1956 57.6343 31.3269 56.9491 31.3269C56.3129 31.3269 55.4482 31.2285 54.9915 31.0972C54.551 30.9823 53.7679 30.6705 53.2785 30.4244C52.7891 30.1783 51.9734 29.5547 51.4677 29.046C50.962 28.5374 50.3584 27.7333 50.13 27.2575C49.8853 26.798 49.5753 25.9776 49.4448 25.4525C49.3143 24.9438 49.2001 24.1069 49.2001 23.6146C49.2001 23.1224 49.3143 22.2855 49.4448 21.7604C49.5753 21.2517 49.8853 20.4313 50.13 19.9554C50.3584 19.496 50.8967 18.7412 51.3046 18.3145C51.7124 17.8715 52.4302 17.2807 52.8707 17.0018Z" fill="black"/>
<path d="M66.4437 29.1773C66.6068 29.0296 66.8515 28.8655 66.982 28.8163C67.1125 28.7671 67.2757 28.7179 67.3572 28.7179C67.4225 28.7015 67.7324 28.8163 68.0424 28.9476C68.3524 29.0789 68.7439 29.4235 68.8907 29.7024C69.1028 30.0798 69.1354 30.326 69.0212 30.7198C68.9396 31.0151 68.5318 31.7535 68.124 32.3935C67.6998 33.017 66.8841 33.9688 66.3131 34.4939C65.7422 35.019 64.6818 35.7409 63.964 36.1184C62.9036 36.6599 62.5447 36.7583 62.0879 36.6927C61.7779 36.627 61.3538 36.3973 61.158 36.1676C60.9133 35.905 60.7828 35.544 60.7828 35.183C60.7828 34.8713 60.8481 34.461 60.9459 34.2805C61.0438 34.1 61.5985 33.6898 62.2184 33.378C62.822 33.0663 63.6051 32.574 63.964 32.2622C64.3229 31.9669 64.9591 31.1956 65.3833 30.5721C65.7911 29.9485 66.2642 29.325 66.4437 29.1773Z" fill="black"/>
<path d="M31.4998 33.3288C31.9566 33.0991 32.6091 32.8201 32.968 32.7053C33.3269 32.5904 34.2568 32.492 35.0562 32.492C36.0839 32.4755 36.7528 32.574 37.5032 32.8201C38.0579 33.0006 38.8736 33.3945 39.314 33.6734C39.7545 33.9688 40.4397 34.5595 40.8475 35.0189C41.239 35.462 41.7448 36.184 41.9568 36.6106C42.1689 37.0537 42.4626 37.8249 42.5931 38.3336C42.7236 38.8587 42.8378 39.6955 42.8378 40.1878C42.8378 40.6801 42.7236 41.5169 42.5931 42.0256C42.4626 42.5507 42.1689 43.3219 41.9568 43.7486C41.7448 44.1916 41.239 44.8972 40.8638 45.3403C40.4723 45.7833 39.7871 46.3904 39.3303 46.6858C38.8899 46.9648 38.0579 47.3586 37.5032 47.5555C36.818 47.7852 36.0513 47.9001 35.2193 47.9001C34.4036 47.9001 33.5553 47.7852 32.8864 47.5883C32.2991 47.4078 31.3856 46.9812 30.8472 46.6202C30.3089 46.2756 29.6074 45.6684 29.2811 45.2582C28.9548 44.8644 28.547 44.2737 28.3675 43.9619C28.1881 43.6501 27.8945 42.9773 27.7313 42.4851C27.5192 41.8451 27.4377 41.1395 27.4377 40.1058C27.454 39.0884 27.5682 38.35 27.7803 37.7264C27.9597 37.2342 28.3839 36.3809 28.7428 35.8558C29.0853 35.3143 29.6726 34.6251 30.0315 34.3134C30.3904 34.018 31.0593 33.575 31.4998 33.3288Z" fill="black"/>
<path d="M10.292 34.1985C10.4388 33.8375 10.7325 33.5421 11.0587 33.3945H11.0751C11.3524 33.2632 11.7765 33.1975 12.0049 33.2468C12.2333 33.296 12.5922 33.4929 12.788 33.6898C13.0001 33.8703 13.2937 34.2477 13.4242 34.5267C13.5547 34.7892 14.0768 35.5769 14.5825 36.2496C15.0882 36.9224 16.0507 38.0218 16.7359 38.6782C17.4048 39.3345 18.5793 40.3191 19.3461 40.877C20.1128 41.4185 21.2874 42.1405 21.9563 42.4687C22.6251 42.8133 23.6203 43.2563 24.1586 43.4696C24.697 43.6665 25.3006 44.0111 25.5127 44.2244C25.7574 44.5034 25.8716 44.8152 25.8716 45.2746C25.8716 45.7833 25.7574 46.0458 25.3985 46.4233C25.0722 46.7514 24.7622 46.9155 24.4196 46.9155C24.1423 46.9155 23.2777 46.653 22.4946 46.3412C21.6953 46.0294 20.4065 45.3895 19.5908 44.93C18.7914 44.4706 17.5679 43.6829 16.899 43.1907C16.2302 42.682 14.9414 41.5334 14.0441 40.6144C13.0816 39.6299 11.9886 38.3172 11.385 37.3983C10.8304 36.545 10.292 35.5933 10.2104 35.2979C10.0799 34.9041 10.1125 34.6251 10.292 34.1985Z" fill="black"/>
<path d="M32.5601 4.38325C32.9679 4.03866 33.5879 3.64484 33.9468 3.51357C34.3057 3.3987 34.9419 3.28384 35.366 3.28384C35.8065 3.26743 36.5406 3.41511 36.9974 3.59561C37.4868 3.77611 38.172 4.23557 38.5635 4.62938C38.9714 5.03961 39.3955 5.67956 39.575 6.17184C39.7544 6.6477 39.9012 7.35329 39.9012 7.7307C39.9012 8.12452 39.8034 8.76447 39.6565 9.1747C39.526 9.58492 39.1345 10.2413 38.7919 10.6515C38.4493 11.0617 37.7968 11.5704 37.3563 11.8001C36.7364 12.1119 36.3122 12.194 35.415 12.194C34.583 12.194 34.0936 12.0955 33.6205 11.8494C33.2616 11.6689 32.7232 11.3079 32.4133 11.0453C32.1033 10.7828 31.6792 10.1921 31.4508 9.74901C31.1245 9.10906 31.0266 8.68242 31.0266 7.77993C31.0266 6.87743 31.1082 6.45079 31.4181 5.82725C31.6465 5.3842 32.1523 4.72784 32.5601 4.38325Z" fill="#FF7D95"/>
<path d="M62.9362 43.929L63.4745 43.3711C63.915 42.9117 64.1434 42.8132 64.6817 42.8132C65.0569 42.8132 65.5463 42.9281 65.8074 43.0594C66.0521 43.2071 66.362 43.486 66.4925 43.6829C66.7046 43.9947 66.7372 45.4387 66.7862 53.7253C66.8188 60.0263 66.7699 63.8004 66.6557 64.5553C66.5578 65.1952 66.2805 66.1469 66.0357 66.6884C65.7747 67.2299 65.2364 68.1488 64.8285 68.7396C64.4207 69.3303 62.9525 71.5291 58.9882 77.4364V80.7182H49.2V77.1082L48.2212 75.7955C47.6829 75.0735 47.0793 74.171 46.8998 73.7936C46.704 73.3997 46.3941 72.6777 46.1983 72.1855C45.8884 71.3158 45.8557 70.922 45.7742 55.2841L46.3288 54.677C46.8346 54.1191 46.9651 54.0534 47.7155 54.0534C48.4007 54.0534 48.6127 54.1355 49.0206 54.5457C49.2979 54.8083 49.5589 55.2185 49.6079 55.4482C49.6568 55.6779 49.8689 57.6306 50.0973 59.7966C50.3257 61.9626 50.603 64.0302 50.7009 64.3912C50.8151 64.8178 51.1577 65.3265 51.7123 65.868C52.267 66.4259 52.789 66.7705 53.2785 66.9182C53.6863 67.033 54.3715 67.1315 54.8283 67.1315C55.285 67.1315 55.9539 67.0002 56.3781 66.8033C56.7859 66.6228 57.9931 65.7039 59.0698 64.7686C60.1465 63.8168 61.2232 62.7667 61.4679 62.4057C61.7126 62.0611 62.0552 61.4375 62.2347 61.0273C62.4141 60.6171 62.6425 59.731 62.7241 59.0582C62.822 58.3854 62.9035 54.6934 62.9362 43.929Z" fill="#FFDAD5"/>
<path d="M32.5275 36.5613C32.8538 36.3316 33.3432 36.0526 33.6205 35.9542C33.8978 35.8557 34.583 35.7737 35.1703 35.7737C36.0186 35.7573 36.4101 35.8393 37.1116 36.2003C37.601 36.4629 38.172 36.8895 38.4004 37.152C38.6125 37.431 38.9551 37.9397 39.1508 38.3007C39.3956 38.793 39.4934 39.2524 39.4934 40.1877C39.4934 41.2707 39.4282 41.5333 38.9877 42.3209C38.7104 42.8132 38.172 43.4695 37.7968 43.7649C37.4379 44.0439 36.818 44.372 36.4428 44.4705C36.0512 44.5689 35.3008 44.6182 34.7625 44.5854C34.2241 44.5525 33.5226 44.3884 33.2127 44.2408C32.9027 44.0931 32.3644 43.6993 32.0055 43.3547C31.6629 43.0101 31.2387 42.4358 31.0756 42.0748C30.9124 41.7138 30.733 41.0902 30.6677 40.68C30.6025 40.2041 30.6514 39.6298 30.8146 39.0391C30.9614 38.5468 31.2713 37.874 31.4997 37.5623C31.7444 37.2505 32.2012 36.791 32.5275 36.5613Z" fill="#A0C8FF"/>
<path d="M53.4905 20.7431C53.7842 20.3821 54.4367 19.8898 54.9261 19.6272C55.6439 19.2662 56.0191 19.1842 56.949 19.1842C57.7973 19.1842 58.2867 19.2827 58.8251 19.5616C59.2329 19.7585 59.8039 20.1852 60.1139 20.4969C60.4238 20.8087 60.8317 21.3994 61.0111 21.8097C61.2232 22.3019 61.3374 22.8927 61.3211 23.6147C61.3211 24.2546 61.2232 24.9274 61.0601 25.2884C60.8969 25.633 60.5054 26.2237 60.1465 26.6011C59.8039 27.0113 59.1514 27.4708 58.6456 27.7005C57.9278 28.0123 57.5689 28.0779 56.7043 28.0123C56.117 27.9795 55.3503 27.799 54.9914 27.6349C54.6325 27.4544 54.0778 27.0441 53.7679 26.7324C53.4579 26.4206 53.0501 25.8627 52.8869 25.5017C52.7075 25.1407 52.528 24.4351 52.4954 23.9428C52.4464 23.3685 52.5117 22.745 52.6748 22.2199C52.8217 21.7604 53.1969 21.1041 53.4905 20.7431Z" fill="#FFC135"/>
<path d="M11.0587 20.2508C11.4502 19.8898 12.0375 19.5124 12.3475 19.4139C12.6575 19.299 13.3753 19.217 13.9626 19.2006C14.7619 19.1842 15.235 19.2826 15.8386 19.578C16.2954 19.7749 16.9153 20.2344 17.2416 20.5954C17.5516 20.9399 17.9431 21.5635 18.1062 21.9737C18.3346 22.548 18.3836 22.9911 18.3183 23.9428C18.2367 24.9109 18.1225 25.3212 17.7636 25.8955C17.5189 26.3057 16.9969 26.88 16.6217 27.1754C16.2302 27.4708 15.6429 27.7825 15.3166 27.881C14.974 27.963 14.2888 28.0451 13.7994 28.0451C13.1958 28.0451 12.6411 27.9138 12.0865 27.6513C11.646 27.4379 11.0424 27.0113 10.7488 26.7159C10.4714 26.4042 10.0799 25.8298 9.90045 25.4196C9.67206 24.9273 9.55786 24.3366 9.55786 23.6146C9.55786 22.8434 9.67206 22.3183 9.93308 21.7276C10.1452 21.2681 10.6509 20.6118 11.0587 20.2508Z" fill="#F9F6F4"/>
</svg>
