<svg width="16" height="19" viewBox="0 0 16 19" fill="none" xmlns="http://www.w3.org/2000/svg">
<path d="M7.9866 10.2904L8.23547 10.2311C8.36947 10.2014 8.49964 10.1717 8.51879 10.1717C8.54176 10.168 8.5073 10.257 8.44221 10.3647C8.37713 10.4686 8.27758 10.6652 8.22398 10.7988C8.17038 10.9324 8.10529 11.1328 8.08232 11.2441C8.05935 11.3555 8.03255 11.4816 8.02489 11.5225C8.01723 11.5633 8.00575 11.3035 7.9866 10.2904Z" fill="#FFA900"/>
<path d="M8.00192 19L8.00575 15.4486C8.00957 12.4799 8.01723 11.9381 8.05552 12.1533C8.08232 12.298 8.13592 12.4984 8.17804 12.5986C8.21632 12.7025 8.28524 12.851 8.33118 12.9326C8.37713 13.0143 8.49199 13.1664 8.58387 13.2666C8.69108 13.3816 8.83274 13.4855 8.96291 13.5412C9.09692 13.6006 9.24241 13.634 9.38024 13.634C9.51807 13.634 9.64824 13.608 9.7631 13.5561C9.85882 13.5115 10.0311 13.3816 10.3565 13.0625L10.4638 13.1664C10.525 13.2221 10.6514 13.3668 10.7471 13.4893C10.8428 13.6117 10.9844 13.8195 11.0649 13.9531C11.1453 14.0867 11.2639 14.3465 11.3252 14.5283C11.3903 14.7102 11.4592 15.0293 11.486 15.2334C11.5205 15.5154 11.5205 15.6898 11.486 15.957C11.463 16.15 11.4094 16.4246 11.3635 16.5693C11.3214 16.7141 11.2295 16.9367 11.1644 17.0703C11.0955 17.2039 10.973 17.4117 10.8849 17.5342C10.8007 17.6566 10.6131 17.8719 10.4676 18.0129C10.3221 18.1502 10.0924 18.3395 9.95454 18.4248C9.81671 18.5139 9.59081 18.6363 9.44532 18.6994C9.30366 18.7625 9.08543 18.8441 8.95908 18.8813C8.83274 18.9147 8.72936 18.9555 8.72936 18.974C8.72936 18.9889 8.56473 19 8.00192 19Z" fill="#FFA900"/>
<path d="M8.41159 0.189258C8.63748 0.122461 8.8672 0.0519531 8.9208 0.0371094C8.9744 0.0185547 9.0548 0.00371094 9.18881 0L9.07395 0.419336C9.01269 0.645703 8.9208 1.06875 8.8672 1.35449C8.81743 1.64023 8.75234 2.11523 8.72554 2.41211C8.69874 2.72383 8.69108 3.18398 8.70257 3.50684C8.71405 3.81484 8.75234 4.22305 8.7868 4.41602C8.82508 4.60898 8.90549 4.92812 8.96674 5.12109C9.03183 5.31406 9.14669 5.5998 9.22709 5.75195C9.3075 5.9041 9.45681 6.13789 9.55636 6.26777C9.65973 6.40137 9.83202 6.57578 9.9354 6.65371C10.0426 6.73535 10.2379 6.8541 10.3757 6.91719C10.5824 7.00996 10.6858 7.03223 10.9691 7.04336C11.2103 7.05449 11.375 7.04336 11.5243 7.00254C11.6392 6.96914 11.8459 6.88008 11.9799 6.80215C12.1101 6.72422 12.3245 6.56465 12.447 6.44961C12.5695 6.33086 12.7648 6.09707 12.8796 5.93008C12.9945 5.75938 13.1247 5.54414 13.1668 5.44766C13.2127 5.34746 13.2625 5.26953 13.2855 5.26953C13.3085 5.26953 13.4348 5.43281 13.5688 5.6332C13.7066 5.82988 13.921 6.20098 14.0474 6.45703C14.1737 6.71309 14.3307 7.08047 14.3958 7.27344C14.4571 7.46641 14.5451 7.79297 14.5872 7.99707C14.6255 8.20117 14.6715 8.56855 14.6868 8.81348C14.7021 9.08066 14.6944 9.40723 14.6676 9.62988C14.6408 9.83398 14.5949 10.1271 14.5643 10.2793C14.5298 10.4314 14.4571 10.6986 14.3958 10.873C14.3345 11.0475 14.2197 11.3221 14.1393 11.4854C14.0589 11.6486 13.9861 11.8008 13.9785 11.8193C13.967 11.8416 14.055 11.849 14.2273 11.8342C14.392 11.8156 14.5987 11.7637 14.7787 11.6895C14.9356 11.6264 15.1424 11.5188 15.2381 11.4557C15.3338 11.3926 15.5367 11.2256 15.6899 11.0883C15.8392 10.9473 15.9732 10.8545 15.9847 10.873C15.9962 10.8953 16 11.1143 16 11.3666C15.9962 11.6152 15.977 11.9604 15.9579 12.1348C15.9387 12.3092 15.889 12.6172 15.8469 12.8213C15.8047 13.0254 15.6975 13.4113 15.6057 13.6748C15.5138 13.942 15.353 14.3316 15.2496 14.5469C15.1462 14.7621 14.9586 15.0961 14.8361 15.2891C14.7136 15.482 14.4915 15.8012 14.3384 15.9941C14.1852 16.1871 13.8789 16.5211 13.6607 16.7326C13.4463 16.9441 13.094 17.2447 12.8835 17.4006C12.6729 17.5527 12.3704 17.7568 12.2135 17.8533C12.0565 17.9461 11.754 18.1094 11.5434 18.2096C11.3329 18.3135 10.9883 18.4582 10.7777 18.5361C10.5671 18.6104 10.1957 18.7217 9.95454 18.7811C9.71333 18.8367 9.33812 18.9072 9.12372 18.9332C8.90549 18.9592 8.72937 18.974 8.72937 18.9629C8.72937 18.9518 8.83274 18.9146 8.95909 18.8813C9.08543 18.8441 9.30367 18.7625 9.44916 18.6994C9.59082 18.6363 9.81671 18.5139 9.95454 18.4248C10.0924 18.3395 10.3221 18.1502 10.4676 18.0129C10.6131 17.8719 10.8007 17.6566 10.8849 17.5342C10.973 17.4117 11.0955 17.2039 11.1644 17.0703C11.2295 16.9367 11.3214 16.7141 11.3635 16.5693C11.4094 16.4283 11.463 16.15 11.486 15.957C11.5205 15.6898 11.5205 15.5154 11.486 15.2334C11.4592 15.0293 11.3903 14.7139 11.3252 14.5283C11.2639 14.3465 11.1453 14.0867 11.0649 13.9531C10.9845 13.8195 10.8428 13.6117 10.7471 13.4893C10.6514 13.3668 10.525 13.2221 10.3566 13.0625L10.146 13.2703C10.0311 13.3816 9.85882 13.5115 9.76311 13.5561C9.64825 13.608 9.51807 13.634 9.38024 13.634C9.24241 13.634 9.09692 13.6006 8.96292 13.5412C8.83274 13.4855 8.69108 13.3816 8.58388 13.2666C8.49199 13.1664 8.37713 13.0143 8.33119 12.9326C8.28524 12.851 8.22015 12.71 8.1857 12.6172C8.14741 12.5244 8.10147 12.3686 8.07849 12.2646C8.05552 12.1645 8.03638 11.9195 8.03638 11.7266C8.04021 11.5336 8.06318 11.2812 8.09764 11.1699C8.12827 11.0586 8.19335 10.873 8.2393 10.7617C8.28524 10.6504 8.38096 10.4686 8.57622 10.168L8.43456 10.1902C8.35416 10.2051 8.25078 10.2311 8.20484 10.2459C8.15507 10.2645 8.08998 10.2793 8.05935 10.2793C8.00958 10.2793 8.00192 9.70039 7.99426 0.308008L8.41159 0.189258Z" fill="#FF421D"/>
<path d="M6.94903 0.794141C7.09452 0.716211 7.38167 0.578906 7.58076 0.493555C7.77985 0.404492 7.95597 0.333984 7.97128 0.333984C7.99043 0.333984 8.00191 2.57539 8.00574 10.2979L7.76454 10.3869C7.63053 10.4352 7.41996 10.5242 7.29361 10.5836C7.16726 10.6467 6.92606 10.784 6.7576 10.8916C6.58914 10.9992 6.30581 11.2219 6.12587 11.3852C5.94592 11.5447 5.6894 11.8268 5.5554 12.0086C5.42522 12.1904 5.24144 12.4799 5.14956 12.6543C5.0615 12.8287 4.93898 13.0959 4.88538 13.248C4.82795 13.4002 4.74755 13.66 4.70543 13.8232C4.66714 13.9865 4.60589 14.302 4.57526 14.5283C4.5408 14.7547 4.514 15.1703 4.514 15.4561C4.514 15.7418 4.53314 16.0832 4.55611 16.2168C4.58291 16.3504 4.648 16.5842 4.70543 16.7363C4.75903 16.8885 4.88155 17.1482 4.97727 17.3078C5.07298 17.4711 5.27973 17.7346 5.43671 17.8979C5.59368 18.0611 5.82723 18.2652 5.95358 18.3506C6.07992 18.4396 6.30581 18.5658 6.4513 18.64C6.59679 18.7105 6.84566 18.8033 6.99497 18.8479C7.14812 18.8924 7.28212 18.9406 7.29361 18.9629C7.3051 18.9852 7.27064 18.9926 7.20555 18.9814C7.14812 18.974 6.96434 18.9443 6.79588 18.9258C6.62742 18.9035 6.2905 18.8367 6.04929 18.7773C5.80809 18.7217 5.43671 18.6104 5.22613 18.5361C5.01555 18.4582 4.67097 18.3135 4.4604 18.2096C4.24982 18.1094 3.9397 17.9424 3.77124 17.8385C3.60278 17.7383 3.30031 17.5305 3.10122 17.382C2.90213 17.2373 2.55755 16.9404 2.34314 16.7289C2.12491 16.5211 1.81862 16.1871 1.66547 15.9941C1.51232 15.8012 1.29026 15.482 1.16774 15.2891C1.04523 15.0961 0.86145 14.7621 0.754247 14.5469C0.650873 14.3316 0.490069 13.9383 0.40201 13.6748C0.310122 13.4113 0.202919 13.018 0.156975 12.8027C0.11486 12.5875 0.0612587 12.2609 0.0382867 12.0791C0.0191433 11.8973 0 11.5336 0 11.2701C0 11.0104 0.0191433 10.6355 0.0421153 10.4389C0.0612587 10.2385 0.11486 9.9082 0.156975 9.7041C0.199091 9.5 0.245035 9.32188 0.260349 9.30703C0.275664 9.29219 0.440297 9.44805 0.63173 9.65586C0.819335 9.86367 1.16391 10.1902 1.39746 10.3832C1.62718 10.5725 1.96411 10.8285 2.14405 10.9436C2.324 11.0623 2.50395 11.1773 2.54606 11.1996C2.62264 11.2367 2.62264 11.2256 2.60732 10.2682C2.59966 9.69297 2.61115 9.06953 2.64178 8.73926C2.66475 8.43496 2.71835 7.95625 2.75664 7.68164C2.79493 7.40703 2.86384 7.00625 2.90979 6.79102C2.9519 6.57578 3.0591 6.16016 3.14334 5.86328C3.23139 5.56641 3.39603 5.09141 3.51089 4.80566C3.62575 4.51992 3.81718 4.11172 3.93204 3.89648C4.0469 3.68125 4.24982 3.34727 4.37999 3.1543C4.514 2.96133 4.70543 2.70156 4.80881 2.57539C4.91218 2.44922 5.06533 2.2748 5.15339 2.18574C5.23762 2.09668 5.45202 1.88887 5.63197 1.7293C5.80809 1.56973 6.11821 1.3248 6.3173 1.1875C6.51639 1.0502 6.80354 0.875781 6.94903 0.794141Z" fill="#FF6536"/>
<path d="M7.08304 10.6949C7.22087 10.6207 7.46974 10.5057 7.6382 10.4389C7.80666 10.3721 7.95598 10.3164 7.97512 10.3164C7.99044 10.3164 8.00575 10.5947 8.00958 10.9361C8.01341 11.2813 8.01341 11.6338 8.01724 11.7266C8.01724 11.8193 8.01341 13.493 8.00192 19H7.65734C7.46591 19 7.30511 18.9852 7.29362 18.9629C7.28213 18.9406 7.14813 18.8924 6.99881 18.8479C6.84567 18.8033 6.5968 18.7105 6.45131 18.64C6.30582 18.5658 6.07993 18.4396 5.95359 18.3506C5.82724 18.2652 5.59369 18.0611 5.43672 17.8979C5.27974 17.7346 5.07299 17.4711 4.97728 17.3078C4.88156 17.1482 4.75904 16.8885 4.70544 16.7363C4.64801 16.5842 4.58292 16.3504 4.55612 16.2168C4.53315 16.0832 4.51401 15.7418 4.51401 15.4561C4.51401 15.1703 4.54081 14.7547 4.57527 14.5283C4.6059 14.302 4.66715 13.9865 4.70544 13.8232C4.74756 13.66 4.82796 13.4002 4.88539 13.248C4.93899 13.0959 5.06151 12.8287 5.14957 12.6543C5.24145 12.4799 5.42523 12.1904 5.5554 12.0086C5.68941 11.8268 5.92679 11.5633 6.07993 11.426C6.22925 11.285 6.4628 11.092 6.59297 10.9992C6.72698 10.9064 6.94521 10.7691 7.08304 10.6949Z" fill="#FBBF00"/>
</svg>
