<svg width="86" height="86" viewBox="0 0 86 86" fill="none" xmlns="http://www.w3.org/2000/svg">
<path d="M20.6131 1.26364C21.1175 0.978046 22.0086 0.591659 22.6139 0.390065L23.7067 0.00367826H44.9251C63.9746 -0.0131212 66.2612 0.0204777 67.1187 0.25567C67.6567 0.406865 68.6151 0.793252 69.2708 1.12924C70.0106 1.51563 70.8512 2.13721 71.5406 2.84278C72.2131 3.51476 72.852 4.35473 73.1715 5.02671C73.4741 5.63149 73.8272 6.57226 73.9785 7.12664C74.1298 7.76502 74.2307 8.90738 74.2307 12.2505L76.7863 12.3009C79.0225 12.3345 79.4428 12.3849 80.0313 12.6873C80.4012 12.8888 81.0065 13.376 81.3595 13.7792C81.7294 14.1824 82.1498 14.7872 82.2843 15.1064C82.5028 15.5936 82.5533 16.7191 82.6542 28.4619L83.5957 28.8819C84.1169 29.1171 84.7222 29.5203 84.9576 29.8059C85.1761 30.0747 85.5124 30.5955 85.6805 30.9314C85.8823 31.3346 86 31.9226 86 32.4938C86 33.065 85.8823 33.6698 85.6805 34.0393C85.5124 34.3921 85.1089 34.9297 84.8063 35.2489C84.4868 35.5513 83.9992 35.9377 83.7302 36.0889C83.2762 36.3241 81.8639 36.3577 70.6999 36.4081C62.2933 36.4417 57.9554 36.3913 57.5015 36.2737C57.1316 36.1729 56.4927 35.8201 56.0892 35.4673C55.6856 35.1313 55.2149 34.5769 55.0635 34.2577C54.8954 33.9385 54.7105 33.3674 54.6432 32.9978C54.576 32.561 54.6264 32.0066 54.7777 31.4018C54.9571 30.7858 55.2597 30.2539 55.6856 29.8059C56.0387 29.4195 56.6776 28.9659 57.905 28.4619L58.0059 15.8623L58.443 14.9384C58.6952 14.4176 59.2164 13.7288 59.6199 13.376C60.0235 13.04 60.696 12.6369 61.1163 12.5025C61.6375 12.3177 62.5623 12.2505 66.3284 12.2505V10.5705C66.3284 9.04178 66.2948 8.85698 65.5214 7.96661L62.0747 7.88261C59.3509 7.81542 58.5775 7.74822 58.3589 7.54663C58.1908 7.39543 58.0731 7.05944 58.0899 6.65626C58.0899 6.18587 58.1908 5.95068 58.5439 5.68189C58.9979 5.3459 59.1828 5.3291 62.4614 5.3963C65.6055 5.4467 65.9754 5.4803 66.5807 5.81628C66.9505 6.01788 67.4549 6.38746 67.7071 6.65626C67.9593 6.90825 68.3124 7.46263 68.4974 7.88261C68.7832 8.48739 68.8504 8.99138 68.8504 12.2505H71.7087L71.6583 9.93215C71.6246 7.71462 71.6078 7.58022 71.0698 6.48826C70.784 5.86668 70.2123 5.04351 69.8088 4.64032C69.4221 4.23714 68.7664 3.71635 68.346 3.48116C67.9257 3.22917 67.1355 2.90998 66.5807 2.75879C65.6895 2.54039 63.0835 2.50679 45.0596 2.50679C26.9013 2.50679 24.4297 2.54039 23.5386 2.77559C22.9838 2.90998 22.2272 3.21237 21.8573 3.43076C21.4874 3.64916 20.7644 4.25394 20.26 4.80832C19.6379 5.4467 19.184 6.13547 18.9318 6.79065C18.5955 7.63062 18.5114 8.16821 18.4106 12.2505H21.2688V10.6881C21.2688 9.81455 21.3697 8.77298 21.521 8.2522C21.706 7.63062 21.9918 7.16024 22.5298 6.62266C23.0678 6.08507 23.5386 5.79948 24.1607 5.61469C24.9341 5.3963 27.0358 5.3627 39.444 5.3963L39.5649 5.39673C53.5855 5.4467 53.854 5.44766 54.2061 5.78268C54.4414 6.00108 54.576 6.32027 54.5591 6.65626C54.5591 6.97544 54.4246 7.34503 54.2229 7.54663C53.8866 7.88261 53.668 7.88261 39.5112 7.88261C28.364 7.88261 25.035 7.93301 24.6987 8.08421C24.4465 8.2018 24.1439 8.50419 24.0262 8.75619C23.8749 9.04178 23.7908 9.79775 23.7908 10.6881C23.7908 12.1665 23.7908 12.1665 24.2448 12.2841C24.5138 12.3513 24.9677 12.5697 25.2872 12.7881C25.6066 13.0064 25.9934 13.4432 26.1783 13.7624C26.4137 14.216 26.4809 14.7032 26.4809 17.5423L27.1535 17.7439C27.5234 17.8615 28.0782 18.2143 28.3808 18.4999C28.7171 18.8526 29.0029 19.3566 29.1374 19.8438C29.2551 20.2974 29.3392 21.171 29.3392 23.0021L32.7355 23.0525C35.9636 23.0861 36.199 23.1197 37.0565 23.5061C37.6113 23.7581 38.2334 24.2285 38.6201 24.6821C38.9732 25.102 39.3767 25.774 39.5112 26.194C39.713 26.782 39.7634 27.9243 39.7634 35.9377L39.2927 36.2737C39.0405 36.4753 38.6874 36.6265 38.5024 36.6265C38.3175 36.6265 37.9812 36.4753 37.3255 35.9713L37.2414 31.4522C37.191 28.5963 37.0901 26.8324 36.9724 26.614C36.8716 26.4292 36.5689 26.1268 36.2999 25.942C35.8306 25.6071 35.5117 25.606 20.2357 25.5561L20.0919 25.5556C4.89267 25.522 4.35464 25.5388 3.69892 25.8412C3.26178 26.0596 2.92551 26.3788 2.72375 26.7652C2.45474 27.3364 2.43793 28.4619 2.43793 42.9934C2.43793 56.433 2.47155 58.7009 2.69013 59.1545C2.82463 59.4569 3.17771 59.8601 3.48035 60.0449C4.01838 60.3809 4.33783 60.3809 19.9238 60.3809C35.5433 60.3809 35.8123 60.3809 36.2999 60.0449C36.5689 59.8601 36.8716 59.5577 36.9724 59.3729C37.1069 59.1377 37.191 56.181 37.3255 40.6079L37.7458 40.2887C37.9812 40.1039 38.3175 39.9527 38.5024 39.9527C38.6874 39.9527 39.0405 40.1039 39.7634 40.6415V49.8308C39.7634 57.5082 39.7298 59.1545 39.5112 59.7929C39.3767 60.2129 38.9732 60.8848 38.6201 61.3048C38.2334 61.7584 37.6113 62.2288 37.0565 62.4808C36.199 62.8672 35.9636 62.9008 29.3392 62.9848V64.1607C29.3392 64.8159 29.2551 65.6895 29.1374 66.1263C29.0029 66.6302 28.7171 67.1342 28.3808 67.4702C28.0782 67.7726 27.5234 68.1254 26.4809 68.4446V70.0405C26.4809 71.2837 26.4137 71.7709 26.1783 72.2245C25.9934 72.5437 25.6066 72.9804 25.2872 73.1988C24.9677 73.4172 24.5138 73.6356 24.2448 73.7028C23.7908 73.8204 23.7908 73.8204 23.7908 75.282C23.7908 76.1891 23.8749 76.9451 24.0262 77.2139C24.1439 77.4827 24.4633 77.7851 24.7324 77.9027C25.1191 78.0707 29.4065 78.1043 65.5214 78.0203L65.9249 77.5499C66.2948 77.1299 66.3284 76.9451 66.3284 73.7364H64.1091C62.5623 73.7364 61.6375 73.6692 61.1163 73.4844C60.696 73.35 60.0235 72.9468 59.6199 72.6108C59.2164 72.2581 58.6952 71.5693 58.0059 70.1245L57.905 57.525L57.1148 57.189C56.6776 57.021 56.0387 56.5674 55.6856 56.181C55.2485 55.7442 54.9458 55.1898 54.7777 54.5851C54.6264 54.0307 54.5591 53.4091 54.6264 53.0227C54.6768 52.6867 54.8618 52.1155 55.0467 51.7627C55.2149 51.4268 55.652 50.8724 56.0219 50.5532C56.3918 50.234 56.9971 49.8644 57.3501 49.7636C57.7032 49.646 58.4094 49.5452 59.7713 49.5452V42.2375L60.2588 41.3975C60.511 40.9271 61.0323 40.3559 61.3853 40.1039C61.7552 39.8519 62.4278 39.5664 62.8817 39.4656C63.5711 39.2976 63.9073 39.3144 64.6976 39.5328C65.2692 39.7008 65.8913 40.0199 66.2612 40.3391C66.5975 40.6415 67.0346 41.1959 67.2364 41.5655C67.5558 42.1871 67.5894 42.5399 67.6735 49.5452H72.8856L72.9361 45.9669C72.9697 42.5063 72.9865 42.3719 73.4068 41.5655C73.6422 41.0951 74.1298 40.4903 74.4997 40.2047C74.8528 39.9191 75.5758 39.6 76.0802 39.4824C76.8704 39.2808 77.1394 39.2976 77.9801 39.5328C78.6862 39.7343 79.1234 39.9863 79.695 40.5575C80.233 41.0951 80.5189 41.5655 80.7038 42.1871C80.8888 42.8422 80.956 43.9174 80.956 49.4612L82.0825 49.562C82.8727 49.6124 83.4612 49.7804 83.9824 50.0828C84.4027 50.318 84.8903 50.738 85.0921 51.0068C85.277 51.2588 85.5629 51.7291 85.7142 52.0315C85.8823 52.3339 86 52.9723 86 53.4931C86 54.0643 85.8823 54.6522 85.6805 55.0554C85.5124 55.3914 85.1761 55.9122 84.9576 56.181C84.7222 56.4498 84.1169 56.8698 82.6542 57.525L82.6037 63.9087C82.5533 69.2678 82.5028 70.3933 82.2843 70.8805C82.1498 71.1997 81.7294 71.8045 81.3595 72.2077C81.0065 72.6108 80.4012 73.098 80.0313 73.2996C79.4428 73.602 79.0225 73.6524 74.2307 73.7364V75.8027C74.2307 77.0795 74.1298 78.2219 73.9785 78.8602C73.8272 79.4146 73.4741 80.3554 73.1715 80.9602C72.8352 81.6321 72.2131 82.4721 71.5406 83.1441C70.868 83.8161 69.9937 84.4713 69.2708 84.8408C68.6151 85.1768 67.6567 85.58 67.1355 85.7312C66.2612 85.9664 64.4117 86 50.5744 86C38.5865 85.9832 34.9044 85.9496 34.6858 85.7816C34.5345 85.664 34.3327 85.3952 34.2487 85.16C34.1478 84.8912 34.1478 84.5889 34.2487 84.3201C34.3496 84.0849 34.5345 83.8161 34.6858 83.6985C34.9044 83.5305 38.5193 83.4969 50.2718 83.4801C63.5711 83.4801 65.7064 83.4465 66.5807 83.2281C67.1355 83.0769 67.9257 82.7577 68.346 82.5057C68.7664 82.2705 69.4221 81.7497 69.8088 81.3466C70.2123 80.9434 70.784 80.1202 71.0698 79.4986C71.6078 78.4067 71.6246 78.2723 71.7087 73.7364H68.8504V75.534C68.8504 76.9955 68.7832 77.4995 68.4974 78.1043C68.3124 78.5243 67.9593 79.0786 67.7071 79.3306C67.4549 79.5994 66.9505 79.9858 65.9081 80.5402L45.48 80.5906C27.6747 80.6242 24.9341 80.5906 24.1775 80.3722C23.5386 80.1874 23.0678 79.9018 22.5298 79.3642C21.9918 78.8266 21.706 78.3563 21.521 77.7347C21.3697 77.2139 21.2688 76.1723 21.2688 73.7364H18.4106L18.461 75.9539C18.5114 77.8187 18.5955 78.3563 18.9318 79.1962C19.184 79.8514 19.6379 80.5402 20.26 81.1786C20.7644 81.7329 21.4874 82.3377 21.8573 82.5561C22.2272 82.7745 22.9838 83.0769 23.5386 83.2113C24.2448 83.3961 25.3376 83.4801 27.2375 83.4801C29.087 83.4969 30.0117 83.5473 30.2135 83.6985C30.3648 83.8161 30.5666 84.0849 30.6506 84.3201C30.7515 84.5889 30.7515 84.8912 30.6506 85.16C30.5498 85.3952 30.3648 85.664 30.2135 85.7816C30.0117 85.9328 29.0029 86 26.9013 86C24.2616 86 23.7404 85.9664 22.782 85.6472C22.1767 85.4624 21.2352 85.0592 20.6972 84.7736C20.1423 84.4713 19.2176 83.7657 18.6291 83.1945C17.8557 82.4217 17.3849 81.7665 16.9142 80.7586C16.5443 79.9858 16.1744 78.9106 16.0735 78.3563C15.9726 77.8019 15.8886 76.5419 15.8886 75.5508C15.8886 73.938 15.8549 73.7364 15.6027 73.7364C15.4346 73.7364 14.9975 73.5516 14.6276 73.3332C14.2577 73.1148 13.7869 72.6444 13.5851 72.2917C13.2657 71.7373 13.2153 71.3845 13.1984 68.3606L12.6604 68.243C12.3578 68.1926 11.8534 67.907 11.5339 67.6214C11.2313 67.3358 10.8614 66.899 10.7437 66.647C10.5924 66.3447 10.5083 65.6055 10.5083 62.9848L7.02796 62.9512C3.63167 62.9008 3.49717 62.884 2.60606 62.4472C2.10166 62.212 1.46276 61.7584 1.19374 61.4392C0.924731 61.1368 0.554839 60.5825 0 59.5409V26.446L0.353079 25.774C0.554839 25.4044 0.924731 24.85 1.19374 24.5477C1.46276 24.2285 2.10166 23.7749 2.60606 23.5397C3.49717 23.1029 3.63167 23.0861 10.5083 23.0021V21.4062C10.5083 20.3814 10.5924 19.6422 10.7437 19.3566C10.8614 19.0878 11.2313 18.6511 11.5339 18.3655C11.8534 18.0799 12.3578 17.7943 13.1984 17.6263V15.9967C13.1984 14.5688 13.2657 14.2664 13.602 13.6784C13.8205 13.3088 14.2913 12.8384 14.6444 12.6369C15.0143 12.4353 15.4346 12.2673 15.6027 12.2505C15.8549 12.2505 15.8886 12.0489 15.8886 10.4529C15.8886 9.44496 15.9726 8.185 16.0735 7.63062C16.1744 7.07624 16.5443 6.00108 16.9142 5.2451C17.4018 4.22034 17.8557 3.56516 18.6291 2.80918C19.2176 2.2212 20.1087 1.53243 20.6131 1.26364Z" fill="black"/>
<path d="M18.4105 12.2504V10.8225V9.39453H21.2688V12.2504H18.4105Z" fill="#C8EFFE"/>
<path d="M68.8504 12.2504V10.8225V9.39453H71.7087V12.2504H68.8504Z" fill="#C8EFFE"/>
<path d="M18.4105 76.5923V75.1643V73.7364H21.2688V76.5923H18.4105Z" fill="#C8EFFE"/>
<path d="M68.8504 76.5923V75.1643V73.7364H71.7087V76.5923H68.8504Z" fill="#C8EFFE"/>
<path d="M2.72378 26.7651C2.92554 26.3787 3.26181 26.0596 3.69895 25.8412C4.35467 25.5388 4.87588 25.522 18.192 25.522C25.8084 25.522 32.063 25.5724 32.1134 25.6396C32.147 25.7236 32.3488 26.4627 32.5338 27.2859C32.8028 28.3779 32.9205 29.6042 32.9877 31.6538C33.0718 33.9049 33.0213 34.8793 32.786 36.2736C32.6346 37.248 32.2479 38.8271 31.9285 39.8015C31.6258 40.7759 30.9869 42.3214 30.5162 43.2454C30.0454 44.1693 29.2215 45.5301 28.7003 46.2693C28.1791 47.0085 26.9854 48.3692 26.0606 49.2932C25.0687 50.2843 23.7236 51.4267 22.782 52.0483C21.9078 52.6363 20.5795 53.409 19.8397 53.7786C19.0999 54.1482 17.7381 54.7026 16.8133 55.0218C15.8886 55.3242 14.409 55.7106 13.5347 55.8786C12.4251 56.0802 11.1136 56.1641 9.24734 56.1641C7.76777 56.1641 6.06963 56.0634 5.46435 55.9458C4.85907 55.8282 3.93434 55.6098 2.42114 55.173L2.43796 41.263C2.43796 28.3779 2.45477 27.3195 2.72378 26.7651Z" fill="#57A4FF"/>
<path d="M21.8573 3.43079C22.2272 3.2124 22.9502 2.92681 23.4546 2.77561C24.2616 2.55722 27.1871 2.52362 44.9756 2.52362C63.1003 2.50682 65.6896 2.54042 66.5807 2.75881C67.1355 2.91001 67.9258 3.2292 68.3461 3.48119C68.7664 3.71638 69.4221 4.23716 69.8257 4.64035C70.2124 5.04354 70.7672 5.83311 71.0362 6.40429C71.322 6.99227 71.6079 7.89944 71.7928 9.39459H70.3301C68.9177 9.39459 68.8505 9.37779 68.8505 9.0082C68.8505 8.80661 68.6824 8.30263 68.4974 7.88264C68.3125 7.46266 67.9594 6.90827 67.7072 6.65628C67.455 6.38749 66.9506 6.0179 66.5807 5.81631C65.9754 5.48032 65.6055 5.44672 62.4614 5.39632C59.1828 5.32913 58.9979 5.34593 58.5607 5.68192C58.2917 5.88351 58.09 6.1859 58.09 6.37069C58.09 6.68988 57.9723 6.70668 56.3246 6.70668C54.7609 6.70668 54.5592 6.67308 54.5592 6.40429C54.576 6.2531 54.4079 5.96751 54.2061 5.78271C53.854 5.44768 53.5856 5.44673 39.5649 5.39676L39.444 5.39632C27.0358 5.36273 24.9342 5.39632 24.1776 5.61472C23.5387 5.79951 23.0679 6.0851 22.5299 6.62268C21.9582 7.19386 21.706 7.63065 21.1848 9.39459H18.3265L18.461 8.52102C18.5451 8.03384 18.7637 7.21066 18.9654 6.70668C19.184 6.1187 19.6716 5.41312 20.2601 4.80834C20.7645 4.25396 21.4874 3.64918 21.8573 3.43079Z" fill="#DFF6FD"/>
<path d="M18.9654 79.2803C18.7637 78.7763 18.5451 77.9531 18.4779 77.4659L18.3602 76.5923H21.1848L21.4874 77.6003C21.706 78.3563 21.9582 78.7931 22.5299 79.3642C23.0679 79.9018 23.5387 80.1874 24.1608 80.3722C24.9342 80.5906 27.6747 80.6242 65.9082 80.5402L66.5807 80.1706C66.9506 79.9858 67.455 79.5994 67.7072 79.3306C67.9594 79.0787 68.3125 78.5243 68.4974 78.1043C68.6824 77.6843 68.8505 77.1803 68.8505 76.9619C68.8505 76.6091 68.9177 76.5923 71.7928 76.5923L71.6751 77.5499C71.6079 78.0875 71.322 78.9947 71.0362 79.5658C70.7672 80.1538 70.2124 80.9434 69.8257 81.3466C69.4221 81.7498 68.7664 82.2705 68.3461 82.5057C67.9258 82.7577 67.1355 83.0769 66.5807 83.2281C65.7064 83.4465 63.5711 83.4801 50.2718 83.4801C38.5193 83.4969 34.9044 83.5305 34.6859 83.6985C34.5346 83.8161 34.3328 84.1017 34.2319 84.3537C34.047 84.8241 34.0302 84.8241 32.4497 84.8241C30.8693 84.8241 30.8524 84.8241 30.6675 84.3537C30.5666 84.1017 30.3649 83.8161 30.2135 83.6985C30.0118 83.5473 29.087 83.4969 27.2376 83.4801C25.3377 83.4801 24.2448 83.3961 23.5387 83.2113C22.9838 83.0769 22.2272 82.7745 21.8573 82.5561C21.4874 82.3377 20.7645 81.733 20.2601 81.1786C19.6716 80.5738 19.184 79.8682 18.9654 79.2803Z" fill="#DFF6FD"/>
<path d="M32.5505 27.286C32.3488 26.4628 32.1975 25.7069 32.2143 25.6229C32.2311 25.5557 33.0381 25.5221 34.0301 25.5557C35.4592 25.6061 35.9132 25.6901 36.2999 25.942C36.5689 26.1268 36.8547 26.4628 36.9556 26.698C37.0565 26.9332 37.1406 27.2356 37.1742 27.37C37.2078 27.5044 37.2246 29.4867 37.2414 35.9377L37.7122 36.2737C37.9644 36.4753 38.2671 36.6265 38.3847 36.6097C38.5361 36.6097 38.5865 37.0465 38.5865 38.2896C38.5865 39.5328 38.5361 39.9696 38.3847 39.9696C38.2671 39.9528 37.9644 40.104 37.2414 40.6416V49.5117C37.2246 54.3835 37.2078 58.4826 37.1742 58.617C37.1406 58.7513 37.0565 59.0537 36.9556 59.2889C36.8547 59.5241 36.5689 59.8601 36.2999 60.0449C35.8291 60.3809 35.5433 60.3809 20.0078 60.3809C4.52277 60.3809 4.18651 60.3809 3.56441 60.0449C3.21134 59.8601 2.82463 59.4905 2.69012 59.2049C2.57243 58.9025 2.45474 57.9786 2.4043 55.1731L2.80782 55.3075C3.02639 55.3747 3.91749 55.6099 4.79178 55.7946C6.05278 56.0802 6.99433 56.1474 9.16324 56.1642C11.1304 56.1642 12.4082 56.0802 13.5347 55.8786C14.409 55.7106 15.8886 55.3243 16.8133 55.0219C17.738 54.7027 19.0999 54.1483 19.8397 53.7787C20.5795 53.4091 21.9077 52.6364 22.782 52.0484C23.7236 51.4268 25.0686 50.2844 26.0606 49.2933C26.9853 48.3693 28.1791 47.0085 28.7003 46.2694C29.2215 45.5302 30.0454 44.1694 30.5161 43.2455C30.9869 42.3215 31.6258 40.776 31.9284 39.8016C32.2479 38.8272 32.6346 37.2481 32.7859 36.2737C33.0213 34.8793 33.0717 33.905 32.9877 31.6539C32.9204 29.6379 32.7859 28.3612 32.5505 27.286Z" fill="#2488FF"/>
<path d="M79.2411 32.1578C79.1907 31.7882 79.0898 31.3682 79.0393 31.2338C78.9553 31.0154 79.1738 30.9818 80.5694 31.0322C81.4773 31.049 82.3852 31.1162 82.5869 31.1498C82.8055 31.2002 83.0913 31.4522 83.2259 31.7378C83.3604 32.0234 83.4781 32.393 83.4781 32.5778C83.4781 32.7626 83.2595 33.1322 82.9905 33.4177C82.5029 33.9217 82.4693 33.9217 78.9385 33.9217H78.9385L79.1234 33.3841C79.2411 33.0818 79.2747 32.5274 79.2411 32.1578Z" fill="#9C9C9C"/>
<path d="M79.2243 53.7451C79.2915 53.2579 79.2243 52.8211 79.0562 52.4851L78.804 51.9811L80.603 52.0315C81.7631 52.0651 82.5197 52.1659 82.7551 52.3339C82.9737 52.4683 83.2259 52.7371 83.3267 52.9387C83.4276 53.1571 83.4781 53.5099 83.4276 53.7451C83.3604 53.9803 83.209 54.3162 83.0745 54.501C82.8728 54.7866 82.5869 54.8538 80.8888 54.921C79.1907 54.9882 78.9553 54.9714 79.0393 54.753C79.1066 54.6186 79.1907 54.165 79.2243 53.7451Z" fill="#9C9C9C"/>
<path d="M60.8642 15.728C61.0491 15.476 61.3854 15.1568 61.6208 15.0224C61.9738 14.8208 63.487 14.7872 70.2796 14.7704C78.2323 14.7704 78.5349 14.7872 79.0561 15.1064C79.3588 15.2912 79.7287 15.7112 79.8632 16.0303C80.0649 16.5175 80.1154 17.6599 80.1154 28.5459L60.5279 28.4619V22.3301C60.5279 16.4839 60.5447 16.1815 60.8642 15.728Z" fill="#838383"/>
<path d="M60.4943 63.7575C60.4775 60.5321 60.4943 57.7937 60.5279 57.6594C60.5951 57.4746 62.3269 57.441 80.1154 57.441V63.4048C80.1154 68.327 80.0649 69.4694 79.8632 69.9565C79.7287 70.2757 79.3588 70.6957 79.073 70.8805C78.5349 71.1997 78.2155 71.2165 70.33 71.2165C63.3693 71.2165 62.0411 71.1829 61.6208 70.9645C61.3517 70.8301 60.9819 70.4605 60.8305 70.1749C60.5615 69.6877 60.5279 68.9822 60.4943 63.7575Z" fill="#838383"/>
<path d="M12.694 33.233C12.9294 33.0818 13.3834 32.8634 13.7028 32.7794C14.0223 32.6786 14.5603 32.645 14.8797 32.6954C15.1992 32.7458 15.6195 32.8634 15.8045 32.9642C15.9894 33.065 18.5619 34.7953 21.521 36.8281C24.4801 38.844 27.0862 40.6751 27.3048 40.8599C27.5233 41.0615 27.8092 41.4815 27.9269 41.7839C28.0614 42.0695 28.1623 42.6239 28.1623 42.9935C28.1623 43.363 28.0614 43.9174 27.9269 44.2198C27.8092 44.5054 27.5233 44.9254 27.3048 45.127C27.0862 45.3118 24.4801 47.1429 21.521 49.1588C18.5619 51.1916 15.9726 52.9387 15.7709 53.0395C15.5523 53.1571 15.0311 53.2579 14.5939 53.2579C14.1063 53.2747 13.5179 53.1571 13.1312 52.9723C12.7613 52.7875 12.2737 52.3675 11.6012 51.326L11.5171 35.0137L11.887 34.2745C12.1056 33.8714 12.4586 33.401 12.694 33.233Z" fill="black"/>
<path d="M12.9966 21.6918C12.9798 20.9694 13.0303 20.3142 13.1143 20.2638C13.1984 20.1966 16.208 20.1462 19.8228 20.1462C24.9004 20.1462 26.4473 20.1966 26.6154 20.3478C26.7499 20.4822 26.8172 21.0198 26.8172 23.0021H13.0303L12.9966 21.6918Z" fill="#57A4FF"/>
<path d="M13.1143 65.7567L13.0639 64.3792L13.0134 62.9848H26.8172V64.2112C26.834 64.9839 26.7499 65.4879 26.6154 65.6223C26.4473 65.7903 24.8164 65.8239 13.1143 65.7567Z" fill="#57A4FF"/>
<path d="M62.6632 42.3887C62.8817 42.1871 63.1676 41.9855 63.3021 41.9351C63.4366 41.8847 63.6047 41.8343 63.672 41.8343C63.756 41.8175 64.0419 41.9351 64.3109 42.0695C64.5799 42.2039 64.8825 42.5063 64.9834 42.7415C65.0843 42.9767 65.1515 44.6062 65.1515 49.5452H62.2933V46.1518C62.2765 42.8255 62.2933 42.7415 62.6632 42.3887Z" fill="#FFE177"/>
<path d="M75.6094 42.8423C75.7439 42.4559 76.0129 42.1871 76.3324 42.0527C76.6014 41.9351 76.8368 41.8343 76.8368 41.8175C76.8368 41.8175 77.089 41.8847 77.3748 41.9855C77.7279 42.0863 78.0305 42.3383 78.1818 42.6575C78.3836 43.0607 78.434 43.8502 78.434 49.5452H75.4077V46.4877C75.4077 44.4214 75.4749 43.2287 75.6094 42.8423Z" fill="#FFE177"/>
<path d="M15.6868 16.3159C15.67 15.5936 15.7204 14.9384 15.8045 14.888C15.8886 14.8208 17.7549 14.7704 23.959 14.7704V17.6263H15.7204L15.6868 16.3159Z" fill="#57A4FF"/>
<path d="M15.8045 71.1325L15.7541 69.7549L15.7036 68.3606H23.959V71.2165L15.8045 71.1325Z" fill="#57A4FF"/>
<path d="M57.182 32.7121C57.1148 32.3594 57.1988 32.0906 57.5015 31.6538L57.9218 31.0826L78.9384 31.0658L79.1065 31.4858C79.2074 31.721 79.2747 32.1746 79.2747 32.4937C79.2747 32.8129 79.2074 33.2665 78.9384 33.9217H58.174L57.72 33.5353C57.4846 33.3337 57.2324 32.9641 57.182 32.7121Z" fill="#ACACAC"/>
<path d="M57.182 53.2747C57.2324 53.0227 57.4678 52.6363 57.7032 52.4347L58.1067 52.0483H78.8543L79.0729 52.4683C79.1906 52.7035 79.2747 53.1571 79.2747 53.4762C79.2747 53.8122 79.2074 54.2658 78.9384 54.9042H57.9218L57.5015 54.3162C57.1988 53.8962 57.1148 53.6106 57.182 53.2747Z" fill="#ACACAC"/>
<path d="M67.6231 18.7182C67.9762 18.3822 68.5646 18.0127 68.9345 17.8783C69.3044 17.7607 69.9097 17.6431 70.2796 17.6431C70.6495 17.6431 71.2211 17.7271 71.5406 17.8447C71.8769 17.9623 72.4317 18.2646 72.8016 18.5502C73.1883 18.8526 73.6086 19.407 73.844 19.8942C74.0962 20.4486 74.2307 21.0534 74.2307 21.6581C74.2307 22.1957 74.0962 22.8677 73.9113 23.2541C73.7431 23.6237 73.3396 24.1612 73.037 24.4636C72.7175 24.766 72.1795 25.1188 71.8432 25.2532C71.4901 25.4044 70.784 25.522 70.2796 25.522C69.7752 25.522 69.1027 25.4212 68.8168 25.3036C68.5142 25.1692 67.993 24.85 67.6735 24.5644C67.3541 24.2956 66.9001 23.6573 66.6815 23.1533C66.3621 22.4309 66.3117 22.0445 66.3621 21.3221C66.4125 20.8182 66.5807 20.1462 66.732 19.8606C66.8833 19.5582 67.2868 19.0374 67.6231 18.7182Z" fill="black"/>
<path d="M67.6735 61.4224C67.993 61.1368 68.4974 60.8176 68.7664 60.7C69.0354 60.5824 69.7248 60.4816 70.2796 60.4816C70.9017 60.4816 71.5406 60.5824 71.9609 60.784C72.3308 60.952 72.9025 61.372 73.2387 61.7416C73.5582 62.0944 73.9281 62.6992 74.0458 63.0687C74.1803 63.4383 74.2475 64.1607 74.2139 64.6815C74.1635 65.3535 73.9953 65.8406 73.6254 66.4454C73.3396 66.9326 72.8184 67.4534 72.3644 67.739C71.9609 67.991 71.2548 68.243 70.784 68.2934C70.2123 68.3774 69.6743 68.327 69.1027 68.1422C68.6487 67.991 67.9762 67.6046 67.6231 67.2686C67.2868 66.9494 66.8833 66.4286 66.732 66.1262C66.5807 65.8407 66.4125 65.1687 66.3621 64.6647C66.3117 63.9423 66.3621 63.5559 66.6815 62.8335C66.9001 62.3296 67.3541 61.6912 67.6735 61.4224Z" fill="black"/>
<path d="M14.0054 42.9935C13.9718 37.0297 14.0223 35.4673 14.1904 35.2993C14.3585 35.1649 14.493 35.1649 14.7789 35.3161C14.9974 35.4337 17.5194 37.1473 20.4113 39.1296C23.3536 41.1623 25.6571 42.8591 25.6571 42.9935C25.6571 43.1279 24.0093 44.371 21.9918 45.7654C19.991 47.1597 17.469 48.8733 16.3929 49.5789C14.8461 50.6372 14.409 50.8388 14.2408 50.6708C14.0727 50.5196 14.0223 48.8565 14.0054 42.9935Z" fill="#F2FBFF"/>
<path d="M68.8672 21.6414C68.8672 21.3222 69.0522 20.9526 69.3548 20.6334C69.6238 20.3646 69.9937 20.1462 70.1787 20.1462C70.3804 20.1462 70.7335 20.247 70.9857 20.3814C71.2547 20.499 71.5069 20.7342 71.5742 20.8854C71.6582 21.0366 71.7087 21.3894 71.7087 21.6582C71.7087 21.9606 71.5573 22.3302 71.2883 22.5822C71.0025 22.8677 70.6999 23.0021 70.2795 23.0021C69.876 23.0021 69.5566 22.8677 69.2707 22.5822C69.0017 22.3134 68.8504 21.9774 68.8672 21.6414Z" fill="#F2FBFF"/>
<path d="M68.8504 64.3288C68.8672 64.0096 69.0354 63.64 69.2707 63.4048C69.5566 63.1192 69.8592 62.9848 70.2795 62.9848C70.6831 62.9848 71.0025 63.1192 71.2883 63.4048C71.5686 63.6848 71.7087 64.0096 71.7087 64.3792C71.7087 64.6647 71.6078 65.0343 71.4901 65.1855C71.3724 65.3367 71.1202 65.5383 70.9016 65.6391C70.6999 65.7567 70.3804 65.8407 70.1955 65.8407C70.0105 65.8407 69.6238 65.6223 69.3548 65.3367C69.0017 64.9839 68.8504 64.6647 68.8504 64.3288Z" fill="#F2FBFF"/>
</svg>
